<ttFont>
    <TTGlyph name=".notdef" xMin="127" yMin="0" xMax="897" yMax="750">
      <contour>
        <pt x="127" y="0" on="1"/>
        <pt x="127" y="750" on="1"/>
        <pt x="897" y="750" on="1"/>
        <pt x="897" y="0" on="1"/>
      </contour>
      <contour>
        <pt x="768" y="621" on="1"/>
        <pt x="256" y="621" on="1"/>
        <pt x="256" y="129" on="1"/>
        <pt x="768" y="129" on="1"/>
      </contour>
    </TTGlyph>
    <TTGlyph name="A" xMin="0" yMin="0" xMax="1228" yMax="1349">
      <contour>
        <pt x="1034" y="0" on="1"/>
        <pt x="896" y="382" on="1"/>
        <pt x="333" y="382" on="1"/>
        <pt x="196" y="0" on="1"/>
        <pt x="0" y="0" on="1"/>
        <pt x="510" y="1349" on="1"/>
        <pt x="727" y="1349" on="1"/>
        <pt x="1228" y="0" on="1"/>
      </contour>
      <contour>
        <pt x="616" y="1205" on="1"/>
        <pt x="604" y="1166" on="1"/>
        <pt x="535" y="954" on="1"/>
        <pt x="384" y="531" on="1"/>
        <pt x="847" y="531" on="1"/>
        <pt x="674" y="1031" on="1"/>
      </contour>
    </TTGlyph>
    <TTGlyph name="AE" xMin="1" yMin="0" xMax="1195" yMax="1349">
      <contour>
        <pt x="646" y="412" on="1"/>
        <pt x="311" y="412" on="1"/>
        <pt x="169" y="0" on="1"/>
        <pt x="1" y="0" on="1"/>
        <pt x="487" y="1349" on="1"/>
        <pt x="1154" y="1349" on="1"/>
        <pt x="1154" y="1197" on="1"/>
        <pt x="817" y="1197" on="1"/>
        <pt x="817" y="767" on="1"/>
        <pt x="1144" y="767" on="1"/>
        <pt x="1144" y="617" on="1"/>
        <pt x="817" y="617" on="1"/>
        <pt x="817" y="152" on="1"/>
        <pt x="1195" y="152" on="1"/>
        <pt x="1195" y="0" on="1"/>
        <pt x="646" y="0" on="1"/>
      </contour>
      <contour>
        <pt x="646" y="1202" on="1"/>
        <pt x="573" y="1202" on="1"/>
        <pt x="569" y="1186" on="0"/>
        <pt x="492" y="926" on="0"/>
        <pt x="362" y="561" on="1"/>
        <pt x="646" y="561" on="1"/>
      </contour>
    </TTGlyph>
    <TTGlyph name="AEacute" xMin="1" yMin="0" xMax="1195" yMax="1705">
      <component glyphName="AE" x="0" y="0" flags="0x204"/>
      <component glyphName="acute" x="245" y="245" flags="0x4"/>
    </TTGlyph>
    <TTGlyph name="Aacute" xMin="0" yMin="0" xMax="1228" yMax="1704">
      <component glyphName="A" x="0" y="0" flags="0x204"/>
      <component glyphName="acute" x="93" y="244" flags="0x4"/>
    </TTGlyph>
    <TTGlyph name="Abreve" xMin="0" yMin="0" xMax="1228" yMax="1705">
      <component glyphName="A" x="0" y="0" flags="0x204"/>
      <component glyphName="breve" x="0" y="245" flags="0x4"/>
    </TTGlyph>
    <TTGlyph name="Abreveacute" xMin="0" yMin="0" xMax="1228" yMax="1818">
      <component glyphName="A" x="0" y="0" flags="0x204"/>
      <component glyphName="breveacute" x="614" y="0" flags="0x4"/>
    </TTGlyph>
    <TTGlyph name="Abrevedotbelow" xMin="0" yMin="-321" xMax="1228" yMax="1705">
      <component glyphName="A" x="0" y="0" flags="0x204"/>
      <component glyphName="breve" x="0" y="245" flags="0x4"/>
      <component glyphName="dotbelow.alt1" x="765" y="0" flags="0x4"/>
    </TTGlyph>
    <TTGlyph name="Abrevegrave" xMin="0" yMin="0" xMax="1228" yMax="1818">
      <component glyphName="A" x="0" y="0" flags="0x204"/>
      <component glyphName="brevegrave" x="618" y="0" flags="0x4"/>
    </TTGlyph>
    <TTGlyph name="Abrevehookabove" xMin="0" yMin="0" xMax="1228" yMax="1818">
      <component glyphName="A" x="0" y="0" flags="0x204"/>
      <component glyphName="brevehook" x="614" y="0" flags="0x4"/>
    </TTGlyph>
    <TTGlyph name="Abrevetilde" xMin="0" yMin="0" xMax="1228" yMax="1818">
      <component glyphName="A" x="0" y="0" flags="0x204"/>
      <component glyphName="brevetilde" x="614" y="0" flags="0x4"/>
    </TTGlyph>
    <TTGlyph name="Acircumflex" xMin="0" yMin="0" xMax="1228" yMax="1704">
      <component glyphName="A" x="0" y="0" flags="0x204"/>
      <component glyphName="circumflex" x="0" y="244" flags="0x4"/>
    </TTGlyph>
    <TTGlyph name="Acircumflexacute" xMin="0" yMin="0" xMax="1228" yMax="1818">
      <component glyphName="A" x="0" y="0" flags="0x204"/>
      <component glyphName="circumflexacute" x="717" y="0" flags="0x4"/>
    </TTGlyph>
    <TTGlyph name="Acircumflexdotbelow" xMin="0" yMin="-321" xMax="1228" yMax="1704">
      <component glyphName="A" x="0" y="0" flags="0x204"/>
      <component glyphName="dotbelow.alt1" x="765" y="0" flags="0x4"/>
      <component glyphName="circumflex" x="0" y="244" flags="0x4"/>
    </TTGlyph>
    <TTGlyph name="Acircumflexgrave" xMin="0" yMin="0" xMax="1228" yMax="1818">
      <component glyphName="A" x="0" y="0" flags="0x204"/>
      <component glyphName="circumflexgrave" x="509" y="0" flags="0x4"/>
    </TTGlyph>
    <TTGlyph name="Acircumflexhookabove" xMin="0" yMin="0" xMax="1228" yMax="1818">
      <component glyphName="A" x="0" y="0" flags="0x204"/>
      <component glyphName="circumflexhook" x="673" y="0" flags="0x4"/>
    </TTGlyph>
    <TTGlyph name="Acircumflextilde" xMin="0" yMin="0" xMax="1228" yMax="1818">
      <component glyphName="A" x="0" y="0" flags="0x204"/>
      <component glyphName="circumflextilde" x="614" y="0" flags="0x4"/>
    </TTGlyph>
    <TTGlyph name="Adieresis" xMin="0" yMin="0" xMax="1228" yMax="1629">
      <component glyphName="A" x="0" y="0" flags="0x204"/>
      <component glyphName="dieresis" x="0" y="226" flags="0x4"/>
    </TTGlyph>
    <TTGlyph name="Adotbelow" xMin="0" yMin="-321" xMax="1228" yMax="1349">
      <component glyphName="A" x="0" y="0" flags="0x204"/>
      <component glyphName="dotbelow.alt1" x="765" y="0" flags="0x4"/>
    </TTGlyph>
    <TTGlyph name="Agrave" xMin="0" yMin="0" xMax="1228" yMax="1703">
      <component glyphName="A" x="0" y="0" flags="0x204"/>
      <component glyphName="grave" x="-93" y="243" flags="0x4"/>
    </TTGlyph>
    <TTGlyph name="Ahookabove" xMin="0" yMin="0" xMax="1228" yMax="1835">
      <component glyphName="A" x="0" y="0" flags="0x204"/>
      <component glyphName="hookabovecomb" x="897" y="0" flags="0x4"/>
    </TTGlyph>
    <TTGlyph name="Alpha" xMin="0" yMin="0" xMax="1228" yMax="1349">
      <component glyphName="A" x="0" y="0" flags="0x204"/>
    </TTGlyph>
    <TTGlyph name="Alphatonos" xMin="0" yMin="0" xMax="1228" yMax="1350">
      <component glyphName="A" x="0" y="0" flags="0x204"/>
      <component glyphName="tonos" x="-474" y="-176" flags="0x4"/>
    </TTGlyph>
    <TTGlyph name="Amacron" xMin="0" yMin="0" xMax="1228" yMax="1630">
      <component glyphName="A" x="0" y="0" flags="0x204"/>
      <component glyphName="uni02C9" x="2" y="267" flags="0x4"/>
    </TTGlyph>
    <TTGlyph name="Aogonek" xMin="0" yMin="-416" xMax="1247" yMax="1349">
      <component glyphName="A" x="0" y="0" flags="0x204"/>
      <component glyphName="ogonek" x="456" y="11" flags="0x4"/>
    </TTGlyph>
    <TTGlyph name="Aring" xMin="0" yMin="0" xMax="1228" yMax="1632">
      <component glyphName="A" x="0" y="0" flags="0x204"/>
      <component glyphName="ring" x="3" y="85" flags="0x4"/>
    </TTGlyph>
    <TTGlyph name="Aringacute" xMin="0" yMin="0" xMax="1228" yMax="1705">
      <contour>
        <pt x="856" y="1211" on="1"/>
        <pt x="856" y="1108" on="0"/>
        <pt x="769" y="1051" on="1"/>
        <pt x="1228" y="0" on="1"/>
        <pt x="1034" y="0" on="1"/>
        <pt x="896" y="323" on="1"/>
        <pt x="333" y="323" on="1"/>
        <pt x="196" y="0" on="1"/>
        <pt x="0" y="0" on="1"/>
        <pt x="465" y="1047" on="1"/>
        <pt x="372" y="1104" on="0"/>
        <pt x="372" y="1211" on="1"/>
        <pt x="372" y="1300" on="0"/>
        <pt x="505" y="1410" on="0"/>
        <pt x="614" y="1410" on="1"/>
        <pt x="725" y="1410" on="0"/>
        <pt x="856" y="1299" on="0"/>
      </contour>
      <contour>
        <pt x="625" y="1011" on="1"/>
        <pt x="607" y="1011" on="1"/>
        <pt x="593" y="970" on="1"/>
        <pt x="556" y="858" on="0"/>
        <pt x="535" y="811" on="1"/>
        <pt x="395" y="476" on="1"/>
        <pt x="836" y="476" on="1"/>
        <pt x="701" y="811" on="1"/>
        <pt x="635" y="982" on="0"/>
      </contour>
      <contour>
        <pt x="525" y="1445" on="1"/>
        <pt x="525" y="1465" on="1"/>
        <pt x="752" y="1705" on="1"/>
        <pt x="949" y="1705" on="1"/>
        <pt x="949" y="1676" on="1"/>
        <pt x="649" y="1445" on="1"/>
      </contour>
      <contour>
        <pt x="735" y="1211" on="1"/>
        <pt x="735" y="1248" on="0"/>
        <pt x="670" y="1294" on="0"/>
        <pt x="614" y="1294" on="1"/>
        <pt x="559" y="1294" on="0"/>
        <pt x="492" y="1248" on="0"/>
        <pt x="492" y="1211" on="1"/>
        <pt x="492" y="1173" on="0"/>
        <pt x="559" y="1127" on="0"/>
        <pt x="614" y="1127" on="1"/>
        <pt x="670" y="1127" on="0"/>
        <pt x="735" y="1173" on="0"/>
      </contour>
    </TTGlyph>
    <TTGlyph name="Atilde" xMin="0" yMin="0" xMax="1228" yMax="1693">
      <component glyphName="A" x="0" y="0" flags="0x204"/>
      <component glyphName="tilde" x="0" y="244" flags="0x4"/>
    </TTGlyph>
    <TTGlyph name="B" xMin="162" yMin="0" xMax="1152" yMax="1349">
      <contour>
        <pt x="1152" y="380" on="1"/>
        <pt x="1152" y="200" on="0"/>
        <pt x="878" y="0" on="0"/>
        <pt x="634" y="0" on="1"/>
        <pt x="162" y="0" on="1"/>
        <pt x="162" y="1349" on="1"/>
        <pt x="574" y="1349" on="1"/>
        <pt x="1070" y="1349" on="0"/>
        <pt x="1070" y="1022" on="1"/>
        <pt x="1070" y="900" on="0"/>
        <pt x="926" y="736" on="0"/>
        <pt x="802" y="711" on="1"/>
        <pt x="969" y="693" on="0"/>
        <pt x="1152" y="515" on="0"/>
      </contour>
      <contour>
        <pt x="878" y="998" on="1"/>
        <pt x="878" y="1105" on="0"/>
        <pt x="727" y="1196" on="0"/>
        <pt x="576" y="1196" on="1"/>
        <pt x="353" y="1196" on="1"/>
        <pt x="353" y="780" on="1"/>
        <pt x="578" y="780" on="1"/>
        <pt x="878" y="780" on="0"/>
      </contour>
      <contour>
        <pt x="959" y="397" on="1"/>
        <pt x="959" y="511" on="0"/>
        <pt x="781" y="631" on="0"/>
        <pt x="605" y="631" on="1"/>
        <pt x="353" y="631" on="1"/>
        <pt x="353" y="153" on="1"/>
        <pt x="619" y="153" on="1"/>
        <pt x="794" y="153" on="0"/>
        <pt x="959" y="274" on="0"/>
      </contour>
    </TTGlyph>
    <TTGlyph name="Beta" xMin="162" yMin="0" xMax="1152" yMax="1349">
      <component glyphName="B" x="0" y="0" flags="0x204"/>
    </TTGlyph>
    <TTGlyph name="C" xMin="113" yMin="-20" xMax="1142" yMax="1370">
      <contour>
        <pt x="314" y="681" on="1"/>
        <pt x="314" y="408" on="0"/>
        <pt x="485" y="135" on="0"/>
        <pt x="661" y="135" on="1"/>
        <pt x="762" y="135" on="0"/>
        <pt x="926" y="272" on="0"/>
        <pt x="983" y="417" on="1"/>
        <pt x="1142" y="352" on="1"/>
        <pt x="993" y="-20" on="0"/>
        <pt x="659" y="-20" on="1"/>
        <pt x="396" y="-20" on="0"/>
        <pt x="113" y="342" on="0"/>
        <pt x="113" y="681" on="1"/>
        <pt x="113" y="1370" on="0"/>
        <pt x="649" y="1370" on="1"/>
        <pt x="988" y="1370" on="0"/>
        <pt x="1115" y="1035" on="1"/>
        <pt x="947" y="970" on="1"/>
        <pt x="910" y="1083" on="0"/>
        <pt x="753" y="1214" on="0"/>
        <pt x="650" y="1214" on="1"/>
        <pt x="479" y="1214" on="0"/>
        <pt x="314" y="956" on="0"/>
      </contour>
    </TTGlyph>
    <TTGlyph name="Cacute" xMin="113" yMin="-20" xMax="1142" yMax="1704">
      <component glyphName="C" x="0" y="0" flags="0x204"/>
      <component glyphName="acute" x="132" y="244" flags="0x4"/>
    </TTGlyph>
    <TTGlyph name="Ccaron" xMin="113" yMin="-20" xMax="1142" yMax="1705">
      <component glyphName="C" x="0" y="0" flags="0x204"/>
      <component glyphName="caron" x="17" y="245" flags="0x4"/>
    </TTGlyph>
    <TTGlyph name="Ccedilla" xMin="113" yMin="-444" xMax="1142" yMax="1370">
      <component glyphName="C" x="0" y="0" flags="0x204"/>
      <component glyphName="cedilla" x="354" y="0" flags="0x4"/>
    </TTGlyph>
    <TTGlyph name="Ccircumflex" xMin="113" yMin="-20" xMax="1142" yMax="1705">
      <component glyphName="C" x="0" y="0" flags="0x204"/>
      <component glyphName="circumflex" x="20" y="245" flags="0x4"/>
    </TTGlyph>
    <TTGlyph name="Cdotaccent" xMin="113" yMin="-20" xMax="1142" yMax="1638">
      <component glyphName="C" x="0" y="0" flags="0x204"/>
      <component glyphName="dotaccent" x="30" y="154" flags="0x4"/>
    </TTGlyph>
    <TTGlyph name="Chi" xMin="36" yMin="0" xMax="1193" yMax="1349">
      <component glyphName="X" x="0" y="0" flags="0x204"/>
    </TTGlyph>
    <TTGlyph name="D" xMin="162" yMin="0" xMax="1125" yMax="1349">
      <contour>
        <pt x="1125" y="688" on="1"/>
        <pt x="1125" y="357" on="0"/>
        <pt x="818" y="0" on="0"/>
        <pt x="532" y="0" on="1"/>
        <pt x="162" y="0" on="1"/>
        <pt x="162" y="1349" on="1"/>
        <pt x="473" y="1349" on="1"/>
        <pt x="802" y="1349" on="0"/>
        <pt x="1125" y="1020" on="0"/>
      </contour>
      <contour>
        <pt x="933" y="688" on="1"/>
        <pt x="933" y="952" on="0"/>
        <pt x="713" y="1193" on="0"/>
        <pt x="474" y="1193" on="1"/>
        <pt x="353" y="1193" on="1"/>
        <pt x="353" y="156" on="1"/>
        <pt x="515" y="156" on="1"/>
        <pt x="727" y="156" on="0"/>
        <pt x="933" y="422" on="0"/>
      </contour>
    </TTGlyph>
    <TTGlyph name="Dcaron" xMin="162" yMin="0" xMax="1125" yMax="1705">
      <component glyphName="D" x="0" y="0" flags="0x204"/>
      <component glyphName="caron" x="-29" y="245" flags="0x4"/>
    </TTGlyph>
    <TTGlyph name="Dcroat" xMin="27" yMin="0" xMax="1125" yMax="1349">
      <component glyphName="Eth" x="0" y="0" flags="0x204"/>
    </TTGlyph>
    <TTGlyph name="Delta" xMin="12" yMin="0" xMax="1216" yMax="1349">
      <contour>
        <pt x="12" y="0" on="1"/>
        <pt x="12" y="145" on="1"/>
        <pt x="489" y="1349" on="1"/>
        <pt x="733" y="1349" on="1"/>
        <pt x="1216" y="147" on="1"/>
        <pt x="1216" y="0" on="1"/>
      </contour>
      <contour>
        <pt x="612" y="1214" on="1"/>
        <pt x="609" y="1204" on="0"/>
        <pt x="546" y="1019" on="0"/>
        <pt x="499" y="898" on="0"/>
        <pt x="204" y="156" on="1"/>
        <pt x="1024" y="156" on="1"/>
        <pt x="710" y="937" on="1"/>
        <pt x="659" y="1068" on="0"/>
        <pt x="623" y="1183" on="1"/>
      </contour>
    </TTGlyph>
    <TTGlyph name="E" xMin="162" yMin="0" xMax="1122" yMax="1349">
      <contour>
        <pt x="162" y="0" on="1"/>
        <pt x="162" y="1349" on="1"/>
        <pt x="1081" y="1349" on="1"/>
        <pt x="1081" y="1193" on="1"/>
        <pt x="353" y="1193" on="1"/>
        <pt x="353" y="771" on="1"/>
        <pt x="1021" y="771" on="1"/>
        <pt x="1021" y="617" on="1"/>
        <pt x="353" y="617" on="1"/>
        <pt x="353" y="156" on="1"/>
        <pt x="1122" y="156" on="1"/>
        <pt x="1122" y="0" on="1"/>
      </contour>
    </TTGlyph>
    <TTGlyph name="Eacute" xMin="162" yMin="0" xMax="1122" yMax="1704">
      <component glyphName="E" x="0" y="0" flags="0x204"/>
      <component glyphName="acute" x="91" y="244" flags="0x4"/>
    </TTGlyph>
    <TTGlyph name="Ebreve" xMin="162" yMin="0" xMax="1122" yMax="1705">
      <component glyphName="E" x="0" y="0" flags="0x204"/>
      <component glyphName="breve" x="0" y="245" flags="0x4"/>
    </TTGlyph>
    <TTGlyph name="Ecaron" xMin="162" yMin="0" xMax="1122" yMax="1705">
      <component glyphName="E" x="0" y="0" flags="0x204"/>
      <component glyphName="caron" x="0" y="245" flags="0x4"/>
    </TTGlyph>
    <TTGlyph name="Ecircumflex" xMin="162" yMin="0" xMax="1122" yMax="1704">
      <component glyphName="E" x="0" y="0" flags="0x204"/>
      <component glyphName="circumflex" x="0" y="244" flags="0x4"/>
    </TTGlyph>
    <TTGlyph name="Ecircumflexacute" xMin="162" yMin="0" xMax="1166" yMax="1818">
      <component glyphName="E" x="0" y="0" flags="0x204"/>
      <component glyphName="circumflexacute" x="737" y="0" flags="0x4"/>
    </TTGlyph>
    <TTGlyph name="Ecircumflexdotbelow" xMin="162" yMin="-321" xMax="1122" yMax="1704">
      <component glyphName="E" x="0" y="0" flags="0x204"/>
      <component glyphName="circumflex" x="0" y="244" flags="0x4"/>
      <component glyphName="dotbelow.alt1" x="795" y="0" flags="0x4"/>
    </TTGlyph>
    <TTGlyph name="Ecircumflexgrave" xMin="106" yMin="0" xMax="1122" yMax="1818">
      <component glyphName="E" x="0" y="0" flags="0x204"/>
      <component glyphName="circumflexgrave" x="533" y="0" flags="0x4"/>
    </TTGlyph>
    <TTGlyph name="Ecircumflexhookabove" xMin="162" yMin="0" xMax="1122" yMax="1818">
      <component glyphName="E" x="0" y="0" flags="0x204"/>
      <component glyphName="circumflexhook" x="691" y="0" flags="0x4"/>
    </TTGlyph>
    <TTGlyph name="Ecircumflextilde" xMin="162" yMin="0" xMax="1122" yMax="1818">
      <component glyphName="E" x="0" y="0" flags="0x204"/>
      <component glyphName="circumflextilde" x="630" y="0" flags="0x4"/>
    </TTGlyph>
    <TTGlyph name="Edieresis" xMin="162" yMin="0" xMax="1122" yMax="1629">
      <component glyphName="E" x="0" y="0" flags="0x204"/>
      <component glyphName="dieresis" x="20" y="226" flags="0x4"/>
    </TTGlyph>
    <TTGlyph name="Edotaccent" xMin="162" yMin="0" xMax="1122" yMax="1638">
      <component glyphName="E" x="0" y="0" flags="0x204"/>
      <component glyphName="dotaccent" x="0" y="154" flags="0x4"/>
    </TTGlyph>
    <TTGlyph name="Edotbelow" xMin="162" yMin="-321" xMax="1122" yMax="1349">
      <component glyphName="E" x="0" y="0" flags="0x204"/>
      <component glyphName="dotbelow.alt1" x="806" y="0" flags="0x4"/>
    </TTGlyph>
    <TTGlyph name="Egrave" xMin="162" yMin="0" xMax="1122" yMax="1704">
      <component glyphName="E" x="0" y="0" flags="0x204"/>
      <component glyphName="grave" x="-71" y="244" flags="0x4"/>
    </TTGlyph>
    <TTGlyph name="Ehookabove" xMin="162" yMin="0" xMax="1122" yMax="1835">
      <component glyphName="E" x="0" y="0" flags="0x204"/>
      <component glyphName="hookabovecomb" x="915" y="0" flags="0x4"/>
    </TTGlyph>
    <TTGlyph name="Emacron" xMin="162" yMin="0" xMax="1122" yMax="1630">
      <component glyphName="E" x="0" y="0" flags="0x204"/>
      <component glyphName="uni02C9" x="18" y="267" flags="0x4"/>
    </TTGlyph>
    <TTGlyph name="Eng" xMin="179" yMin="-20" xMax="1109" yMax="1370">
      <contour>
        <pt x="1109" y="542" on="1"/>
        <pt x="1109" y="241" on="0"/>
        <pt x="947" y="-20" on="0"/>
        <pt x="770" y="-20" on="1"/>
        <pt x="678" y="-20" on="0"/>
        <pt x="547" y="43" on="0"/>
        <pt x="485" y="132" on="1"/>
        <pt x="616" y="232" on="1"/>
        <pt x="659" y="172" on="0"/>
        <pt x="729" y="133" on="0"/>
        <pt x="775" y="133" on="1"/>
        <pt x="854" y="133" on="0"/>
        <pt x="928" y="321" on="0"/>
        <pt x="928" y="546" on="1"/>
        <pt x="928" y="963" on="1"/>
        <pt x="928" y="1100" on="0"/>
        <pt x="812" y="1231" on="0"/>
        <pt x="688" y="1231" on="1"/>
        <pt x="547" y="1231" on="0"/>
        <pt x="365" y="1048" on="0"/>
        <pt x="365" y="895" on="1"/>
        <pt x="365" y="0" on="1"/>
        <pt x="185" y="0" on="1"/>
        <pt x="185" y="1119" on="1"/>
        <pt x="185" y="1308" on="0"/>
        <pt x="179" y="1350" on="1"/>
        <pt x="349" y="1350" on="1"/>
        <pt x="350" y="1345" on="0"/>
        <pt x="352" y="1301" on="0"/>
        <pt x="355" y="1244" on="0"/>
        <pt x="357" y="1165" on="1"/>
        <pt x="360" y="1165" on="1"/>
        <pt x="466" y="1370" on="0"/>
        <pt x="746" y="1370" on="1"/>
        <pt x="1109" y="1370" on="0"/>
        <pt x="1109" y="989" on="1"/>
      </contour>
    </TTGlyph>
    <TTGlyph name="Eng.alt1" xMin="158" yMin="-425" xMax="1077" yMax="1369">
      <contour>
        <pt x="643" y="-425" on="1"/>
        <pt x="548" y="-425" on="0"/>
        <pt x="384" y="-351" on="0"/>
        <pt x="325" y="-277" on="1"/>
        <pt x="452" y="-162" on="1"/>
        <pt x="542" y="-272" on="0"/>
        <pt x="648" y="-272" on="1"/>
        <pt x="776" y="-272" on="0"/>
        <pt x="882" y="-58" on="0"/>
        <pt x="882" y="191" on="1"/>
        <pt x="882" y="842" on="1"/>
        <pt x="882" y="1043" on="0"/>
        <pt x="783" y="1214" on="0"/>
        <pt x="663" y="1214" on="1"/>
        <pt x="585" y="1214" on="0"/>
        <pt x="439" y="1106" on="0"/>
        <pt x="353" y="930" on="0"/>
        <pt x="353" y="831" on="1"/>
        <pt x="353" y="0" on="1"/>
        <pt x="162" y="0" on="1"/>
        <pt x="162" y="1032" on="1"/>
        <pt x="158" y="1349" on="1"/>
        <pt x="342" y="1349" on="1"/>
        <pt x="349" y="1195" on="0"/>
        <pt x="349" y="1118" on="1"/>
        <pt x="353" y="1118" on="1"/>
        <pt x="470" y="1369" on="0"/>
        <pt x="721" y="1369" on="1"/>
        <pt x="904" y="1369" on="0"/>
        <pt x="1077" y="1118" on="0"/>
        <pt x="1077" y="863" on="1"/>
        <pt x="1077" y="187" on="1"/>
        <pt x="1077" y="-131" on="0"/>
        <pt x="863" y="-425" on="0"/>
      </contour>
    </TTGlyph>
    <TTGlyph name="Eng.alt2" xMin="162" yMin="-425" xMax="1066" yMax="1349">
      <contour>
        <pt x="1066" y="-134" on="1"/>
        <pt x="1066" y="-284" on="0"/>
        <pt x="941" y="-425" on="0"/>
        <pt x="819" y="-425" on="1"/>
        <pt x="737" y="-425" on="0"/>
        <pt x="672" y="-411" on="1"/>
        <pt x="672" y="-259" on="1"/>
        <pt x="724" y="-270" on="0"/>
        <pt x="764" y="-270" on="1"/>
        <pt x="809" y="-270" on="0"/>
        <pt x="858" y="-242" on="0"/>
        <pt x="879" y="-177" on="0"/>
        <pt x="879" y="-94" on="1"/>
        <pt x="879" y="0" on="1"/>
        <pt x="316" y="1130" on="1"/>
        <pt x="332" y="954" on="0"/>
        <pt x="332" y="876" on="1"/>
        <pt x="332" y="0" on="1"/>
        <pt x="162" y="0" on="1"/>
        <pt x="162" y="1349" on="1"/>
        <pt x="384" y="1349" on="1"/>
        <pt x="912" y="287" on="1"/>
        <pt x="894" y="431" on="0"/>
        <pt x="894" y="561" on="1"/>
        <pt x="894" y="1349" on="1"/>
        <pt x="1066" y="1349" on="1"/>
      </contour>
    </TTGlyph>
    <TTGlyph name="Eng.alt3" xMin="158" yMin="-20" xMax="1077" yMax="1369">
      <contour>
        <pt x="1077" y="594" on="1"/>
        <pt x="1077" y="297" on="0"/>
        <pt x="832" y="-20" on="0"/>
        <pt x="606" y="-20" on="1"/>
        <pt x="424" y="-20" on="0"/>
        <pt x="205" y="119" on="0"/>
        <pt x="161" y="271" on="1"/>
        <pt x="340" y="301" on="1"/>
        <pt x="364" y="214" on="0"/>
        <pt x="493" y="129" on="0"/>
        <pt x="604" y="129" on="1"/>
        <pt x="734" y="129" on="0"/>
        <pt x="882" y="372" on="0"/>
        <pt x="882" y="594" on="1"/>
        <pt x="882" y="842" on="1"/>
        <pt x="882" y="1043" on="0"/>
        <pt x="783" y="1214" on="0"/>
        <pt x="663" y="1214" on="1"/>
        <pt x="585" y="1214" on="0"/>
        <pt x="439" y="1106" on="0"/>
        <pt x="353" y="930" on="0"/>
        <pt x="353" y="831" on="1"/>
        <pt x="353" y="658" on="1"/>
        <pt x="162" y="658" on="1"/>
        <pt x="162" y="1032" on="1"/>
        <pt x="158" y="1349" on="1"/>
        <pt x="342" y="1349" on="1"/>
        <pt x="349" y="1195" on="0"/>
        <pt x="349" y="1118" on="1"/>
        <pt x="353" y="1118" on="1"/>
        <pt x="470" y="1369" on="0"/>
        <pt x="721" y="1369" on="1"/>
        <pt x="904" y="1369" on="0"/>
        <pt x="1077" y="1118" on="0"/>
        <pt x="1077" y="863" on="1"/>
      </contour>
    </TTGlyph>
    <TTGlyph name="Eogonek" xMin="162" yMin="-427" xMax="1122" yMax="1349">
      <component glyphName="E" x="0" y="0" flags="0x204"/>
      <component glyphName="ogonek" x="331" y="0" flags="0x4"/>
    </TTGlyph>
    <TTGlyph name="Epsilon" xMin="162" yMin="0" xMax="1122" yMax="1349">
      <component glyphName="E" x="0" y="0" flags="0x204"/>
    </TTGlyph>
    <TTGlyph name="Epsilontonos" xMin="-49" yMin="0" xMax="1219" yMax="1350">
      <component glyphName="E" x="97" y="0" flags="0x4"/>
      <component glyphName="tonos" x="-524" y="-176" flags="0x4"/>
    </TTGlyph>
    <TTGlyph name="Eta" xMin="162" yMin="0" xMax="1066" yMax="1349">
      <component glyphName="H" x="0" y="0" flags="0x204"/>
    </TTGlyph>
    <TTGlyph name="Etatonos" xMin="0" yMin="0" xMax="1129" yMax="1349">
      <contour>
        <pt x="943" y="0" on="1"/>
        <pt x="943" y="623" on="1"/>
        <pt x="519" y="623" on="1"/>
        <pt x="519" y="0" on="1"/>
        <pt x="328" y="0" on="1"/>
        <pt x="328" y="1349" on="1"/>
        <pt x="519" y="1349" on="1"/>
        <pt x="519" y="783" on="1"/>
        <pt x="943" y="783" on="1"/>
        <pt x="943" y="1349" on="1"/>
        <pt x="1129" y="1349" on="1"/>
        <pt x="1129" y="0" on="1"/>
      </contour>
      <contour>
        <pt x="0" y="1024" on="1"/>
        <pt x="0" y="1057" on="1"/>
        <pt x="79" y="1349" on="1"/>
        <pt x="276" y="1349" on="1"/>
        <pt x="276" y="1312" on="1"/>
        <pt x="105" y="1024" on="1"/>
      </contour>
    </TTGlyph>
    <TTGlyph name="Eth" xMin="27" yMin="0" xMax="1125" yMax="1349">
      <contour>
        <pt x="1125" y="688" on="1"/>
        <pt x="1125" y="357" on="0"/>
        <pt x="818" y="0" on="0"/>
        <pt x="532" y="0" on="1"/>
        <pt x="162" y="0" on="1"/>
        <pt x="162" y="597" on="1"/>
        <pt x="27" y="597" on="1"/>
        <pt x="27" y="746" on="1"/>
        <pt x="162" y="746" on="1"/>
        <pt x="162" y="1349" on="1"/>
        <pt x="473" y="1349" on="1"/>
        <pt x="802" y="1349" on="0"/>
        <pt x="1125" y="1020" on="0"/>
      </contour>
      <contour>
        <pt x="642" y="597" on="1"/>
        <pt x="353" y="597" on="1"/>
        <pt x="353" y="156" on="1"/>
        <pt x="515" y="156" on="1"/>
        <pt x="727" y="156" on="0"/>
        <pt x="933" y="422" on="0"/>
        <pt x="933" y="688" on="1"/>
        <pt x="933" y="952" on="0"/>
        <pt x="713" y="1193" on="0"/>
        <pt x="474" y="1193" on="1"/>
        <pt x="353" y="1193" on="1"/>
        <pt x="353" y="746" on="1"/>
        <pt x="642" y="746" on="1"/>
      </contour>
    </TTGlyph>
    <TTGlyph name="Etilde" xMin="162" yMin="0" xMax="1122" yMax="1694">
      <component glyphName="E" x="0" y="0" flags="0x204"/>
      <component glyphName="tilde" x="1" y="245" flags="0x4"/>
    </TTGlyph>
    <TTGlyph name="Euro" xMin="91" yMin="-20" xMax="1123" yMax="1370">
      <contour>
        <pt x="873" y="463" on="1"/>
        <pt x="414" y="463" on="1"/>
        <pt x="431" y="291" on="0"/>
        <pt x="586" y="135" on="0"/>
        <pt x="737" y="135" on="1"/>
        <pt x="812" y="135" on="0"/>
        <pt x="950" y="178" on="0"/>
        <pt x="1047" y="239" on="1"/>
        <pt x="1123" y="104" on="1"/>
        <pt x="1023" y="37" on="0"/>
        <pt x="833" y="-20" on="0"/>
        <pt x="727" y="-20" on="1"/>
        <pt x="506" y="-20" on="0"/>
        <pt x="251" y="220" on="0"/>
        <pt x="222" y="460" on="1"/>
        <pt x="91" y="460" on="1"/>
        <pt x="91" y="604" on="1"/>
        <pt x="210" y="604" on="1"/>
        <pt x="206" y="679" on="1"/>
        <pt x="206" y="722" on="0"/>
        <pt x="210" y="758" on="1"/>
        <pt x="91" y="758" on="1"/>
        <pt x="91" y="900" on="1"/>
        <pt x="220" y="900" on="1"/>
        <pt x="278" y="1370" on="0"/>
        <pt x="729" y="1370" on="1"/>
        <pt x="835" y="1370" on="0"/>
        <pt x="1017" y="1317" on="0"/>
        <pt x="1108" y="1254" on="1"/>
        <pt x="1026" y="1114" on="1"/>
        <pt x="888" y="1214" on="0"/>
        <pt x="744" y="1214" on="1"/>
        <pt x="580" y="1214" on="0"/>
        <pt x="432" y="1069" on="0"/>
        <pt x="412" y="898" on="1"/>
        <pt x="873" y="898" on="1"/>
        <pt x="873" y="757" on="1"/>
        <pt x="398" y="757" on="1"/>
        <pt x="396" y="679" on="1"/>
        <pt x="399" y="605" on="1"/>
        <pt x="873" y="605" on="1"/>
      </contour>
    </TTGlyph>
    <TTGlyph name="F" xMin="194" yMin="0" xMax="1085" yMax="1349">
      <contour>
        <pt x="385" y="1193" on="1"/>
        <pt x="385" y="699" on="1"/>
        <pt x="1061" y="699" on="1"/>
        <pt x="1061" y="541" on="1"/>
        <pt x="385" y="541" on="1"/>
        <pt x="385" y="0" on="1"/>
        <pt x="194" y="0" on="1"/>
        <pt x="194" y="1349" on="1"/>
        <pt x="1085" y="1349" on="1"/>
        <pt x="1085" y="1193" on="1"/>
      </contour>
    </TTGlyph>
    <TTGlyph name="G" xMin="113" yMin="-20" xMax="1103" yMax="1370">
      <contour>
        <pt x="1101" y="133" on="1"/>
        <pt x="872" y="-20" on="0"/>
        <pt x="639" y="-20" on="1"/>
        <pt x="389" y="-20" on="0"/>
        <pt x="113" y="351" on="0"/>
        <pt x="113" y="681" on="1"/>
        <pt x="113" y="1028" on="0"/>
        <pt x="377" y="1370" on="0"/>
        <pt x="642" y="1370" on="1"/>
        <pt x="988" y="1370" on="0"/>
        <pt x="1103" y="1039" on="1"/>
        <pt x="932" y="983" on="1"/>
        <pt x="852" y="1214" on="0"/>
        <pt x="644" y="1214" on="1"/>
        <pt x="475" y="1214" on="0"/>
        <pt x="314" y="962" on="0"/>
        <pt x="314" y="681" on="1"/>
        <pt x="314" y="135" on="0"/>
        <pt x="655" y="135" on="1"/>
        <pt x="723" y="135" on="0"/>
        <pt x="869" y="177" on="0"/>
        <pt x="915" y="209" on="1"/>
        <pt x="915" y="545" on="1"/>
        <pt x="622" y="545" on="1"/>
        <pt x="622" y="705" on="1"/>
        <pt x="1101" y="705" on="1"/>
      </contour>
    </TTGlyph>
    <TTGlyph name="Gamma" xMin="224" yMin="0" xMax="1115" yMax="1349">
      <contour>
        <pt x="415" y="0" on="1"/>
        <pt x="224" y="0" on="1"/>
        <pt x="224" y="1349" on="1"/>
        <pt x="1115" y="1349" on="1"/>
        <pt x="1115" y="1193" on="1"/>
        <pt x="415" y="1193" on="1"/>
      </contour>
    </TTGlyph>
    <TTGlyph name="Gbreve" xMin="113" yMin="-20" xMax="1103" yMax="1705">
      <component glyphName="G" x="0" y="0" flags="0x204"/>
      <component glyphName="breve" x="3" y="245" flags="0x4"/>
    </TTGlyph>
    <TTGlyph name="Gcircumflex" xMin="113" yMin="-20" xMax="1103" yMax="1705">
      <component glyphName="G" x="0" y="0" flags="0x204"/>
      <component glyphName="circumflex" x="0" y="245" flags="0x4"/>
    </TTGlyph>
    <TTGlyph name="Gcommaaccent" xMin="113" yMin="-423" xMax="1103" yMax="1370">
      <component glyphName="G" x="0" y="0" flags="0x204"/>
      <component glyphName="undercommaaccent" x="0" y="0" flags="0x4"/>
    </TTGlyph>
    <TTGlyph name="Gdotaccent" xMin="113" yMin="-20" xMax="1103" yMax="1638">
      <component glyphName="G" x="0" y="0" flags="0x204"/>
      <component glyphName="dotaccent" x="10" y="154" flags="0x4"/>
    </TTGlyph>
    <TTGlyph name="H" xMin="162" yMin="0" xMax="1066" yMax="1349">
      <contour>
        <pt x="875" y="0" on="1"/>
        <pt x="875" y="623" on="1"/>
        <pt x="353" y="623" on="1"/>
        <pt x="353" y="0" on="1"/>
        <pt x="162" y="0" on="1"/>
        <pt x="162" y="1349" on="1"/>
        <pt x="353" y="1349" on="1"/>
        <pt x="353" y="783" on="1"/>
        <pt x="875" y="783" on="1"/>
        <pt x="875" y="1349" on="1"/>
        <pt x="1066" y="1349" on="1"/>
        <pt x="1066" y="0" on="1"/>
      </contour>
    </TTGlyph>
    <TTGlyph name="Hbar" xMin="2" yMin="0" xMax="1226" yMax="1349">
      <contour>
        <pt x="162" y="1153" on="1"/>
        <pt x="162" y="1349" on="1"/>
        <pt x="353" y="1349" on="1"/>
        <pt x="353" y="1153" on="1"/>
        <pt x="875" y="1153" on="1"/>
        <pt x="875" y="1349" on="1"/>
        <pt x="1066" y="1349" on="1"/>
        <pt x="1066" y="1153" on="1"/>
        <pt x="1226" y="1153" on="1"/>
        <pt x="1226" y="1005" on="1"/>
        <pt x="1066" y="1005" on="1"/>
        <pt x="1066" y="0" on="1"/>
        <pt x="875" y="0" on="1"/>
        <pt x="875" y="623" on="1"/>
        <pt x="353" y="623" on="1"/>
        <pt x="353" y="0" on="1"/>
        <pt x="162" y="0" on="1"/>
        <pt x="162" y="1005" on="1"/>
        <pt x="2" y="1005" on="1"/>
        <pt x="2" y="1153" on="1"/>
      </contour>
      <contour>
        <pt x="875" y="783" on="1"/>
        <pt x="875" y="1005" on="1"/>
        <pt x="353" y="1005" on="1"/>
        <pt x="353" y="783" on="1"/>
      </contour>
    </TTGlyph>
    <TTGlyph name="Hcircumflex" xMin="162" yMin="0" xMax="1066" yMax="1705">
      <component glyphName="H" x="0" y="0" flags="0x204"/>
      <component glyphName="circumflex" x="0" y="245" flags="0x4"/>
    </TTGlyph>
    <TTGlyph name="I" xMin="202" yMin="0" xMax="1025" yMax="1349">
      <contour>
        <pt x="202" y="1349" on="1"/>
        <pt x="1025" y="1349" on="1"/>
        <pt x="1025" y="1193" on="1"/>
        <pt x="709" y="1193" on="1"/>
        <pt x="709" y="156" on="1"/>
        <pt x="1025" y="156" on="1"/>
        <pt x="1025" y="0" on="1"/>
        <pt x="202" y="0" on="1"/>
        <pt x="202" y="156" on="1"/>
        <pt x="518" y="156" on="1"/>
        <pt x="518" y="1193" on="1"/>
        <pt x="202" y="1193" on="1"/>
      </contour>
    </TTGlyph>
    <TTGlyph name="IJ" xMin="98" yMin="-20" xMax="1157" yMax="1349">
      <contour>
        <pt x="98" y="1349" on="1"/>
        <pt x="289" y="1349" on="1"/>
        <pt x="289" y="0" on="1"/>
        <pt x="98" y="0" on="1"/>
      </contour>
      <contour>
        <pt x="768" y="135" on="1"/>
        <pt x="872" y="135" on="0"/>
        <pt x="967" y="278" on="0"/>
        <pt x="967" y="416" on="1"/>
        <pt x="967" y="1193" on="1"/>
        <pt x="696" y="1193" on="1"/>
        <pt x="696" y="1349" on="1"/>
        <pt x="1157" y="1349" on="1"/>
        <pt x="1157" y="420" on="1"/>
        <pt x="1157" y="209" on="0"/>
        <pt x="955" y="-20" on="0"/>
        <pt x="767" y="-20" on="1"/>
        <pt x="599" y="-20" on="0"/>
        <pt x="414" y="153" on="0"/>
        <pt x="377" y="350" on="1"/>
        <pt x="563" y="381" on="1"/>
        <pt x="583" y="252" on="0"/>
        <pt x="686" y="135" on="0"/>
      </contour>
    </TTGlyph>
    <TTGlyph name="Iacute" xMin="202" yMin="0" xMax="1025" yMax="1704">
      <component glyphName="I" x="0" y="0" flags="0x204"/>
      <component glyphName="acute" x="103" y="244" flags="0x4"/>
    </TTGlyph>
    <TTGlyph name="Ibreve" xMin="202" yMin="0" xMax="1025" yMax="1704">
      <component glyphName="I" x="0" y="0" flags="0x204"/>
      <component glyphName="breve" x="0" y="244" flags="0x4"/>
    </TTGlyph>
    <TTGlyph name="Icircumflex" xMin="202" yMin="0" xMax="1025" yMax="1704">
      <component glyphName="I" x="0" y="0" flags="0x204"/>
      <component glyphName="circumflex" x="0" y="244" flags="0x4"/>
    </TTGlyph>
    <TTGlyph name="Idieresis" xMin="202" yMin="0" xMax="1025" yMax="1629">
      <component glyphName="I" x="0" y="0" flags="0x204"/>
      <component glyphName="dieresis" x="0" y="226" flags="0x4"/>
    </TTGlyph>
    <TTGlyph name="Idotaccent" xMin="202" yMin="0" xMax="1025" yMax="1638">
      <component glyphName="I" x="0" y="0" flags="0x204"/>
      <component glyphName="dotaccent" x="0" y="154" flags="0x4"/>
    </TTGlyph>
    <TTGlyph name="Idotbelow" xMin="202" yMin="-321" xMax="1025" yMax="1349">
      <component glyphName="I" x="0" y="0" flags="0x204"/>
      <component glyphName="dotbelow.alt1" x="765" y="0" flags="0x4"/>
    </TTGlyph>
    <TTGlyph name="Igrave" xMin="202" yMin="0" xMax="1025" yMax="1704">
      <component glyphName="I" x="0" y="0" flags="0x204"/>
      <component glyphName="grave" x="-81" y="244" flags="0x4"/>
    </TTGlyph>
    <TTGlyph name="Ihookabove" xMin="202" yMin="0" xMax="1025" yMax="1835">
      <component glyphName="I" x="0" y="0" flags="0x204"/>
      <component glyphName="hookabovecomb" x="886" y="0" flags="0x4"/>
    </TTGlyph>
    <TTGlyph name="Imacron" xMin="202" yMin="0" xMax="1025" yMax="1630">
      <component glyphName="I" x="0" y="0" flags="0x204"/>
      <component glyphName="uni02C9" x="2" y="267" flags="0x4"/>
    </TTGlyph>
    <TTGlyph name="Iogonek" xMin="202" yMin="-427" xMax="1025" yMax="1349">
      <component glyphName="I" x="0" y="0" flags="0x204"/>
      <component glyphName="ogonek" x="13" y="0" flags="0x4"/>
    </TTGlyph>
    <TTGlyph name="Iota" xMin="202" yMin="0" xMax="1025" yMax="1349">
      <component glyphName="I" x="0" y="0" flags="0x204"/>
    </TTGlyph>
    <TTGlyph name="Iotadieresis" xMin="202" yMin="0" xMax="1025" yMax="1670">
      <component glyphName="I" x="0" y="0" flags="0x204"/>
      <component glyphName="dieresis" x="2" y="267" flags="0x4"/>
    </TTGlyph>
    <TTGlyph name="Iotatonos" xMin="1" yMin="0" xMax="1152" yMax="1350">
      <component glyphName="I" x="127" y="0" flags="0x4"/>
      <component glyphName="tonos" x="-474" y="-176" flags="0x4"/>
    </TTGlyph>
    <TTGlyph name="Itilde" xMin="202" yMin="0" xMax="1025" yMax="1694">
      <component glyphName="I" x="0" y="0" flags="0x204"/>
      <component glyphName="tilde" x="1" y="245" flags="0x4"/>
    </TTGlyph>
    <TTGlyph name="J" xMin="176" yMin="-20" xMax="986" yMax="1349">
      <contour>
        <pt x="986" y="420" on="1"/>
        <pt x="986" y="211" on="0"/>
        <pt x="776" y="-20" on="0"/>
        <pt x="586" y="-20" on="1"/>
        <pt x="415" y="-20" on="0"/>
        <pt x="211" y="158" on="0"/>
        <pt x="176" y="350" on="1"/>
        <pt x="363" y="381" on="1"/>
        <pt x="381" y="263" on="0"/>
        <pt x="498" y="135" on="0"/>
        <pt x="587" y="135" on="1"/>
        <pt x="796" y="135" on="0"/>
        <pt x="796" y="416" on="1"/>
        <pt x="796" y="1193" on="1"/>
        <pt x="485" y="1193" on="1"/>
        <pt x="485" y="1349" on="1"/>
        <pt x="986" y="1349" on="1"/>
      </contour>
    </TTGlyph>
    <TTGlyph name="Jcircumflex" xMin="176" yMin="-20" xMax="1065" yMax="1705">
      <component glyphName="J" x="0" y="0" flags="0x204"/>
      <component glyphName="circumflex" x="120" y="245" flags="0x4"/>
    </TTGlyph>
    <TTGlyph name="K" xMin="162" yMin="0" xMax="1227" yMax="1349">
      <contour>
        <pt x="1003" y="0" on="1"/>
        <pt x="516" y="638" on="1"/>
        <pt x="353" y="469" on="1"/>
        <pt x="353" y="0" on="1"/>
        <pt x="162" y="0" on="1"/>
        <pt x="162" y="1349" on="1"/>
        <pt x="353" y="1349" on="1"/>
        <pt x="353" y="676" on="1"/>
        <pt x="925" y="1349" on="1"/>
        <pt x="1150" y="1349" on="1"/>
        <pt x="646" y="777" on="1"/>
        <pt x="1227" y="0" on="1"/>
      </contour>
    </TTGlyph>
    <TTGlyph name="Kappa" xMin="162" yMin="0" xMax="1227" yMax="1349">
      <component glyphName="K" x="0" y="0" flags="0x204"/>
    </TTGlyph>
    <TTGlyph name="Kcommaaccent" xMin="162" yMin="-423" xMax="1227" yMax="1349">
      <component glyphName="K" x="0" y="0" flags="0x204"/>
      <component glyphName="undercommaaccent" x="0" y="0" flags="0x4"/>
    </TTGlyph>
    <TTGlyph name="L" xMin="237" yMin="0" xMax="1100" yMax="1349">
      <contour>
        <pt x="237" y="0" on="1"/>
        <pt x="237" y="1349" on="1"/>
        <pt x="428" y="1349" on="1"/>
        <pt x="428" y="156" on="1"/>
        <pt x="1100" y="156" on="1"/>
        <pt x="1100" y="0" on="1"/>
      </contour>
    </TTGlyph>
    <TTGlyph name="Lacute" xMin="237" yMin="0" xMax="1100" yMax="1705">
      <component glyphName="L" x="0" y="0" flags="0x204"/>
      <component glyphName="acute" x="-98" y="245" flags="0x4"/>
    </TTGlyph>
    <TTGlyph name="Lambda" xMin="10" yMin="0" xMax="1218" yMax="1349">
      <contour>
        <pt x="1218" y="0" on="1"/>
        <pt x="1017" y="0" on="1"/>
        <pt x="699" y="902" on="1"/>
        <pt x="651" y="1046" on="0"/>
        <pt x="615" y="1181" on="1"/>
        <pt x="562" y="988" on="0"/>
        <pt x="531" y="902" on="1"/>
        <pt x="211" y="0" on="1"/>
        <pt x="10" y="0" on="1"/>
        <pt x="515" y="1349" on="1"/>
        <pt x="713" y="1349" on="1"/>
      </contour>
    </TTGlyph>
    <TTGlyph name="Lcaron" xMin="237" yMin="0" xMax="1100" yMax="1349">
      <component glyphName="L" x="0" y="0" flags="0x204"/>
      <component glyphName="undercommaaccent" x="300" y="1447" flags="0x4"/>
    </TTGlyph>
    <TTGlyph name="Lcommaaccent" xMin="237" yMin="-423" xMax="1100" yMax="1349">
      <component glyphName="L" x="0" y="0" flags="0x204"/>
      <component glyphName="undercommaaccent" x="10" y="0" flags="0x4"/>
    </TTGlyph>
    <TTGlyph name="Ldot" xMin="237" yMin="0" xMax="1100" yMax="1349">
      <component glyphName="L" x="0" y="0" flags="0x204"/>
      <component glyphName="dotaccent" x="156" y="-684" flags="0x4"/>
    </TTGlyph>
    <TTGlyph name="Lslash" xMin="54" yMin="0" xMax="1100" yMax="1349">
      <contour>
        <pt x="237" y="0" on="1"/>
        <pt x="237" y="458" on="1"/>
        <pt x="120" y="397" on="1"/>
        <pt x="54" y="518" on="1"/>
        <pt x="237" y="614" on="1"/>
        <pt x="237" y="1349" on="1"/>
        <pt x="428" y="1349" on="1"/>
        <pt x="428" y="713" on="1"/>
        <pt x="720" y="864" on="1"/>
        <pt x="781" y="743" on="1"/>
        <pt x="428" y="558" on="1"/>
        <pt x="428" y="156" on="1"/>
        <pt x="1100" y="156" on="1"/>
        <pt x="1100" y="0" on="1"/>
      </contour>
    </TTGlyph>
    <TTGlyph name="M" xMin="129" yMin="0" xMax="1099" yMax="1349">
      <contour>
        <pt x="937" y="0" on="1"/>
        <pt x="937" y="868" on="1"/>
        <pt x="937" y="1003" on="0"/>
        <pt x="940" y="1069" on="1"/>
        <pt x="943" y="1169" on="1"/>
        <pt x="879" y="963" on="0"/>
        <pt x="848" y="878" on="1"/>
        <pt x="684" y="440" on="1"/>
        <pt x="547" y="440" on="1"/>
        <pt x="381" y="878" on="1"/>
        <pt x="363" y="924" on="0"/>
        <pt x="285" y="1169" on="1"/>
        <pt x="289" y="868" on="1"/>
        <pt x="289" y="0" on="1"/>
        <pt x="129" y="0" on="1"/>
        <pt x="129" y="1349" on="1"/>
        <pt x="366" y="1349" on="1"/>
        <pt x="551" y="860" on="1"/>
        <pt x="572" y="807" on="0"/>
        <pt x="619" y="629" on="1"/>
        <pt x="645" y="719" on="1"/>
        <pt x="689" y="859" on="1"/>
        <pt x="874" y="1349" on="1"/>
        <pt x="1099" y="1349" on="1"/>
        <pt x="1099" y="0" on="1"/>
      </contour>
    </TTGlyph>
    <TTGlyph name="Mu" xMin="129" yMin="0" xMax="1099" yMax="1349">
      <component glyphName="M" x="0" y="0" flags="0x204"/>
    </TTGlyph>
    <TTGlyph name="N" xMin="162" yMin="0" xMax="1066" yMax="1349">
      <contour>
        <pt x="836" y="0" on="1"/>
        <pt x="316" y="1130" on="1"/>
        <pt x="332" y="958" on="0"/>
        <pt x="332" y="876" on="1"/>
        <pt x="332" y="0" on="1"/>
        <pt x="162" y="0" on="1"/>
        <pt x="162" y="1349" on="1"/>
        <pt x="384" y="1349" on="1"/>
        <pt x="912" y="211" on="1"/>
        <pt x="894" y="355" on="0"/>
        <pt x="894" y="485" on="1"/>
        <pt x="894" y="1349" on="1"/>
        <pt x="1066" y="1349" on="1"/>
        <pt x="1066" y="0" on="1"/>
      </contour>
    </TTGlyph>
    <TTGlyph name="Nacute" xMin="162" yMin="0" xMax="1066" yMax="1705">
      <component glyphName="N" x="0" y="0" flags="0x204"/>
      <component glyphName="acute" x="122" y="245" flags="0x4"/>
    </TTGlyph>
    <TTGlyph name="Ncaron" xMin="162" yMin="0" xMax="1066" yMax="1705">
      <component glyphName="N" x="0" y="0" flags="0x204"/>
      <component glyphName="caron" x="6" y="245" flags="0x4"/>
    </TTGlyph>
    <TTGlyph name="Ncommaaccent" xMin="162" yMin="-423" xMax="1066" yMax="1349">
      <component glyphName="N" x="0" y="0" flags="0x204"/>
      <component glyphName="undercommaaccent" x="-31" y="0" flags="0x4"/>
    </TTGlyph>
    <TTGlyph name="Ntilde" xMin="162" yMin="0" xMax="1066" yMax="1694">
      <component glyphName="N" x="0" y="0" flags="0x204"/>
      <component glyphName="tilde" x="0" y="245" flags="0x4"/>
    </TTGlyph>
    <TTGlyph name="Nu" xMin="162" yMin="0" xMax="1066" yMax="1349">
      <component glyphName="N" x="0" y="0" flags="0x204"/>
    </TTGlyph>
    <TTGlyph name="O" xMin="102" yMin="-20" xMax="1126" yMax="1370">
      <contour>
        <pt x="1126" y="681" on="1"/>
        <pt x="1126" y="344" on="0"/>
        <pt x="861" y="-20" on="0"/>
        <pt x="613" y="-20" on="1"/>
        <pt x="364" y="-20" on="0"/>
        <pt x="102" y="338" on="0"/>
        <pt x="102" y="681" on="1"/>
        <pt x="102" y="1018" on="0"/>
        <pt x="362" y="1370" on="0"/>
        <pt x="615" y="1370" on="1"/>
        <pt x="862" y="1370" on="0"/>
        <pt x="1126" y="1023" on="0"/>
      </contour>
      <contour>
        <pt x="925" y="681" on="1"/>
        <pt x="925" y="1214" on="0"/>
        <pt x="615" y="1214" on="1"/>
        <pt x="303" y="1214" on="0"/>
        <pt x="303" y="681" on="1"/>
        <pt x="303" y="411" on="0"/>
        <pt x="461" y="135" on="0"/>
        <pt x="614" y="135" on="1"/>
        <pt x="777" y="135" on="0"/>
        <pt x="925" y="415" on="0"/>
      </contour>
    </TTGlyph>
    <TTGlyph name="OE" xMin="20" yMin="-5" xMax="1221" yMax="1355">
      <contour>
        <pt x="609" y="0" on="1"/>
        <pt x="552" y="-5" on="0"/>
        <pt x="511" y="-5" on="1"/>
        <pt x="256" y="-5" on="0"/>
        <pt x="20" y="333" on="0"/>
        <pt x="20" y="681" on="1"/>
        <pt x="20" y="1031" on="0"/>
        <pt x="257" y="1355" on="0"/>
        <pt x="513" y="1355" on="1"/>
        <pt x="571" y="1355" on="0"/>
        <pt x="622" y="1349" on="1"/>
        <pt x="1180" y="1349" on="1"/>
        <pt x="1180" y="1197" on="1"/>
        <pt x="782" y="1197" on="1"/>
        <pt x="782" y="757" on="1"/>
        <pt x="1149" y="757" on="1"/>
        <pt x="1149" y="607" on="1"/>
        <pt x="782" y="607" on="1"/>
        <pt x="782" y="152" on="1"/>
        <pt x="1221" y="152" on="1"/>
        <pt x="1221" y="0" on="1"/>
      </contour>
      <contour>
        <pt x="512" y="140" on="1"/>
        <pt x="584" y="140" on="0"/>
        <pt x="612" y="146" on="1"/>
        <pt x="612" y="1203" on="1"/>
        <pt x="574" y="1209" on="0"/>
        <pt x="513" y="1209" on="1"/>
        <pt x="350" y="1209" on="0"/>
        <pt x="201" y="953" on="0"/>
        <pt x="201" y="681" on="1"/>
        <pt x="201" y="406" on="0"/>
        <pt x="355" y="140" on="0"/>
      </contour>
    </TTGlyph>
    <TTGlyph name="Oacute" xMin="102" yMin="-20" xMax="1126" yMax="1704">
      <component glyphName="O" x="0" y="0" flags="0x204"/>
      <component glyphName="acute" x="98" y="244" flags="0x4"/>
    </TTGlyph>
    <TTGlyph name="Obreve" xMin="102" yMin="-20" xMax="1126" yMax="1705">
      <component glyphName="O" x="0" y="0" flags="0x204"/>
      <component glyphName="breve" x="0" y="245" flags="0x4"/>
    </TTGlyph>
    <TTGlyph name="Ocircumflex" xMin="102" yMin="-20" xMax="1126" yMax="1704">
      <component glyphName="O" x="0" y="0" flags="0x204"/>
      <component glyphName="circumflex" x="0" y="244" flags="0x4"/>
    </TTGlyph>
    <TTGlyph name="Ocircumflexacute" xMin="102" yMin="-20" xMax="1133" yMax="1818">
      <component glyphName="O" x="0" y="0" flags="0x204"/>
      <component glyphName="circumflexacute" x="704" y="0" flags="0x4"/>
    </TTGlyph>
    <TTGlyph name="Ocircumflexdotbelow" xMin="102" yMin="-321" xMax="1126" yMax="1704">
      <component glyphName="O" x="0" y="0" flags="0x204"/>
      <component glyphName="circumflex" x="0" y="244" flags="0x4"/>
      <component glyphName="dotbelow.alt1" x="765" y="0" flags="0x4"/>
    </TTGlyph>
    <TTGlyph name="Ocircumflexgrave" xMin="73" yMin="-20" xMax="1126" yMax="1818">
      <component glyphName="O" x="0" y="0" flags="0x204"/>
      <component glyphName="circumflexgrave" x="500" y="0" flags="0x4"/>
    </TTGlyph>
    <TTGlyph name="Ocircumflexhookabove" xMin="102" yMin="-20" xMax="1126" yMax="1818">
      <component glyphName="O" x="0" y="0" flags="0x204"/>
      <component glyphName="circumflexhook" x="686" y="0" flags="0x4"/>
    </TTGlyph>
    <TTGlyph name="Ocircumflextilde" xMin="102" yMin="-20" xMax="1126" yMax="1818">
      <component glyphName="O" x="0" y="0" flags="0x204"/>
      <component glyphName="circumflextilde" x="614" y="0" flags="0x4"/>
    </TTGlyph>
    <TTGlyph name="Odieresis" xMin="102" yMin="-20" xMax="1126" yMax="1629">
      <component glyphName="O" x="0" y="0" flags="0x204"/>
      <component glyphName="dieresis" x="3" y="226" flags="0x4"/>
    </TTGlyph>
    <TTGlyph name="Odotbelow" xMin="102" yMin="-321" xMax="1126" yMax="1370">
      <component glyphName="O" x="0" y="0" flags="0x204"/>
      <component glyphName="dotbelow.alt1" x="765" y="0" flags="0x4"/>
    </TTGlyph>
    <TTGlyph name="Ograve" xMin="102" yMin="-20" xMax="1126" yMax="1704">
      <component glyphName="O" x="0" y="0" flags="0x204"/>
      <component glyphName="grave" x="-86" y="244" flags="0x4"/>
    </TTGlyph>
    <TTGlyph name="Ohm" xMin="59" yMin="0" xMax="1171" yMax="1370">
      <contour>
        <pt x="615" y="1370" on="1"/>
        <pt x="860" y="1370" on="0"/>
        <pt x="1147" y="1046" on="0"/>
        <pt x="1147" y="771" on="1"/>
        <pt x="1147" y="582" on="0"/>
        <pt x="973" y="253" on="0"/>
        <pt x="810" y="145" on="1"/>
        <pt x="927" y="156" on="0"/>
        <pt x="971" y="156" on="1"/>
        <pt x="1171" y="156" on="1"/>
        <pt x="1171" y="0" on="1"/>
        <pt x="688" y="0" on="1"/>
        <pt x="688" y="224" on="1"/>
        <pt x="822" y="322" on="0"/>
        <pt x="952" y="586" on="0"/>
        <pt x="952" y="758" on="1"/>
        <pt x="952" y="982" on="0"/>
        <pt x="780" y="1214" on="0"/>
        <pt x="616" y="1214" on="1"/>
        <pt x="448" y="1214" on="0"/>
        <pt x="278" y="978" on="0"/>
        <pt x="278" y="758" on="1"/>
        <pt x="278" y="585" on="0"/>
        <pt x="409" y="322" on="0"/>
        <pt x="542" y="224" on="1"/>
        <pt x="542" y="0" on="1"/>
        <pt x="59" y="0" on="1"/>
        <pt x="59" y="156" on="1"/>
        <pt x="259" y="156" on="1"/>
        <pt x="303" y="156" on="0"/>
        <pt x="420" y="145" on="1"/>
        <pt x="257" y="254" on="0"/>
        <pt x="83" y="583" on="0"/>
        <pt x="83" y="771" on="1"/>
        <pt x="83" y="1047" on="0"/>
        <pt x="370" y="1370" on="0"/>
      </contour>
    </TTGlyph>
    <TTGlyph name="Ohookabove" xMin="102" yMin="-20" xMax="1126" yMax="1835">
      <component glyphName="O" x="0" y="0" flags="0x204"/>
      <component glyphName="hookabovecomb" x="886" y="0" flags="0x4"/>
    </TTGlyph>
    <TTGlyph name="Ohorn" xMin="102" yMin="-20" xMax="1254" yMax="1409">
      <contour>
        <pt x="1126" y="681" on="1"/>
        <pt x="1126" y="344" on="0"/>
        <pt x="861" y="-20" on="0"/>
        <pt x="613" y="-20" on="1"/>
        <pt x="364" y="-20" on="0"/>
        <pt x="102" y="338" on="0"/>
        <pt x="102" y="681" on="1"/>
        <pt x="102" y="1026" on="0"/>
        <pt x="367" y="1370" on="0"/>
        <pt x="615" y="1370" on="1"/>
        <pt x="947" y="1370" on="0"/>
        <pt x="1065" y="1065" on="1"/>
        <pt x="1147" y="1128" on="0"/>
        <pt x="1147" y="1242" on="1"/>
        <pt x="1059" y="1242" on="1"/>
        <pt x="1059" y="1409" on="1"/>
        <pt x="1254" y="1409" on="1"/>
        <pt x="1254" y="1303" on="1"/>
        <pt x="1254" y="1091" on="0"/>
        <pt x="1092" y="981" on="1"/>
        <pt x="1126" y="854" on="0"/>
      </contour>
      <contour>
        <pt x="925" y="681" on="1"/>
        <pt x="925" y="1214" on="0"/>
        <pt x="615" y="1214" on="1"/>
        <pt x="303" y="1214" on="0"/>
        <pt x="303" y="681" on="1"/>
        <pt x="303" y="411" on="0"/>
        <pt x="461" y="135" on="0"/>
        <pt x="614" y="135" on="1"/>
        <pt x="777" y="135" on="0"/>
        <pt x="925" y="415" on="0"/>
      </contour>
    </TTGlyph>
    <TTGlyph name="Ohornacute" xMin="102" yMin="-20" xMax="1254" yMax="1704">
      <component glyphName="Ohorn" x="0" y="0" flags="0x204"/>
      <component glyphName="acute" x="98" y="244" flags="0x4"/>
    </TTGlyph>
    <TTGlyph name="Ohorndotbelow" xMin="102" yMin="-321" xMax="1254" yMax="1409">
      <component glyphName="Ohorn" x="0" y="0" flags="0x204"/>
      <component glyphName="dotbelow.alt1" x="774" y="0" flags="0x4"/>
    </TTGlyph>
    <TTGlyph name="Ohorngrave" xMin="102" yMin="-20" xMax="1254" yMax="1704">
      <component glyphName="Ohorn" x="0" y="0" flags="0x204"/>
      <component glyphName="grave" x="-86" y="244" flags="0x4"/>
    </TTGlyph>
    <TTGlyph name="Ohornhookabove" xMin="102" yMin="-20" xMax="1254" yMax="1835">
      <component glyphName="Ohorn" x="0" y="0" flags="0x204"/>
      <component glyphName="hookabovecomb" x="900" y="0" flags="0x4"/>
    </TTGlyph>
    <TTGlyph name="Ohorntilde" xMin="102" yMin="-20" xMax="1254" yMax="1693">
      <component glyphName="Ohorn" x="0" y="0" flags="0x204"/>
      <component glyphName="tilde" x="0" y="244" flags="0x4"/>
    </TTGlyph>
    <TTGlyph name="Ohungarumlaut" xMin="102" yMin="-20" xMax="1126" yMax="1704">
      <component glyphName="O" x="0" y="0" flags="0x204"/>
      <component glyphName="hungarumlaut" x="301" y="244" flags="0x4"/>
    </TTGlyph>
    <TTGlyph name="Omacron" xMin="102" yMin="-20" xMax="1126" yMax="1630">
      <component glyphName="O" x="0" y="0" flags="0x204"/>
      <component glyphName="uni02C9" x="2" y="267" flags="0x4"/>
    </TTGlyph>
    <TTGlyph name="Omega" xMin="59" yMin="0" xMax="1171" yMax="1370">
      <contour>
        <pt x="615" y="1370" on="1"/>
        <pt x="860" y="1370" on="0"/>
        <pt x="1147" y="1046" on="0"/>
        <pt x="1147" y="771" on="1"/>
        <pt x="1147" y="582" on="0"/>
        <pt x="973" y="253" on="0"/>
        <pt x="810" y="145" on="1"/>
        <pt x="927" y="156" on="0"/>
        <pt x="971" y="156" on="1"/>
        <pt x="1171" y="156" on="1"/>
        <pt x="1171" y="0" on="1"/>
        <pt x="688" y="0" on="1"/>
        <pt x="688" y="224" on="1"/>
        <pt x="822" y="322" on="0"/>
        <pt x="952" y="586" on="0"/>
        <pt x="952" y="758" on="1"/>
        <pt x="952" y="982" on="0"/>
        <pt x="780" y="1214" on="0"/>
        <pt x="616" y="1214" on="1"/>
        <pt x="448" y="1214" on="0"/>
        <pt x="278" y="978" on="0"/>
        <pt x="278" y="758" on="1"/>
        <pt x="278" y="585" on="0"/>
        <pt x="409" y="322" on="0"/>
        <pt x="542" y="224" on="1"/>
        <pt x="542" y="0" on="1"/>
        <pt x="59" y="0" on="1"/>
        <pt x="59" y="156" on="1"/>
        <pt x="259" y="156" on="1"/>
        <pt x="303" y="156" on="0"/>
        <pt x="420" y="145" on="1"/>
        <pt x="257" y="254" on="0"/>
        <pt x="83" y="583" on="0"/>
        <pt x="83" y="771" on="1"/>
        <pt x="83" y="1047" on="0"/>
        <pt x="370" y="1370" on="0"/>
      </contour>
    </TTGlyph>
    <TTGlyph name="Omegatonos" xMin="-50" yMin="0" xMax="1179" yMax="1370">
      <contour>
        <pt x="653" y="1370" on="1"/>
        <pt x="880" y="1370" on="0"/>
        <pt x="1155" y="1042" on="0"/>
        <pt x="1155" y="771" on="1"/>
        <pt x="1155" y="568" on="0"/>
        <pt x="990" y="247" on="0"/>
        <pt x="838" y="145" on="1"/>
        <pt x="933" y="156" on="0"/>
        <pt x="979" y="156" on="1"/>
        <pt x="1179" y="156" on="1"/>
        <pt x="1179" y="0" on="1"/>
        <pt x="716" y="0" on="1"/>
        <pt x="716" y="224" on="1"/>
        <pt x="840" y="315" on="0"/>
        <pt x="960" y="569" on="0"/>
        <pt x="960" y="758" on="1"/>
        <pt x="960" y="973" on="0"/>
        <pt x="802" y="1214" on="0"/>
        <pt x="654" y="1214" on="1"/>
        <pt x="506" y="1214" on="0"/>
        <pt x="346" y="975" on="0"/>
        <pt x="346" y="758" on="1"/>
        <pt x="346" y="569" on="0"/>
        <pt x="466" y="316" on="0"/>
        <pt x="590" y="224" on="1"/>
        <pt x="590" y="0" on="1"/>
        <pt x="127" y="0" on="1"/>
        <pt x="127" y="156" on="1"/>
        <pt x="327" y="156" on="1"/>
        <pt x="373" y="156" on="0"/>
        <pt x="468" y="145" on="1"/>
        <pt x="316" y="246" on="0"/>
        <pt x="151" y="567" on="0"/>
        <pt x="151" y="771" on="1"/>
        <pt x="151" y="948" on="0"/>
        <pt x="277" y="1222" on="0"/>
        <pt x="505" y="1370" on="0"/>
      </contour>
      <contour>
        <pt x="-50" y="1024" on="1"/>
        <pt x="-50" y="1057" on="1"/>
        <pt x="29" y="1349" on="1"/>
        <pt x="226" y="1349" on="1"/>
        <pt x="226" y="1312" on="1"/>
        <pt x="55" y="1024" on="1"/>
      </contour>
    </TTGlyph>
    <TTGlyph name="Omicron" xMin="102" yMin="-20" xMax="1126" yMax="1370">
      <component glyphName="O" x="0" y="0" flags="0x204"/>
    </TTGlyph>
    <TTGlyph name="Omicrontonos" xMin="-49" yMin="-20" xMax="1196" yMax="1370">
      <component glyphName="O" x="70" y="0" flags="0x4"/>
      <component glyphName="tonos" x="-524" y="-176" flags="0x4"/>
    </TTGlyph>
    <TTGlyph name="Oslash" xMin="56" yMin="-38" xMax="1170" yMax="1392">
      <contour>
        <pt x="1126" y="681" on="1"/>
        <pt x="1126" y="344" on="0"/>
        <pt x="861" y="-20" on="0"/>
        <pt x="613" y="-20" on="1"/>
        <pt x="395" y="-20" on="0"/>
        <pt x="267" y="118" on="1"/>
        <pt x="150" y="-38" on="1"/>
        <pt x="56" y="27" on="1"/>
        <pt x="197" y="216" on="1"/>
        <pt x="102" y="390" on="0"/>
        <pt x="102" y="681" on="1"/>
        <pt x="102" y="1018" on="0"/>
        <pt x="362" y="1370" on="0"/>
        <pt x="615" y="1370" on="1"/>
        <pt x="832" y="1370" on="0"/>
        <pt x="960" y="1236" on="1"/>
        <pt x="1076" y="1392" on="1"/>
        <pt x="1170" y="1327" on="1"/>
        <pt x="1030" y="1140" on="1"/>
        <pt x="1126" y="970" on="0"/>
      </contour>
      <contour>
        <pt x="925" y="681" on="1"/>
        <pt x="925" y="845" on="0"/>
        <pt x="895" y="959" on="1"/>
        <pt x="383" y="273" on="1"/>
        <pt x="462" y="135" on="0"/>
        <pt x="614" y="135" on="1"/>
        <pt x="777" y="135" on="0"/>
        <pt x="925" y="415" on="0"/>
      </contour>
      <contour>
        <pt x="303" y="681" on="1"/>
        <pt x="303" y="515" on="0"/>
        <pt x="333" y="399" on="1"/>
        <pt x="845" y="1083" on="1"/>
        <pt x="768" y="1214" on="0"/>
        <pt x="615" y="1214" on="1"/>
        <pt x="303" y="1214" on="0"/>
      </contour>
    </TTGlyph>
    <TTGlyph name="Oslashacute" xMin="56" yMin="-38" xMax="1170" yMax="1705">
      <component glyphName="Oslash" x="0" y="0" flags="0x204"/>
      <component glyphName="acute" x="100" y="245" flags="0x4"/>
    </TTGlyph>
    <TTGlyph name="Otilde" xMin="102" yMin="-20" xMax="1126" yMax="1693">
      <component glyphName="O" x="0" y="0" flags="0x204"/>
      <component glyphName="tilde" x="0" y="244" flags="0x4"/>
    </TTGlyph>
    <TTGlyph name="P" xMin="162" yMin="0" xMax="1119" yMax="1349">
      <contour>
        <pt x="1119" y="945" on="1"/>
        <pt x="1119" y="820" on="0"/>
        <pt x="1000" y="624" on="0"/>
        <pt x="779" y="514" on="0"/>
        <pt x="634" y="514" on="1"/>
        <pt x="353" y="514" on="1"/>
        <pt x="353" y="0" on="1"/>
        <pt x="162" y="0" on="1"/>
        <pt x="162" y="1349" on="1"/>
        <pt x="622" y="1349" on="1"/>
        <pt x="860" y="1349" on="0"/>
        <pt x="1119" y="1136" on="0"/>
      </contour>
      <contour>
        <pt x="927" y="942" on="1"/>
        <pt x="927" y="1196" on="0"/>
        <pt x="599" y="1196" on="1"/>
        <pt x="353" y="1196" on="1"/>
        <pt x="353" y="665" on="1"/>
        <pt x="607" y="665" on="1"/>
        <pt x="756" y="665" on="0"/>
        <pt x="927" y="811" on="0"/>
      </contour>
    </TTGlyph>
    <TTGlyph name="Phi" xMin="8" yMin="-11" xMax="1221" yMax="1359">
      <contour>
        <pt x="1221" y="706" on="1"/>
        <pt x="1221" y="568" on="0"/>
        <pt x="1101" y="337" on="0"/>
        <pt x="886" y="206" on="0"/>
        <pt x="746" y="206" on="1"/>
        <pt x="705" y="206" on="1"/>
        <pt x="705" y="-11" on="1"/>
        <pt x="524" y="-11" on="1"/>
        <pt x="524" y="206" on="1"/>
        <pt x="483" y="206" on="1"/>
        <pt x="344" y="206" on="0"/>
        <pt x="128" y="336" on="0"/>
        <pt x="8" y="569" on="0"/>
        <pt x="8" y="706" on="1"/>
        <pt x="8" y="926" on="0"/>
        <pt x="270" y="1187" on="0"/>
        <pt x="494" y="1187" on="1"/>
        <pt x="524" y="1187" on="1"/>
        <pt x="524" y="1359" on="1"/>
        <pt x="705" y="1359" on="1"/>
        <pt x="705" y="1187" on="1"/>
        <pt x="734" y="1187" on="1"/>
        <pt x="958" y="1187" on="0"/>
        <pt x="1221" y="927" on="0"/>
      </contour>
      <contour>
        <pt x="1027" y="702" on="1"/>
        <pt x="1027" y="866" on="0"/>
        <pt x="862" y="1044" on="0"/>
        <pt x="710" y="1044" on="1"/>
        <pt x="705" y="1044" on="1"/>
        <pt x="705" y="348" on="1"/>
        <pt x="717" y="348" on="1"/>
        <pt x="864" y="348" on="0"/>
        <pt x="1027" y="541" on="0"/>
      </contour>
      <contour>
        <pt x="202" y="702" on="1"/>
        <pt x="202" y="540" on="0"/>
        <pt x="365" y="348" on="0"/>
        <pt x="512" y="348" on="1"/>
        <pt x="524" y="348" on="1"/>
        <pt x="524" y="1044" on="1"/>
        <pt x="516" y="1044" on="1"/>
        <pt x="367" y="1044" on="0"/>
        <pt x="202" y="868" on="0"/>
      </contour>
    </TTGlyph>
    <TTGlyph name="Pi" xMin="163" yMin="0" xMax="1066" yMax="1349">
      <contour>
        <pt x="163" y="0" on="1"/>
        <pt x="163" y="1349" on="1"/>
        <pt x="1066" y="1349" on="1"/>
        <pt x="1066" y="0" on="1"/>
        <pt x="875" y="0" on="1"/>
        <pt x="875" y="1193" on="1"/>
        <pt x="354" y="1193" on="1"/>
        <pt x="354" y="0" on="1"/>
      </contour>
    </TTGlyph>
    <TTGlyph name="Psi" xMin="49" yMin="0" xMax="1180" yMax="1349">
      <contour>
        <pt x="537" y="0" on="1"/>
        <pt x="537" y="397" on="1"/>
        <pt x="479" y="397" on="1"/>
        <pt x="276" y="397" on="0"/>
        <pt x="49" y="676" on="0"/>
        <pt x="49" y="916" on="1"/>
        <pt x="49" y="1349" on="1"/>
        <pt x="210" y="1349" on="1"/>
        <pt x="210" y="912" on="1"/>
        <pt x="210" y="730" on="0"/>
        <pt x="354" y="533" on="0"/>
        <pt x="486" y="533" on="1"/>
        <pt x="537" y="533" on="1"/>
        <pt x="537" y="1349" on="1"/>
        <pt x="692" y="1349" on="1"/>
        <pt x="692" y="533" on="1"/>
        <pt x="743" y="533" on="1"/>
        <pt x="876" y="533" on="0"/>
        <pt x="1019" y="733" on="0"/>
        <pt x="1019" y="912" on="1"/>
        <pt x="1019" y="1349" on="1"/>
        <pt x="1180" y="1349" on="1"/>
        <pt x="1180" y="916" on="1"/>
        <pt x="1180" y="676" on="0"/>
        <pt x="952" y="397" on="0"/>
        <pt x="750" y="397" on="1"/>
        <pt x="692" y="397" on="1"/>
        <pt x="692" y="0" on="1"/>
      </contour>
    </TTGlyph>
    <TTGlyph name="Q" xMin="102" yMin="-387" xMax="1137" yMax="1370">
      <contour>
        <pt x="1126" y="681" on="1"/>
        <pt x="1126" y="391" on="0"/>
        <pt x="929" y="40" on="0"/>
        <pt x="746" y="-4" on="1"/>
        <pt x="787" y="-130" on="0"/>
        <pt x="921" y="-244" on="0"/>
        <pt x="1022" y="-244" on="1"/>
        <pt x="1077" y="-244" on="0"/>
        <pt x="1137" y="-231" on="1"/>
        <pt x="1137" y="-365" on="1"/>
        <pt x="1044" y="-387" on="0"/>
        <pt x="959" y="-387" on="1"/>
        <pt x="809" y="-387" on="0"/>
        <pt x="614" y="-218" on="0"/>
        <pt x="551" y="-16" on="1"/>
        <pt x="332" y="6" on="0"/>
        <pt x="102" y="361" on="0"/>
        <pt x="102" y="681" on="1"/>
        <pt x="102" y="1018" on="0"/>
        <pt x="362" y="1370" on="0"/>
        <pt x="615" y="1370" on="1"/>
        <pt x="862" y="1370" on="0"/>
        <pt x="1126" y="1023" on="0"/>
      </contour>
      <contour>
        <pt x="925" y="681" on="1"/>
        <pt x="925" y="1214" on="0"/>
        <pt x="615" y="1214" on="1"/>
        <pt x="303" y="1214" on="0"/>
        <pt x="303" y="681" on="1"/>
        <pt x="303" y="411" on="0"/>
        <pt x="461" y="135" on="0"/>
        <pt x="614" y="135" on="1"/>
        <pt x="777" y="135" on="0"/>
        <pt x="925" y="415" on="0"/>
      </contour>
    </TTGlyph>
    <TTGlyph name="R" xMin="162" yMin="0" xMax="1177" yMax="1349">
      <contour>
        <pt x="957" y="0" on="1"/>
        <pt x="591" y="575" on="1"/>
        <pt x="353" y="575" on="1"/>
        <pt x="353" y="0" on="1"/>
        <pt x="162" y="0" on="1"/>
        <pt x="162" y="1349" on="1"/>
        <pt x="644" y="1349" on="1"/>
        <pt x="877" y="1349" on="0"/>
        <pt x="1121" y="1156" on="0"/>
        <pt x="1121" y="976" on="1"/>
        <pt x="1121" y="827" on="0"/>
        <pt x="934" y="623" on="0"/>
        <pt x="777" y="597" on="1"/>
        <pt x="1177" y="0" on="1"/>
      </contour>
      <contour>
        <pt x="929" y="973" on="1"/>
        <pt x="929" y="1196" on="0"/>
        <pt x="625" y="1196" on="1"/>
        <pt x="353" y="1196" on="1"/>
        <pt x="353" y="726" on="1"/>
        <pt x="633" y="726" on="1"/>
        <pt x="776" y="726" on="0"/>
        <pt x="929" y="854" on="0"/>
      </contour>
    </TTGlyph>
    <TTGlyph name="Racute" xMin="162" yMin="0" xMax="1177" yMax="1705">
      <component glyphName="R" x="0" y="0" flags="0x204"/>
      <component glyphName="acute" x="72" y="245" flags="0x4"/>
    </TTGlyph>
    <TTGlyph name="Rcaron" xMin="162" yMin="0" xMax="1177" yMax="1705">
      <component glyphName="R" x="0" y="0" flags="0x204"/>
      <component glyphName="caron" x="-19" y="245" flags="0x4"/>
    </TTGlyph>
    <TTGlyph name="Rcommaaccent" xMin="162" yMin="-423" xMax="1177" yMax="1349">
      <component glyphName="R" x="0" y="0" flags="0x204"/>
      <component glyphName="undercommaaccent" x="-3" y="0" flags="0x4"/>
    </TTGlyph>
    <TTGlyph name="Rho" xMin="162" yMin="0" xMax="1119" yMax="1349">
      <component glyphName="P" x="0" y="0" flags="0x204"/>
    </TTGlyph>
    <TTGlyph name="S" xMin="79" yMin="-20" xMax="1128" yMax="1370">
      <contour>
        <pt x="1128" y="370" on="1"/>
        <pt x="1128" y="186" on="0"/>
        <pt x="859" y="-20" on="0"/>
        <pt x="610" y="-20" on="1"/>
        <pt x="153" y="-20" on="0"/>
        <pt x="79" y="338" on="1"/>
        <pt x="264" y="375" on="1"/>
        <pt x="292" y="246" on="0"/>
        <pt x="468" y="129" on="0"/>
        <pt x="615" y="129" on="1"/>
        <pt x="774" y="129" on="0"/>
        <pt x="939" y="253" on="0"/>
        <pt x="939" y="367" on="1"/>
        <pt x="939" y="437" on="0"/>
        <pt x="874" y="525" on="0"/>
        <pt x="768" y="581" on="0"/>
        <pt x="635" y="616" on="0"/>
        <pt x="567" y="633" on="1"/>
        <pt x="406" y="675" on="0"/>
        <pt x="269" y="741" on="0"/>
        <pt x="187" y="826" on="0"/>
        <pt x="145" y="936" on="0"/>
        <pt x="145" y="1010" on="1"/>
        <pt x="145" y="1183" on="0"/>
        <pt x="388" y="1370" on="0"/>
        <pt x="615" y="1370" on="1"/>
        <pt x="827" y="1370" on="0"/>
        <pt x="1051" y="1222" on="0"/>
        <pt x="1095" y="1046" on="1"/>
        <pt x="907" y="1013" on="1"/>
        <pt x="883" y="1125" on="0"/>
        <pt x="739" y="1226" on="0"/>
        <pt x="614" y="1226" on="1"/>
        <pt x="331" y="1226" on="0"/>
        <pt x="331" y="1013" on="1"/>
        <pt x="331" y="953" on="0"/>
        <pt x="384" y="878" on="0"/>
        <pt x="475" y="829" on="0"/>
        <pt x="596" y="797" on="0"/>
        <pt x="665" y="779" on="1"/>
        <pt x="804" y="744" on="0"/>
        <pt x="926" y="697" on="0"/>
        <pt x="1021" y="637" on="0"/>
        <pt x="1089" y="555" on="0"/>
        <pt x="1128" y="445" on="0"/>
      </contour>
    </TTGlyph>
    <TTGlyph name="Sacute" xMin="79" yMin="-20" xMax="1128" yMax="1705">
      <component glyphName="S" x="0" y="0" flags="0x204"/>
      <component glyphName="acute" x="120" y="245" flags="0x4"/>
    </TTGlyph>
    <TTGlyph name="Scaron" xMin="79" yMin="-20" xMax="1128" yMax="1704">
      <component glyphName="S" x="0" y="0" flags="0x204"/>
      <component glyphName="caron" x="0" y="244" flags="0x4"/>
    </TTGlyph>
    <TTGlyph name="Scedilla" xMin="79" yMin="-444" xMax="1128" yMax="1370">
      <component glyphName="S" x="0" y="0" flags="0x204"/>
      <component glyphName="cedilla" x="332" y="0" flags="0x4"/>
    </TTGlyph>
    <TTGlyph name="Scircumflex" xMin="79" yMin="-20" xMax="1128" yMax="1705">
      <component glyphName="S" x="0" y="0" flags="0x204"/>
      <component glyphName="circumflex" x="4" y="245" flags="0x4"/>
    </TTGlyph>
    <TTGlyph name="Scommaaccent" xMin="79" yMin="-455" xMax="1128" yMax="1370">
      <component glyphName="S" x="0" y="0" flags="0x204"/>
      <component glyphName="uni0326" x="622" y="0" flags="0x4"/>
    </TTGlyph>
    <TTGlyph name="Sigma" xMin="108" yMin="0" xMax="1185" yMax="1349">
      <contour>
        <pt x="108" y="0" on="1"/>
        <pt x="108" y="162" on="1"/>
        <pt x="646" y="711" on="1"/>
        <pt x="125" y="1188" on="1"/>
        <pt x="125" y="1349" on="1"/>
        <pt x="1124" y="1349" on="1"/>
        <pt x="1124" y="1193" on="1"/>
        <pt x="340" y="1193" on="1"/>
        <pt x="798" y="778" on="1"/>
        <pt x="798" y="654" on="1"/>
        <pt x="308" y="156" on="1"/>
        <pt x="1185" y="156" on="1"/>
        <pt x="1185" y="0" on="1"/>
      </contour>
    </TTGlyph>
    <TTGlyph name="T" xMin="76" yMin="0" xMax="1152" yMax="1349">
      <contour>
        <pt x="709" y="1193" on="1"/>
        <pt x="709" y="0" on="1"/>
        <pt x="519" y="0" on="1"/>
        <pt x="519" y="1193" on="1"/>
        <pt x="76" y="1193" on="1"/>
        <pt x="76" y="1349" on="1"/>
        <pt x="1152" y="1349" on="1"/>
        <pt x="1152" y="1193" on="1"/>
      </contour>
    </TTGlyph>
    <TTGlyph name="Tau" xMin="76" yMin="0" xMax="1152" yMax="1349">
      <component glyphName="T" x="0" y="0" flags="0x204"/>
    </TTGlyph>
    <TTGlyph name="Tbar" xMin="76" yMin="0" xMax="1152" yMax="1349">
      <contour>
        <pt x="709" y="1193" on="1"/>
        <pt x="709" y="769" on="1"/>
        <pt x="949" y="769" on="1"/>
        <pt x="949" y="620" on="1"/>
        <pt x="709" y="620" on="1"/>
        <pt x="709" y="0" on="1"/>
        <pt x="519" y="0" on="1"/>
        <pt x="519" y="620" on="1"/>
        <pt x="279" y="620" on="1"/>
        <pt x="279" y="769" on="1"/>
        <pt x="519" y="769" on="1"/>
        <pt x="519" y="1193" on="1"/>
        <pt x="76" y="1193" on="1"/>
        <pt x="76" y="1349" on="1"/>
        <pt x="1152" y="1349" on="1"/>
        <pt x="1152" y="1193" on="1"/>
      </contour>
    </TTGlyph>
    <TTGlyph name="Tcaron" xMin="76" yMin="0" xMax="1152" yMax="1705">
      <component glyphName="T" x="0" y="0" flags="0x204"/>
      <component glyphName="caron" x="0" y="245" flags="0x4"/>
    </TTGlyph>
    <TTGlyph name="Tcommaaccent" xMin="76" yMin="-423" xMax="1152" yMax="1349">
      <component glyphName="T" x="0" y="0" flags="0x204"/>
      <component glyphName="undercommaaccent" x="-29" y="0" flags="0x4"/>
    </TTGlyph>
    <TTGlyph name="Theta" xMin="102" yMin="-20" xMax="1126" yMax="1370">
      <contour>
        <pt x="1126" y="681" on="1"/>
        <pt x="1126" y="344" on="0"/>
        <pt x="861" y="-20" on="0"/>
        <pt x="613" y="-20" on="1"/>
        <pt x="364" y="-20" on="0"/>
        <pt x="102" y="338" on="0"/>
        <pt x="102" y="681" on="1"/>
        <pt x="102" y="1018" on="0"/>
        <pt x="362" y="1370" on="0"/>
        <pt x="615" y="1370" on="1"/>
        <pt x="862" y="1370" on="0"/>
        <pt x="1126" y="1023" on="0"/>
      </contour>
      <contour>
        <pt x="925" y="681" on="1"/>
        <pt x="925" y="1214" on="0"/>
        <pt x="615" y="1214" on="1"/>
        <pt x="303" y="1214" on="0"/>
        <pt x="303" y="681" on="1"/>
        <pt x="303" y="411" on="0"/>
        <pt x="461" y="135" on="0"/>
        <pt x="614" y="135" on="1"/>
        <pt x="777" y="135" on="0"/>
        <pt x="925" y="415" on="0"/>
      </contour>
      <contour>
        <pt x="782" y="757" on="1"/>
        <pt x="782" y="603" on="1"/>
        <pt x="447" y="603" on="1"/>
        <pt x="447" y="757" on="1"/>
      </contour>
    </TTGlyph>
    <TTGlyph name="Thorn" xMin="162" yMin="0" xMax="1119" yMax="1349">
      <contour>
        <pt x="1119" y="692" on="1"/>
        <pt x="1119" y="564" on="0"/>
        <pt x="1003" y="365" on="0"/>
        <pt x="784" y="254" on="0"/>
        <pt x="634" y="254" on="1"/>
        <pt x="353" y="254" on="1"/>
        <pt x="353" y="0" on="1"/>
        <pt x="162" y="0" on="1"/>
        <pt x="162" y="1349" on="1"/>
        <pt x="353" y="1349" on="1"/>
        <pt x="353" y="1114" on="1"/>
        <pt x="622" y="1114" on="1"/>
        <pt x="861" y="1114" on="0"/>
        <pt x="1119" y="892" on="0"/>
      </contour>
      <contour>
        <pt x="927" y="688" on="1"/>
        <pt x="927" y="822" on="0"/>
        <pt x="763" y="971" on="0"/>
        <pt x="599" y="971" on="1"/>
        <pt x="353" y="971" on="1"/>
        <pt x="353" y="395" on="1"/>
        <pt x="607" y="395" on="1"/>
        <pt x="760" y="395" on="0"/>
        <pt x="927" y="550" on="0"/>
      </contour>
    </TTGlyph>
    <TTGlyph name="U" xMin="142" yMin="-20" xMax="1085" yMax="1349">
      <contour>
        <pt x="1085" y="490" on="1"/>
        <pt x="1085" y="223" on="0"/>
        <pt x="857" y="-20" on="0"/>
        <pt x="605" y="-20" on="1"/>
        <pt x="361" y="-20" on="0"/>
        <pt x="142" y="215" on="0"/>
        <pt x="142" y="472" on="1"/>
        <pt x="142" y="1349" on="1"/>
        <pt x="333" y="1349" on="1"/>
        <pt x="333" y="498" on="1"/>
        <pt x="333" y="294" on="0"/>
        <pt x="450" y="135" on="0"/>
        <pt x="604" y="135" on="1"/>
        <pt x="765" y="135" on="0"/>
        <pt x="895" y="299" on="0"/>
        <pt x="895" y="511" on="1"/>
        <pt x="895" y="1349" on="1"/>
        <pt x="1085" y="1349" on="1"/>
      </contour>
    </TTGlyph>
    <TTGlyph name="Uacute" xMin="142" yMin="-20" xMax="1085" yMax="1704">
      <component glyphName="U" x="0" y="0" flags="0x204"/>
      <component glyphName="acute" x="86" y="244" flags="0x4"/>
    </TTGlyph>
    <TTGlyph name="Ubreve" xMin="142" yMin="-20" xMax="1085" yMax="1705">
      <component glyphName="U" x="0" y="0" flags="0x204"/>
      <component glyphName="breve" x="0" y="245" flags="0x4"/>
    </TTGlyph>
    <TTGlyph name="Ucircumflex" xMin="142" yMin="-20" xMax="1085" yMax="1704">
      <component glyphName="U" x="0" y="0" flags="0x204"/>
      <component glyphName="circumflex" x="0" y="244" flags="0x4"/>
    </TTGlyph>
    <TTGlyph name="Udieresis" xMin="142" yMin="-20" xMax="1085" yMax="1629">
      <component glyphName="U" x="0" y="0" flags="0x204"/>
      <component glyphName="dieresis" x="0" y="226" flags="0x4"/>
    </TTGlyph>
    <TTGlyph name="Udotbelow" xMin="142" yMin="-321" xMax="1085" yMax="1349">
      <component glyphName="U" x="0" y="0" flags="0x204"/>
      <component glyphName="dotbelow.alt1" x="765" y="0" flags="0x4"/>
    </TTGlyph>
    <TTGlyph name="Ugrave" xMin="142" yMin="-20" xMax="1085" yMax="1704">
      <component glyphName="U" x="0" y="0" flags="0x204"/>
      <component glyphName="grave" x="-97" y="244" flags="0x4"/>
    </TTGlyph>
    <TTGlyph name="Uhookabove" xMin="142" yMin="-20" xMax="1085" yMax="1835">
      <component glyphName="U" x="0" y="0" flags="0x204"/>
      <component glyphName="hookabovecomb" x="886" y="0" flags="0x4"/>
    </TTGlyph>
    <TTGlyph name="Uhorn" xMin="142" yMin="-20" xMax="1316" yMax="1409">
      <contour>
        <pt x="1025" y="1019" on="1"/>
        <pt x="1120" y="1048" on="0"/>
        <pt x="1209" y="1159" on="0"/>
        <pt x="1209" y="1242" on="1"/>
        <pt x="1121" y="1242" on="1"/>
        <pt x="1121" y="1409" on="1"/>
        <pt x="1316" y="1409" on="1"/>
        <pt x="1316" y="1303" on="1"/>
        <pt x="1316" y="1150" on="0"/>
        <pt x="1170" y="958" on="0"/>
        <pt x="1025" y="925" on="1"/>
        <pt x="1025" y="490" on="1"/>
        <pt x="1025" y="225" on="0"/>
        <pt x="812" y="-20" on="0"/>
        <pt x="575" y="-20" on="1"/>
        <pt x="348" y="-20" on="0"/>
        <pt x="142" y="214" on="0"/>
        <pt x="142" y="472" on="1"/>
        <pt x="142" y="1349" on="1"/>
        <pt x="333" y="1349" on="1"/>
        <pt x="333" y="498" on="1"/>
        <pt x="333" y="290" on="0"/>
        <pt x="438" y="135" on="0"/>
        <pt x="574" y="135" on="1"/>
        <pt x="719" y="135" on="0"/>
        <pt x="835" y="297" on="0"/>
        <pt x="835" y="511" on="1"/>
        <pt x="835" y="1349" on="1"/>
        <pt x="1025" y="1349" on="1"/>
      </contour>
    </TTGlyph>
    <TTGlyph name="Uhornacute" xMin="142" yMin="-20" xMax="1316" yMax="1704">
      <component glyphName="Uhorn" x="0" y="0" flags="0x204"/>
      <component glyphName="acute" x="86" y="244" flags="0x4"/>
    </TTGlyph>
    <TTGlyph name="Uhorndotbelow" xMin="142" yMin="-321" xMax="1316" yMax="1409">
      <component glyphName="Uhorn" x="0" y="0" flags="0x204"/>
      <component glyphName="dotbelow.alt1" x="734" y="0" flags="0x4"/>
    </TTGlyph>
    <TTGlyph name="Uhorngrave" xMin="142" yMin="-20" xMax="1316" yMax="1704">
      <component glyphName="Uhorn" x="0" y="0" flags="0x204"/>
      <component glyphName="grave" x="-97" y="244" flags="0x4"/>
    </TTGlyph>
    <TTGlyph name="Uhornhookabove" xMin="142" yMin="-20" xMax="1316" yMax="1835">
      <component glyphName="Uhorn" x="0" y="0" flags="0x204"/>
      <component glyphName="hookabovecomb" x="857" y="0" flags="0x4"/>
    </TTGlyph>
    <TTGlyph name="Uhorntilde" xMin="142" yMin="-20" xMax="1316" yMax="1694">
      <component glyphName="Uhorn" x="0" y="0" flags="0x204"/>
      <component glyphName="tilde" x="-38" y="245" flags="0x4"/>
    </TTGlyph>
    <TTGlyph name="Uhungarumlaut" xMin="142" yMin="-20" xMax="1099" yMax="1705">
      <component glyphName="U" x="0" y="0" flags="0x204"/>
      <component glyphName="hungarumlaut" x="312" y="245" flags="0x4"/>
    </TTGlyph>
    <TTGlyph name="Umacron" xMin="142" yMin="-20" xMax="1085" yMax="1630">
      <component glyphName="U" x="0" y="0" flags="0x204"/>
      <component glyphName="uni02C9" x="2" y="267" flags="0x4"/>
    </TTGlyph>
    <TTGlyph name="Uogonek" xMin="142" yMin="-427" xMax="1085" yMax="1349">
      <component glyphName="U" x="0" y="0" flags="0x204"/>
      <component glyphName="ogonek" x="59" y="0" flags="0x4"/>
    </TTGlyph>
    <TTGlyph name="Upsilon" xMin="36" yMin="0" xMax="1192" yMax="1349">
      <component glyphName="Y" x="0" y="0" flags="0x204"/>
    </TTGlyph>
    <TTGlyph name="Upsilondieresis" xMin="36" yMin="0" xMax="1192" yMax="1670">
      <component glyphName="Y" x="0" y="0" flags="0x204"/>
      <component glyphName="dieresis" x="18" y="267" flags="0x4"/>
    </TTGlyph>
    <TTGlyph name="Upsilontonos" xMin="0" yMin="0" xMax="1199" yMax="1349">
      <contour>
        <pt x="845" y="584" on="1"/>
        <pt x="845" y="0" on="1"/>
        <pt x="657" y="0" on="1"/>
        <pt x="657" y="584" on="1"/>
        <pt x="303" y="1349" on="1"/>
        <pt x="504" y="1349" on="1"/>
        <pt x="752" y="748" on="1"/>
        <pt x="998" y="1349" on="1"/>
        <pt x="1199" y="1349" on="1"/>
      </contour>
      <contour>
        <pt x="0" y="1024" on="1"/>
        <pt x="0" y="1057" on="1"/>
        <pt x="79" y="1349" on="1"/>
        <pt x="276" y="1349" on="1"/>
        <pt x="276" y="1312" on="1"/>
        <pt x="105" y="1024" on="1"/>
      </contour>
    </TTGlyph>
    <TTGlyph name="Uring" xMin="142" yMin="-20" xMax="1085" yMax="1705">
      <component glyphName="U" x="0" y="0" flags="0x204"/>
      <component glyphName="ring" x="0" y="158" flags="0x4"/>
    </TTGlyph>
    <TTGlyph name="Utilde" xMin="142" yMin="-20" xMax="1085" yMax="1694">
      <component glyphName="U" x="0" y="0" flags="0x204"/>
      <component glyphName="tilde" x="1" y="245" flags="0x4"/>
    </TTGlyph>
    <TTGlyph name="V" xMin="10" yMin="0" xMax="1218" yMax="1349">
      <contour>
        <pt x="713" y="0" on="1"/>
        <pt x="515" y="0" on="1"/>
        <pt x="10" y="1349" on="1"/>
        <pt x="211" y="1349" on="1"/>
        <pt x="531" y="447" on="1"/>
        <pt x="562" y="361" on="0"/>
        <pt x="615" y="168" on="1"/>
        <pt x="655" y="317" on="0"/>
        <pt x="699" y="447" on="1"/>
        <pt x="1017" y="1349" on="1"/>
        <pt x="1218" y="1349" on="1"/>
      </contour>
    </TTGlyph>
    <TTGlyph name="W" xMin="0" yMin="0" xMax="1228" yMax="1349">
      <contour>
        <pt x="1018" y="0" on="1"/>
        <pt x="810" y="0" on="1"/>
        <pt x="736" y="276" on="0"/>
        <pt x="659" y="564" on="0"/>
        <pt x="616" y="756" on="1"/>
        <pt x="587" y="631" on="0"/>
        <pt x="538" y="429" on="0"/>
        <pt x="419" y="0" on="1"/>
        <pt x="211" y="0" on="1"/>
        <pt x="0" y="1349" on="1"/>
        <pt x="189" y="1349" on="1"/>
        <pt x="298" y="514" on="1"/>
        <pt x="314" y="383" on="0"/>
        <pt x="331" y="168" on="1"/>
        <pt x="363" y="306" on="0"/>
        <pt x="406" y="486" on="0"/>
        <pt x="528" y="931" on="1"/>
        <pt x="703" y="931" on="1"/>
        <pt x="772" y="678" on="0"/>
        <pt x="851" y="388" on="0"/>
        <pt x="900" y="168" on="1"/>
        <pt x="935" y="514" on="1"/>
        <pt x="1039" y="1349" on="1"/>
        <pt x="1228" y="1349" on="1"/>
      </contour>
    </TTGlyph>
    <TTGlyph name="Wacute" xMin="0" yMin="0" xMax="1228" yMax="1705">
      <component glyphName="W" x="0" y="0" flags="0x204"/>
      <component glyphName="acute" x="103" y="245" flags="0x4"/>
    </TTGlyph>
    <TTGlyph name="Wcircumflex" xMin="0" yMin="0" xMax="1228" yMax="1705">
      <component glyphName="W" x="0" y="0" flags="0x204"/>
      <component glyphName="circumflex" x="-4" y="245" flags="0x4"/>
    </TTGlyph>
    <TTGlyph name="Wdieresis" xMin="0" yMin="0" xMax="1228" yMax="1630">
      <component glyphName="W" x="0" y="0" flags="0x204"/>
      <component glyphName="dieresis" x="1" y="227" flags="0x4"/>
    </TTGlyph>
    <TTGlyph name="Wgrave" xMin="0" yMin="0" xMax="1228" yMax="1705">
      <component glyphName="W" x="0" y="0" flags="0x204"/>
      <component glyphName="grave" x="-59" y="245" flags="0x4"/>
    </TTGlyph>
    <TTGlyph name="X" xMin="36" yMin="0" xMax="1193" yMax="1349">
      <contour>
        <pt x="614" y="836" on="1"/>
        <pt x="947" y="1349" on="1"/>
        <pt x="1152" y="1349" on="1"/>
        <pt x="717" y="705" on="1"/>
        <pt x="1193" y="0" on="1"/>
        <pt x="988" y="0" on="1"/>
        <pt x="614" y="573" on="1"/>
        <pt x="241" y="0" on="1"/>
        <pt x="36" y="0" on="1"/>
        <pt x="512" y="705" on="1"/>
        <pt x="77" y="1349" on="1"/>
        <pt x="282" y="1349" on="1"/>
      </contour>
    </TTGlyph>
    <TTGlyph name="Xi" xMin="135" yMin="0" xMax="1094" yMax="1349">
      <contour>
        <pt x="155" y="1193" on="1"/>
        <pt x="155" y="1349" on="1"/>
        <pt x="1074" y="1349" on="1"/>
        <pt x="1074" y="1193" on="1"/>
      </contour>
      <contour>
        <pt x="135" y="0" on="1"/>
        <pt x="135" y="156" on="1"/>
        <pt x="1094" y="156" on="1"/>
        <pt x="1094" y="0" on="1"/>
      </contour>
      <contour>
        <pt x="949" y="771" on="1"/>
        <pt x="949" y="617" on="1"/>
        <pt x="280" y="617" on="1"/>
        <pt x="280" y="771" on="1"/>
      </contour>
    </TTGlyph>
    <TTGlyph name="Y" xMin="36" yMin="0" xMax="1192" yMax="1349">
      <contour>
        <pt x="708" y="584" on="1"/>
        <pt x="708" y="0" on="1"/>
        <pt x="520" y="0" on="1"/>
        <pt x="520" y="584" on="1"/>
        <pt x="36" y="1349" on="1"/>
        <pt x="241" y="1349" on="1"/>
        <pt x="615" y="738" on="1"/>
        <pt x="987" y="1349" on="1"/>
        <pt x="1192" y="1349" on="1"/>
      </contour>
    </TTGlyph>
    <TTGlyph name="Yacute" xMin="36" yMin="0" xMax="1192" yMax="1704">
      <component glyphName="Y" x="0" y="0" flags="0x204"/>
      <component glyphName="acute" x="101" y="244" flags="0x4"/>
    </TTGlyph>
    <TTGlyph name="Ycircumflex" xMin="36" yMin="0" xMax="1192" yMax="1705">
      <component glyphName="Y" x="0" y="0" flags="0x204"/>
      <component glyphName="circumflex" x="-4" y="245" flags="0x4"/>
    </TTGlyph>
    <TTGlyph name="Ydieresis" xMin="36" yMin="0" xMax="1192" yMax="1629">
      <component glyphName="Y" x="0" y="0" flags="0x204"/>
      <component glyphName="dieresis" x="1" y="226" flags="0x4"/>
    </TTGlyph>
    <TTGlyph name="Ydotbelow" xMin="36" yMin="-321" xMax="1192" yMax="1349">
      <component glyphName="Y" x="0" y="0" flags="0x204"/>
      <component glyphName="dotbelow.alt1" x="769" y="0" flags="0x4"/>
    </TTGlyph>
    <TTGlyph name="Ygrave" xMin="36" yMin="0" xMax="1192" yMax="1705">
      <component glyphName="Y" x="0" y="0" flags="0x204"/>
      <component glyphName="grave" x="-70" y="245" flags="0x4"/>
    </TTGlyph>
    <TTGlyph name="Yhookabove" xMin="36" yMin="0" xMax="1192" yMax="1835">
      <component glyphName="Y" x="0" y="0" flags="0x204"/>
      <component glyphName="hookabovecomb" x="881" y="0" flags="0x4"/>
    </TTGlyph>
    <TTGlyph name="Ytilde" xMin="36" yMin="0" xMax="1192" yMax="1694">
      <component glyphName="Y" x="0" y="0" flags="0x204"/>
      <component glyphName="tilde" x="1" y="245" flags="0x4"/>
    </TTGlyph>
    <TTGlyph name="Z" xMin="73" yMin="0" xMax="1155" yMax="1349">
      <contour>
        <pt x="1155" y="0" on="1"/>
        <pt x="73" y="0" on="1"/>
        <pt x="73" y="143" on="1"/>
        <pt x="891" y="1193" on="1"/>
        <pt x="146" y="1193" on="1"/>
        <pt x="146" y="1349" on="1"/>
        <pt x="1108" y="1349" on="1"/>
        <pt x="1108" y="1210" on="1"/>
        <pt x="290" y="156" on="1"/>
        <pt x="1155" y="156" on="1"/>
      </contour>
    </TTGlyph>
    <TTGlyph name="Zacute" xMin="73" yMin="0" xMax="1155" yMax="1705">
      <component glyphName="Z" x="0" y="0" flags="0x204"/>
      <component glyphName="acute" x="102" y="245" flags="0x4"/>
    </TTGlyph>
    <TTGlyph name="Zcaron" xMin="73" yMin="0" xMax="1155" yMax="1704">
      <component glyphName="Z" x="0" y="0" flags="0x204"/>
      <component glyphName="caron" x="10" y="244" flags="0x4"/>
    </TTGlyph>
    <TTGlyph name="Zdotaccent" xMin="73" yMin="0" xMax="1155" yMax="1638">
      <component glyphName="Z" x="0" y="0" flags="0x204"/>
      <component glyphName="dotaccent" x="13" y="154" flags="0x4"/>
    </TTGlyph>
    <TTGlyph name="Zeta" xMin="73" yMin="0" xMax="1155" yMax="1349">
      <component glyphName="Z" x="0" y="0" flags="0x204"/>
    </TTGlyph>
    <TTGlyph name="a" xMin="128" yMin="-20" xMax="1160" yMax="1102">
      <contour>
        <pt x="1101" y="111" on="1"/>
        <pt x="1127" y="111" on="0"/>
        <pt x="1160" y="118" on="1"/>
        <pt x="1160" y="6" on="1"/>
        <pt x="1092" y="-10" on="0"/>
        <pt x="1021" y="-10" on="1"/>
        <pt x="921" y="-10" on="0"/>
        <pt x="830" y="95" on="0"/>
        <pt x="824" y="207" on="1"/>
        <pt x="818" y="207" on="1"/>
        <pt x="753" y="86" on="0"/>
        <pt x="576" y="-20" on="0"/>
        <pt x="446" y="-20" on="1"/>
        <pt x="288" y="-20" on="0"/>
        <pt x="128" y="152" on="0"/>
        <pt x="128" y="302" on="1"/>
        <pt x="128" y="651" on="0"/>
        <pt x="582" y="656" on="1"/>
        <pt x="818" y="660" on="1"/>
        <pt x="818" y="719" on="1"/>
        <pt x="818" y="850" on="0"/>
        <pt x="712" y="965" on="0"/>
        <pt x="596" y="965" on="1"/>
        <pt x="478" y="965" on="0"/>
        <pt x="374" y="881" on="0"/>
        <pt x="364" y="793" on="1"/>
        <pt x="176" y="810" on="1"/>
        <pt x="222" y="1102" on="0"/>
        <pt x="599" y="1102" on="1"/>
        <pt x="799" y="1102" on="0"/>
        <pt x="1000" y="915" on="0"/>
        <pt x="1000" y="738" on="1"/>
        <pt x="1000" y="272" on="1"/>
        <pt x="1000" y="192" on="0"/>
        <pt x="1042" y="111" on="0"/>
      </contour>
      <contour>
        <pt x="492" y="117" on="1"/>
        <pt x="588" y="117" on="0"/>
        <pt x="736" y="209" on="0"/>
        <pt x="818" y="363" on="0"/>
        <pt x="818" y="445" on="1"/>
        <pt x="818" y="534" on="1"/>
        <pt x="628" y="530" on="1"/>
        <pt x="510" y="528" on="0"/>
        <pt x="386" y="480" on="0"/>
        <pt x="317" y="381" on="0"/>
        <pt x="317" y="299" on="1"/>
        <pt x="317" y="217" on="0"/>
        <pt x="406" y="117" on="0"/>
      </contour>
    </TTGlyph>
    <TTGlyph name="aacute" xMin="128" yMin="-20" xMax="1160" yMax="1460">
      <component glyphName="a" x="0" y="0" flags="0x204"/>
      <component glyphName="acute" x="77" y="0" flags="0x4"/>
    </TTGlyph>
    <TTGlyph name="abreve" xMin="128" yMin="-20" xMax="1160" yMax="1460">
      <component glyphName="a" x="0" y="0" flags="0x204"/>
      <component glyphName="breve" x="-19" y="0" flags="0x4"/>
    </TTGlyph>
    <TTGlyph name="abreveacute" xMin="128" yMin="-20" xMax="1160" yMax="1776">
      <component glyphName="a" x="0" y="0" flags="0x204"/>
      <component glyphName="breveacute.lc" x="590" y="0" flags="0x4"/>
    </TTGlyph>
    <TTGlyph name="abrevedotbelow" xMin="128" yMin="-321" xMax="1160" yMax="1460">
      <component glyphName="a" x="0" y="0" flags="0x204"/>
      <component glyphName="breve" x="-19" y="0" flags="0x4"/>
      <component glyphName="dotbelow.alt1" x="737" y="0" flags="0x4"/>
    </TTGlyph>
    <TTGlyph name="abrevegrave" xMin="128" yMin="-20" xMax="1160" yMax="1776">
      <component glyphName="a" x="0" y="0" flags="0x204"/>
      <component glyphName="brevegrave.lc" x="586" y="0" flags="0x4"/>
    </TTGlyph>
    <TTGlyph name="abrevehookabove" xMin="128" yMin="-20" xMax="1160" yMax="1835">
      <component glyphName="a" x="0" y="0" flags="0x204"/>
      <component glyphName="brevehook.lc" x="604" y="0" flags="0x4"/>
    </TTGlyph>
    <TTGlyph name="abrevetilde" xMin="128" yMin="-20" xMax="1160" yMax="1775">
      <component glyphName="a" x="0" y="0" flags="0x204"/>
      <component glyphName="brevetilde.lc" x="601" y="0" flags="0x4"/>
    </TTGlyph>
    <TTGlyph name="acircumflex" xMin="128" yMin="-20" xMax="1160" yMax="1460">
      <component glyphName="a" x="0" y="0" flags="0x204"/>
      <component glyphName="circumflex" x="-18" y="0" flags="0x4"/>
    </TTGlyph>
    <TTGlyph name="acircumflexacute" xMin="128" yMin="-20" xMax="1160" yMax="1574">
      <component glyphName="a" x="0" y="0" flags="0x204"/>
      <component glyphName="circumflexacute.lc" x="703" y="0" flags="0x4"/>
    </TTGlyph>
    <TTGlyph name="acircumflexdotbelow" xMin="128" yMin="-321" xMax="1160" yMax="1460">
      <component glyphName="a" x="0" y="0" flags="0x204"/>
      <component glyphName="circumflex" x="-12" y="0" flags="0x4"/>
      <component glyphName="dotbelow.alt1" x="727" y="0" flags="0x4"/>
    </TTGlyph>
    <TTGlyph name="acircumflexgrave" xMin="64" yMin="-20" xMax="1160" yMax="1568">
      <component glyphName="a" x="0" y="0" flags="0x204"/>
      <component glyphName="circumflexgrave.lc" x="493" y="-6" flags="0x4"/>
    </TTGlyph>
    <TTGlyph name="acircumflexhookabove" xMin="128" yMin="-20" xMax="1160" yMax="1640">
      <component glyphName="a" x="0" y="0" flags="0x204"/>
      <component glyphName="circumflexhook.lc" x="679" y="-13" flags="0x4"/>
    </TTGlyph>
    <TTGlyph name="acircumflextilde" xMin="128" yMin="-20" xMax="1160" yMax="1765">
      <component glyphName="a" x="0" y="0" flags="0x204"/>
      <component glyphName="circumflextilde.lc" x="591" y="-10" flags="0x4"/>
    </TTGlyph>
    <TTGlyph name="acute" xMin="402" yMin="1201" xMax="826" yMax="1460">
      <contour>
        <pt x="402" y="1201" on="1"/>
        <pt x="402" y="1221" on="1"/>
        <pt x="629" y="1460" on="1"/>
        <pt x="826" y="1460" on="1"/>
        <pt x="826" y="1431" on="1"/>
        <pt x="526" y="1201" on="1"/>
      </contour>
    </TTGlyph>
    <TTGlyph name="acute.uc" xMin="72" yMin="1445" xMax="496" yMax="1691">
      <contour>
        <pt x="72" y="1445" on="1"/>
        <pt x="72" y="1465" on="1"/>
        <pt x="289" y="1691" on="1"/>
        <pt x="496" y="1691" on="1"/>
        <pt x="496" y="1662" on="1"/>
        <pt x="186" y="1445" on="1"/>
      </contour>
    </TTGlyph>
    <TTGlyph name="acutecomb" xMin="-363" yMin="1548" xMax="-26" yMax="1827">
      <contour>
        <pt x="-363" y="1548" on="1"/>
        <pt x="-363" y="1568" on="1"/>
        <pt x="-233" y="1827" on="1"/>
        <pt x="-26" y="1827" on="1"/>
        <pt x="-26" y="1798" on="1"/>
        <pt x="-269" y="1548" on="1"/>
      </contour>
    </TTGlyph>
    <TTGlyph name="adieresis" xMin="128" yMin="-20" xMax="1160" yMax="1403">
      <component glyphName="a" x="0" y="0" flags="0x204"/>
      <component glyphName="dieresis" x="-16" y="0" flags="0x4"/>
    </TTGlyph>
    <TTGlyph name="adotbelow" xMin="128" yMin="-321" xMax="1160" yMax="1102">
      <component glyphName="a" x="0" y="0" flags="0x204"/>
      <component glyphName="dotbelow.alt1" x="748" y="0" flags="0x4"/>
    </TTGlyph>
    <TTGlyph name="ae" xMin="20" yMin="-20" xMax="1208" yMax="1102">
      <contour>
        <pt x="679" y="503" on="1"/>
        <pt x="679" y="486" on="1"/>
        <pt x="684" y="115" on="0"/>
        <pt x="864" y="115" on="1"/>
        <pt x="939" y="115" on="0"/>
        <pt x="1028" y="209" on="0"/>
        <pt x="1044" y="281" on="1"/>
        <pt x="1182" y="236" on="1"/>
        <pt x="1114" y="-20" on="0"/>
        <pt x="868" y="-20" on="1"/>
        <pt x="747" y="-20" on="0"/>
        <pt x="610" y="90" on="0"/>
        <pt x="576" y="212" on="1"/>
        <pt x="524" y="90" on="0"/>
        <pt x="375" y="-20" on="0"/>
        <pt x="278" y="-20" on="1"/>
        <pt x="149" y="-20" on="0"/>
        <pt x="20" y="144" on="0"/>
        <pt x="20" y="302" on="1"/>
        <pt x="20" y="651" on="0"/>
        <pt x="350" y="656" on="1"/>
        <pt x="517" y="660" on="1"/>
        <pt x="517" y="719" on="1"/>
        <pt x="517" y="854" on="0"/>
        <pt x="453" y="965" on="0"/>
        <pt x="381" y="965" on="1"/>
        <pt x="307" y="965" on="0"/>
        <pt x="240" y="884" on="0"/>
        <pt x="233" y="793" on="1"/>
        <pt x="65" y="810" on="1"/>
        <pt x="84" y="961" on="0"/>
        <pt x="239" y="1102" on="0"/>
        <pt x="380" y="1102" on="1"/>
        <pt x="556" y="1102" on="0"/>
        <pt x="627" y="963" on="1"/>
        <pt x="712" y="1102" on="0"/>
        <pt x="873" y="1102" on="1"/>
        <pt x="1039" y="1102" on="0"/>
        <pt x="1208" y="819" on="0"/>
        <pt x="1208" y="527" on="1"/>
        <pt x="1208" y="503" on="1"/>
      </contour>
      <contour>
        <pt x="189" y="299" on="1"/>
        <pt x="189" y="217" on="0"/>
        <pt x="246" y="117" on="0"/>
        <pt x="303" y="117" on="1"/>
        <pt x="367" y="117" on="0"/>
        <pt x="463" y="206" on="0"/>
        <pt x="517" y="357" on="0"/>
        <pt x="517" y="445" on="1"/>
        <pt x="517" y="534" on="1"/>
        <pt x="395" y="530" on="1"/>
        <pt x="316" y="528" on="0"/>
        <pt x="235" y="480" on="0"/>
        <pt x="189" y="380" on="0"/>
      </contour>
      <contour>
        <pt x="859" y="969" on="1"/>
        <pt x="777" y="969" on="0"/>
        <pt x="684" y="795" on="0"/>
        <pt x="681" y="641" on="1"/>
        <pt x="1042" y="641" on="1"/>
        <pt x="1033" y="812" on="0"/>
        <pt x="945" y="969" on="0"/>
      </contour>
    </TTGlyph>
    <TTGlyph name="aeacute" xMin="20" yMin="-20" xMax="1208" yMax="1460">
      <component glyphName="ae" x="0" y="0" flags="0x204"/>
      <component glyphName="acute" x="90" y="0" flags="0x4"/>
    </TTGlyph>
    <TTGlyph name="agrave" xMin="128" yMin="-20" xMax="1160" yMax="1460">
      <component glyphName="a" x="0" y="0" flags="0x204"/>
      <component glyphName="grave" x="-114" y="0" flags="0x4"/>
    </TTGlyph>
    <TTGlyph name="ahookabove" xMin="128" yMin="-20" xMax="1160" yMax="1526">
      <component glyphName="a" x="0" y="0" flags="0x204"/>
      <component glyphName="hookabovecomb" x="864" y="-309" flags="0x4"/>
    </TTGlyph>
    <TTGlyph name="alef" xMin="16" yMin="0" xMax="1210" yMax="1227">
      <contour>
        <pt x="76" y="1227" on="1"/>
        <pt x="303" y="1227" on="1"/>
        <pt x="754" y="606" on="1"/>
        <pt x="904" y="746" on="0"/>
        <pt x="932" y="1004" on="1"/>
        <pt x="954" y="1227" on="1"/>
        <pt x="1145" y="1227" on="1"/>
        <pt x="1122" y="1008" on="1"/>
        <pt x="1112" y="901" on="0"/>
        <pt x="1052" y="729" on="0"/>
        <pt x="953" y="579" on="0"/>
        <pt x="850" y="477" on="1"/>
        <pt x="1210" y="0" on="1"/>
        <pt x="977" y="0" on="1"/>
        <pt x="449" y="717" on="1"/>
        <pt x="406" y="696" on="0"/>
        <pt x="353" y="633" on="0"/>
        <pt x="316" y="531" on="0"/>
        <pt x="291" y="403" on="1"/>
        <pt x="211" y="0" on="1"/>
        <pt x="16" y="0" on="1"/>
        <pt x="100" y="399" on="1"/>
        <pt x="134" y="564" on="0"/>
        <pt x="196" y="711" on="0"/>
        <pt x="288" y="800" on="0"/>
        <pt x="365" y="831" on="1"/>
      </contour>
    </TTGlyph>
    <TTGlyph name="alefdagesh" xMin="16" yMin="0" xMax="1210" yMax="1227">
      <component glyphName="alef" x="0" y="0" flags="0x204"/>
      <component glyphName="dagesh" x="-114" y="-511" flags="0x4"/>
    </TTGlyph>
    <TTGlyph name="aleflamed" xMin="25" yMin="0" xMax="1204" yMax="1665">
      <contour>
        <pt x="182" y="1071" on="1"/>
        <pt x="25" y="1071" on="1"/>
        <pt x="25" y="1665" on="1"/>
        <pt x="211" y="1665" on="1"/>
        <pt x="211" y="1227" on="1"/>
        <pt x="297" y="1227" on="1"/>
        <pt x="748" y="606" on="1"/>
        <pt x="898" y="746" on="0"/>
        <pt x="926" y="1004" on="1"/>
        <pt x="948" y="1227" on="1"/>
        <pt x="1139" y="1227" on="1"/>
        <pt x="1116" y="1008" on="1"/>
        <pt x="1106" y="901" on="0"/>
        <pt x="1046" y="729" on="0"/>
        <pt x="947" y="579" on="0"/>
        <pt x="844" y="477" on="1"/>
        <pt x="1204" y="0" on="1"/>
        <pt x="971" y="0" on="1"/>
      </contour>
    </TTGlyph>
    <TTGlyph name="aleflamedhatafsegol" xMin="25" yMin="-385" xMax="1204" yMax="1665">
      <component glyphName="aleflamed" x="0" y="0" flags="0x204"/>
      <component glyphName="hatafsegol" x="-5" y="0" flags="0x4"/>
    </TTGlyph>
    <TTGlyph name="aleflamedsegol" xMin="25" yMin="-385" xMax="1204" yMax="1665">
      <component glyphName="aleflamed" x="0" y="0" flags="0x204"/>
      <component glyphName="segol" x="-24" y="0" flags="0x4"/>
    </TTGlyph>
    <TTGlyph name="aleflamedtsere" xMin="25" yMin="-348" xMax="1204" yMax="1665">
      <component glyphName="aleflamed" x="0" y="0" flags="0x204"/>
      <component glyphName="tsere" x="-17" y="0" flags="0x4"/>
    </TTGlyph>
    <TTGlyph name="alefmapiq" xMin="16" yMin="0" xMax="1210" yMax="1227">
      <component glyphName="alef" x="0" y="0" flags="0x204"/>
      <component glyphName="dagesh" x="-114" y="-511" flags="0x4"/>
    </TTGlyph>
    <TTGlyph name="alefpatah" xMin="16" yMin="-231" xMax="1210" yMax="1227">
      <component glyphName="alef" x="0" y="0" flags="0x204"/>
      <component glyphName="patah" x="-19" y="0" flags="0x4"/>
    </TTGlyph>
    <TTGlyph name="alefqamats" xMin="16" yMin="-348" xMax="1210" yMax="1227">
      <component glyphName="alef" x="0" y="0" flags="0x204"/>
      <component glyphName="qamats" x="-19" y="0" flags="0x4"/>
    </TTGlyph>
    <TTGlyph name="alefwide" xMin="16" yMin="0" xMax="1210" yMax="1227">
      <component glyphName="alef" x="0" y="0" flags="0x204"/>
    </TTGlyph>
    <TTGlyph name="alpha" xMin="129" yMin="-20" xMax="1168" yMax="1102">
      <contour>
        <pt x="886" y="237" on="1"/>
        <pt x="771" y="-20" on="0"/>
        <pt x="527" y="-20" on="1"/>
        <pt x="322" y="-20" on="0"/>
        <pt x="129" y="256" on="0"/>
        <pt x="129" y="536" on="1"/>
        <pt x="129" y="820" on="0"/>
        <pt x="346" y="1102" on="0"/>
        <pt x="555" y="1102" on="1"/>
        <pt x="681" y="1102" on="0"/>
        <pt x="860" y="968" on="0"/>
        <pt x="905" y="847" on="1"/>
        <pt x="907" y="847" on="1"/>
        <pt x="930" y="966" on="0"/>
        <pt x="980" y="1082" on="1"/>
        <pt x="1168" y="1082" on="1"/>
        <pt x="1118" y="976" on="0"/>
        <pt x="1034" y="669" on="0"/>
        <pt x="1026" y="571" on="1"/>
        <pt x="1031" y="411" on="0"/>
        <pt x="1090" y="103" on="0"/>
        <pt x="1137" y="0" on="1"/>
        <pt x="954" y="0" on="1"/>
        <pt x="930" y="61" on="0"/>
        <pt x="895" y="204" on="0"/>
        <pt x="890" y="237" on="1"/>
      </contour>
      <contour>
        <pt x="318" y="542" on="1"/>
        <pt x="318" y="320" on="0"/>
        <pt x="432" y="119" on="0"/>
        <pt x="564" y="119" on="1"/>
        <pt x="684" y="119" on="0"/>
        <pt x="849" y="350" on="0"/>
        <pt x="875" y="546" on="1"/>
        <pt x="846" y="757" on="0"/>
        <pt x="694" y="969" on="0"/>
        <pt x="575" y="969" on="1"/>
        <pt x="439" y="969" on="0"/>
        <pt x="318" y="768" on="0"/>
      </contour>
    </TTGlyph>
    <TTGlyph name="alphatonos" xMin="129" yMin="-20" xMax="1168" yMax="1526">
      <component glyphName="alpha" x="0" y="0" flags="0x204"/>
      <component glyphName="tonos" x="60" y="0" flags="0x4"/>
    </TTGlyph>
    <TTGlyph name="alt_plussign" xMin="127" yMin="514" xMax="1100" yMax="1128">
      <contour>
        <pt x="1100" y="514" on="1"/>
        <pt x="127" y="514" on="1"/>
        <pt x="127" y="700" on="1"/>
        <pt x="518" y="700" on="1"/>
        <pt x="518" y="1128" on="1"/>
        <pt x="705" y="1128" on="1"/>
        <pt x="705" y="700" on="1"/>
        <pt x="1100" y="700" on="1"/>
      </contour>
    </TTGlyph>
    <TTGlyph name="alternativeayin" xMin="90" yMin="-33" xMax="1138" yMax="1227">
      <component glyphName="ayin" x="20" y="0" flags="0x4"/>
    </TTGlyph>
    <TTGlyph name="alternativelamed" xMin="145" yMin="-45" xMax="1063" yMax="1665">
      <component glyphName="lamed" x="0" y="0" flags="0x204"/>
    </TTGlyph>
    <TTGlyph name="amacron" xMin="128" yMin="-20" xMax="1160" yMax="1363">
      <component glyphName="a" x="0" y="0" flags="0x204"/>
      <component glyphName="uni02C9" x="-37" y="0" flags="0x4"/>
    </TTGlyph>
    <TTGlyph name="ampersand" xMin="43" yMin="-20" xMax="1185" yMax="1357">
      <contour>
        <pt x="1072" y="-12" on="1"/>
        <pt x="999" y="-12" on="0"/>
        <pt x="858" y="58" on="0"/>
        <pt x="808" y="117" on="1"/>
        <pt x="655" y="-20" on="0"/>
        <pt x="461" y="-20" on="1"/>
        <pt x="262" y="-20" on="0"/>
        <pt x="43" y="180" on="0"/>
        <pt x="43" y="358" on="1"/>
        <pt x="43" y="626" on="0"/>
        <pt x="335" y="777" on="1"/>
        <pt x="303" y="837" on="0"/>
        <pt x="260" y="990" on="0"/>
        <pt x="260" y="1059" on="1"/>
        <pt x="260" y="1195" on="0"/>
        <pt x="445" y="1357" on="0"/>
        <pt x="611" y="1357" on="1"/>
        <pt x="757" y="1357" on="0"/>
        <pt x="932" y="1213" on="0"/>
        <pt x="932" y="1090" on="1"/>
        <pt x="932" y="1015" on="0"/>
        <pt x="853" y="898" on="0"/>
        <pt x="704" y="797" on="0"/>
        <pt x="525" y="722" on="1"/>
        <pt x="657" y="491" on="0"/>
        <pt x="802" y="333" on="1"/>
        <pt x="890" y="515" on="0"/>
        <pt x="927" y="739" on="1"/>
        <pt x="1072" y="696" on="1"/>
        <pt x="1028" y="460" on="0"/>
        <pt x="910" y="234" on="1"/>
        <pt x="953" y="180" on="0"/>
        <pt x="1050" y="129" on="0"/>
        <pt x="1090" y="129" on="1"/>
        <pt x="1148" y="129" on="0"/>
        <pt x="1185" y="145" on="1"/>
        <pt x="1185" y="10" on="1"/>
        <pt x="1137" y="-12" on="0"/>
      </contour>
      <contour>
        <pt x="780" y="1085" on="1"/>
        <pt x="780" y="1155" on="0"/>
        <pt x="684" y="1236" on="0"/>
        <pt x="608" y="1236" on="1"/>
        <pt x="519" y="1236" on="0"/>
        <pt x="408" y="1138" on="0"/>
        <pt x="408" y="1056" on="1"/>
        <pt x="408" y="946" on="0"/>
        <pt x="469" y="832" on="1"/>
        <pt x="630" y="900" on="0"/>
        <pt x="728" y="963" on="0"/>
        <pt x="780" y="1038" on="0"/>
      </contour>
      <contour>
        <pt x="706" y="217" on="1"/>
        <pt x="526" y="420" on="0"/>
        <pt x="390" y="658" on="1"/>
        <pt x="211" y="561" on="0"/>
        <pt x="211" y="362" on="1"/>
        <pt x="211" y="247" on="0"/>
        <pt x="349" y="111" on="0"/>
        <pt x="469" y="111" on="1"/>
        <pt x="533" y="111" on="0"/>
        <pt x="658" y="166" on="0"/>
      </contour>
    </TTGlyph>
    <TTGlyph name="anoteleia" xMin="496" yMin="420" xMax="731" yMax="719">
      <contour>
        <pt x="496" y="420" on="1"/>
        <pt x="496" y="719" on="1"/>
        <pt x="731" y="719" on="1"/>
        <pt x="731" y="420" on="1"/>
      </contour>
    </TTGlyph>
    <TTGlyph name="aogonek" xMin="128" yMin="-427" xMax="1160" yMax="1102">
      <component glyphName="a" x="0" y="0" flags="0x204"/>
      <component glyphName="ogonek" x="369" y="0" flags="0x4"/>
    </TTGlyph>
    <TTGlyph name="approxequal" xMin="108" yMin="336" xMax="1120" yMax="1012">
      <contour>
        <pt x="860" y="758" on="1"/>
        <pt x="791" y="758" on="0"/>
        <pt x="646" y="801" on="0"/>
        <pt x="573" y="827" on="1"/>
        <pt x="440" y="872" on="0"/>
        <pt x="356" y="872" on="1"/>
        <pt x="293" y="872" on="0"/>
        <pt x="179" y="835" on="0"/>
        <pt x="108" y="784" on="1"/>
        <pt x="108" y="928" on="1"/>
        <pt x="222" y="1012" on="0"/>
        <pt x="371" y="1012" on="1"/>
        <pt x="448" y="1012" on="0"/>
        <pt x="595" y="968" on="0"/>
        <pt x="665" y="943" on="1"/>
        <pt x="680" y="938" on="1"/>
        <pt x="769" y="908" on="0"/>
        <pt x="847" y="893" on="0"/>
        <pt x="876" y="893" on="1"/>
        <pt x="1006" y="893" on="0"/>
        <pt x="1120" y="987" on="1"/>
        <pt x="1120" y="838" on="1"/>
        <pt x="1060" y="796" on="0"/>
        <pt x="945" y="758" on="0"/>
      </contour>
      <contour>
        <pt x="876" y="473" on="1"/>
        <pt x="1006" y="473" on="0"/>
        <pt x="1120" y="565" on="1"/>
        <pt x="1120" y="418" on="1"/>
        <pt x="1060" y="373" on="0"/>
        <pt x="943" y="336" on="0"/>
        <pt x="860" y="336" on="1"/>
        <pt x="791" y="336" on="0"/>
        <pt x="646" y="380" on="0"/>
        <pt x="573" y="406" on="1"/>
        <pt x="440" y="453" on="0"/>
        <pt x="356" y="453" on="1"/>
        <pt x="289" y="453" on="0"/>
        <pt x="173" y="412" on="0"/>
        <pt x="108" y="365" on="1"/>
        <pt x="108" y="506" on="1"/>
        <pt x="219" y="590" on="0"/>
        <pt x="371" y="590" on="1"/>
        <pt x="473" y="590" on="0"/>
        <pt x="606" y="544" on="1"/>
        <pt x="753" y="493" on="0"/>
        <pt x="840" y="473" on="0"/>
      </contour>
    </TTGlyph>
    <TTGlyph name="aring" xMin="128" yMin="-20" xMax="1160" yMax="1547">
      <component glyphName="a" x="0" y="0" flags="0x204"/>
      <component glyphName="ring" x="-8" y="0" flags="0x4"/>
    </TTGlyph>
    <TTGlyph name="aringacute" xMin="128" yMin="-20" xMax="1160" yMax="1705">
      <contour>
        <pt x="846" y="1256" on="1"/>
        <pt x="846" y="1204" on="0"/>
        <pt x="795" y="1114" on="0"/>
        <pt x="742" y="1086" on="1"/>
        <pt x="1000" y="1026" on="0"/>
        <pt x="1000" y="738" on="1"/>
        <pt x="1000" y="272" on="1"/>
        <pt x="1000" y="192" on="0"/>
        <pt x="1042" y="111" on="0"/>
        <pt x="1101" y="111" on="1"/>
        <pt x="1127" y="111" on="0"/>
        <pt x="1160" y="118" on="1"/>
        <pt x="1160" y="6" on="1"/>
        <pt x="1092" y="-10" on="0"/>
        <pt x="1021" y="-10" on="1"/>
        <pt x="921" y="-10" on="0"/>
        <pt x="830" y="95" on="0"/>
        <pt x="824" y="207" on="1"/>
        <pt x="818" y="207" on="1"/>
        <pt x="753" y="86" on="0"/>
        <pt x="576" y="-20" on="0"/>
        <pt x="446" y="-20" on="1"/>
        <pt x="288" y="-20" on="0"/>
        <pt x="128" y="152" on="0"/>
        <pt x="128" y="302" on="1"/>
        <pt x="128" y="651" on="0"/>
        <pt x="582" y="656" on="1"/>
        <pt x="818" y="660" on="1"/>
        <pt x="818" y="719" on="1"/>
        <pt x="818" y="850" on="0"/>
        <pt x="712" y="965" on="0"/>
        <pt x="596" y="965" on="1"/>
        <pt x="478" y="965" on="0"/>
        <pt x="374" y="881" on="0"/>
        <pt x="364" y="793" on="1"/>
        <pt x="176" y="810" on="1"/>
        <pt x="212" y="1043" on="0"/>
        <pt x="459" y="1090" on="1"/>
        <pt x="410" y="1118" on="0"/>
        <pt x="362" y="1206" on="0"/>
        <pt x="362" y="1256" on="1"/>
        <pt x="362" y="1345" on="0"/>
        <pt x="495" y="1455" on="0"/>
        <pt x="604" y="1455" on="1"/>
        <pt x="715" y="1455" on="0"/>
        <pt x="846" y="1344" on="0"/>
      </contour>
      <contour>
        <pt x="492" y="117" on="1"/>
        <pt x="588" y="117" on="0"/>
        <pt x="736" y="209" on="0"/>
        <pt x="818" y="363" on="0"/>
        <pt x="818" y="445" on="1"/>
        <pt x="818" y="534" on="1"/>
        <pt x="628" y="530" on="1"/>
        <pt x="510" y="528" on="0"/>
        <pt x="386" y="480" on="0"/>
        <pt x="317" y="381" on="0"/>
        <pt x="317" y="299" on="1"/>
        <pt x="317" y="217" on="0"/>
        <pt x="406" y="117" on="0"/>
      </contour>
      <contour>
        <pt x="508" y="1496" on="1"/>
        <pt x="508" y="1516" on="1"/>
        <pt x="735" y="1705" on="1"/>
        <pt x="932" y="1705" on="1"/>
        <pt x="932" y="1676" on="1"/>
        <pt x="632" y="1496" on="1"/>
      </contour>
      <contour>
        <pt x="725" y="1256" on="1"/>
        <pt x="725" y="1293" on="0"/>
        <pt x="660" y="1339" on="0"/>
        <pt x="604" y="1339" on="1"/>
        <pt x="549" y="1339" on="0"/>
        <pt x="482" y="1293" on="0"/>
        <pt x="482" y="1256" on="1"/>
        <pt x="482" y="1218" on="0"/>
        <pt x="549" y="1172" on="0"/>
        <pt x="604" y="1172" on="1"/>
        <pt x="660" y="1172" on="0"/>
        <pt x="725" y="1218" on="0"/>
      </contour>
    </TTGlyph>
    <TTGlyph name="arrowboth" xMin="8" yMin="100" xMax="1220" yMax="580">
      <contour>
        <pt x="231" y="297" on="1"/>
        <pt x="288" y="230" on="0"/>
        <pt x="350" y="100" on="1"/>
        <pt x="278" y="100" on="1"/>
        <pt x="151" y="249" on="0"/>
        <pt x="8" y="322" on="1"/>
        <pt x="8" y="358" on="1"/>
        <pt x="151" y="431" on="0"/>
        <pt x="278" y="580" on="1"/>
        <pt x="350" y="580" on="1"/>
        <pt x="288" y="450" on="0"/>
        <pt x="231" y="383" on="1"/>
        <pt x="997" y="383" on="1"/>
        <pt x="940" y="450" on="0"/>
        <pt x="878" y="580" on="1"/>
        <pt x="950" y="580" on="1"/>
        <pt x="1077" y="431" on="0"/>
        <pt x="1220" y="358" on="1"/>
        <pt x="1220" y="322" on="1"/>
        <pt x="1077" y="249" on="0"/>
        <pt x="950" y="100" on="1"/>
        <pt x="878" y="100" on="1"/>
        <pt x="940" y="230" on="0"/>
        <pt x="997" y="297" on="1"/>
      </contour>
    </TTGlyph>
    <TTGlyph name="arrowdown" xMin="374" yMin="-61" xMax="854" yMax="1151">
      <contour>
        <pt x="657" y="162" on="1"/>
        <pt x="724" y="219" on="0"/>
        <pt x="854" y="281" on="1"/>
        <pt x="854" y="209" on="1"/>
        <pt x="705" y="82" on="0"/>
        <pt x="632" y="-61" on="1"/>
        <pt x="596" y="-61" on="1"/>
        <pt x="523" y="82" on="0"/>
        <pt x="374" y="209" on="1"/>
        <pt x="374" y="281" on="1"/>
        <pt x="504" y="219" on="0"/>
        <pt x="571" y="162" on="1"/>
        <pt x="571" y="1151" on="1"/>
        <pt x="657" y="1151" on="1"/>
      </contour>
    </TTGlyph>
    <TTGlyph name="arrowleft" xMin="8" yMin="100" xMax="1220" yMax="580">
      <contour>
        <pt x="231" y="297" on="1"/>
        <pt x="288" y="230" on="0"/>
        <pt x="350" y="100" on="1"/>
        <pt x="278" y="100" on="1"/>
        <pt x="151" y="249" on="0"/>
        <pt x="8" y="322" on="1"/>
        <pt x="8" y="358" on="1"/>
        <pt x="151" y="431" on="0"/>
        <pt x="278" y="580" on="1"/>
        <pt x="350" y="580" on="1"/>
        <pt x="288" y="450" on="0"/>
        <pt x="231" y="383" on="1"/>
        <pt x="1220" y="383" on="1"/>
        <pt x="1220" y="297" on="1"/>
      </contour>
    </TTGlyph>
    <TTGlyph name="arrowright" xMin="8" yMin="100" xMax="1220" yMax="580">
      <contour>
        <pt x="997" y="383" on="1"/>
        <pt x="940" y="450" on="0"/>
        <pt x="878" y="580" on="1"/>
        <pt x="950" y="580" on="1"/>
        <pt x="1077" y="431" on="0"/>
        <pt x="1220" y="358" on="1"/>
        <pt x="1220" y="322" on="1"/>
        <pt x="1077" y="249" on="0"/>
        <pt x="950" y="100" on="1"/>
        <pt x="878" y="100" on="1"/>
        <pt x="940" y="230" on="0"/>
        <pt x="997" y="297" on="1"/>
        <pt x="8" y="297" on="1"/>
        <pt x="8" y="383" on="1"/>
      </contour>
    </TTGlyph>
    <TTGlyph name="arrowup" xMin="374" yMin="-61" xMax="854" yMax="1151">
      <contour>
        <pt x="571" y="928" on="1"/>
        <pt x="504" y="871" on="0"/>
        <pt x="374" y="809" on="1"/>
        <pt x="374" y="881" on="1"/>
        <pt x="523" y="1008" on="0"/>
        <pt x="596" y="1151" on="1"/>
        <pt x="632" y="1151" on="1"/>
        <pt x="705" y="1008" on="0"/>
        <pt x="854" y="881" on="1"/>
        <pt x="854" y="809" on="1"/>
        <pt x="724" y="871" on="0"/>
        <pt x="657" y="928" on="1"/>
        <pt x="657" y="-61" on="1"/>
        <pt x="571" y="-61" on="1"/>
      </contour>
    </TTGlyph>
    <TTGlyph name="arrowupdn" xMin="374" yMin="-61" xMax="854" yMax="1151">
      <contour>
        <pt x="571" y="928" on="1"/>
        <pt x="504" y="871" on="0"/>
        <pt x="374" y="809" on="1"/>
        <pt x="374" y="881" on="1"/>
        <pt x="523" y="1008" on="0"/>
        <pt x="596" y="1151" on="1"/>
        <pt x="632" y="1151" on="1"/>
        <pt x="705" y="1008" on="0"/>
        <pt x="854" y="881" on="1"/>
        <pt x="854" y="809" on="1"/>
        <pt x="724" y="871" on="0"/>
        <pt x="657" y="928" on="1"/>
        <pt x="657" y="162" on="1"/>
        <pt x="724" y="219" on="0"/>
        <pt x="854" y="281" on="1"/>
        <pt x="854" y="209" on="1"/>
        <pt x="705" y="82" on="0"/>
        <pt x="632" y="-61" on="1"/>
        <pt x="596" y="-61" on="1"/>
        <pt x="523" y="82" on="0"/>
        <pt x="374" y="209" on="1"/>
        <pt x="374" y="281" on="1"/>
        <pt x="504" y="219" on="0"/>
        <pt x="571" y="162" on="1"/>
      </contour>
    </TTGlyph>
    <TTGlyph name="arrowupdnbse" xMin="374" yMin="-184" xMax="854" yMax="1151">
      <contour>
        <pt x="374" y="-104" on="1"/>
        <pt x="854" y="-104" on="1"/>
        <pt x="854" y="-184" on="1"/>
        <pt x="374" y="-184" on="1"/>
      </contour>
      <contour>
        <pt x="571" y="928" on="1"/>
        <pt x="504" y="871" on="0"/>
        <pt x="374" y="809" on="1"/>
        <pt x="374" y="881" on="1"/>
        <pt x="523" y="1008" on="0"/>
        <pt x="596" y="1151" on="1"/>
        <pt x="632" y="1151" on="1"/>
        <pt x="705" y="1008" on="0"/>
        <pt x="854" y="881" on="1"/>
        <pt x="854" y="809" on="1"/>
        <pt x="724" y="871" on="0"/>
        <pt x="657" y="928" on="1"/>
        <pt x="657" y="162" on="1"/>
        <pt x="724" y="219" on="0"/>
        <pt x="854" y="281" on="1"/>
        <pt x="854" y="209" on="1"/>
        <pt x="705" y="82" on="0"/>
        <pt x="632" y="-61" on="1"/>
        <pt x="596" y="-61" on="1"/>
        <pt x="523" y="82" on="0"/>
        <pt x="374" y="209" on="1"/>
        <pt x="374" y="281" on="1"/>
        <pt x="504" y="219" on="0"/>
        <pt x="571" y="162" on="1"/>
      </contour>
    </TTGlyph>
    <TTGlyph name="asciicircum" xMin="133" yMin="442" xMax="1094" yMax="1349">
      <contour>
        <pt x="940" y="442" on="1"/>
        <pt x="611" y="1245" on="1"/>
        <pt x="285" y="442" on="1"/>
        <pt x="133" y="442" on="1"/>
        <pt x="511" y="1349" on="1"/>
        <pt x="714" y="1349" on="1"/>
        <pt x="1094" y="442" on="1"/>
      </contour>
    </TTGlyph>
    <TTGlyph name="asciitilde" xMin="108" yMin="553" xMax="1120" yMax="807">
      <contour>
        <pt x="371" y="807" on="1"/>
        <pt x="473" y="807" on="0"/>
        <pt x="606" y="761" on="1"/>
        <pt x="753" y="710" on="0"/>
        <pt x="840" y="690" on="0"/>
        <pt x="876" y="690" on="1"/>
        <pt x="1006" y="690" on="0"/>
        <pt x="1120" y="782" on="1"/>
        <pt x="1120" y="633" on="1"/>
        <pt x="1060" y="591" on="0"/>
        <pt x="945" y="553" on="0"/>
        <pt x="860" y="553" on="1"/>
        <pt x="791" y="553" on="0"/>
        <pt x="646" y="597" on="0"/>
        <pt x="573" y="623" on="1"/>
        <pt x="444" y="668" on="0"/>
        <pt x="356" y="668" on="1"/>
        <pt x="289" y="668" on="0"/>
        <pt x="173" y="627" on="0"/>
        <pt x="108" y="580" on="1"/>
        <pt x="108" y="723" on="1"/>
        <pt x="219" y="807" on="0"/>
      </contour>
    </TTGlyph>
    <TTGlyph name="asterisk" xMin="248" yMin="764" xMax="980" yMax="1483">
      <contour>
        <pt x="671" y="1188" on="1"/>
        <pt x="935" y="1291" on="1"/>
        <pt x="980" y="1159" on="1"/>
        <pt x="698" y="1086" on="1"/>
        <pt x="883" y="836" on="1"/>
        <pt x="764" y="764" on="1"/>
        <pt x="614" y="1022" on="1"/>
        <pt x="458" y="766" on="1"/>
        <pt x="339" y="838" on="1"/>
        <pt x="528" y="1086" on="1"/>
        <pt x="248" y="1159" on="1"/>
        <pt x="293" y="1293" on="1"/>
        <pt x="560" y="1186" on="1"/>
        <pt x="548" y="1483" on="1"/>
        <pt x="684" y="1483" on="1"/>
      </contour>
    </TTGlyph>
    <TTGlyph name="at" xMin="44" yMin="-283" xMax="1189" yMax="1484">
      <contour>
        <pt x="1189" y="755" on="1"/>
        <pt x="1189" y="457" on="0"/>
        <pt x="1024" y="104" on="0"/>
        <pt x="884" y="104" on="1"/>
        <pt x="741" y="104" on="0"/>
        <pt x="741" y="261" on="1"/>
        <pt x="741" y="269" on="1"/>
        <pt x="743" y="299" on="1"/>
        <pt x="737" y="299" on="1"/>
        <pt x="703" y="211" on="0"/>
        <pt x="580" y="104" on="0"/>
        <pt x="502" y="104" on="1"/>
        <pt x="396" y="104" on="0"/>
        <pt x="277" y="304" on="0"/>
        <pt x="277" y="489" on="1"/>
        <pt x="277" y="650" on="0"/>
        <pt x="374" y="936" on="0"/>
        <pt x="541" y="1101" on="0"/>
        <pt x="644" y="1101" on="1"/>
        <pt x="715" y="1101" on="0"/>
        <pt x="806" y="1018" on="0"/>
        <pt x="828" y="928" on="1"/>
        <pt x="833" y="928" on="1"/>
        <pt x="865" y="1079" on="1"/>
        <pt x="981" y="1079" on="1"/>
        <pt x="882" y="572" on="1"/>
        <pt x="842" y="362" on="0"/>
        <pt x="842" y="294" on="1"/>
        <pt x="842" y="206" on="0"/>
        <pt x="891" y="206" on="1"/>
        <pt x="969" y="206" on="0"/>
        <pt x="1068" y="504" on="0"/>
        <pt x="1068" y="753" on="1"/>
        <pt x="1068" y="1027" on="0"/>
        <pt x="850" y="1368" on="0"/>
        <pt x="670" y="1368" on="1"/>
        <pt x="522" y="1368" on="0"/>
        <pt x="294" y="1153" on="0"/>
        <pt x="170" y="763" on="0"/>
        <pt x="170" y="514" on="1"/>
        <pt x="170" y="205" on="0"/>
        <pt x="402" y="-165" on="0"/>
        <pt x="604" y="-165" on="1"/>
        <pt x="698" y="-165" on="0"/>
        <pt x="872" y="-95" on="0"/>
        <pt x="973" y="-7" on="1"/>
        <pt x="1044" y="-94" on="1"/>
        <pt x="929" y="-193" on="0"/>
        <pt x="713" y="-283" on="0"/>
        <pt x="594" y="-283" on="1"/>
        <pt x="429" y="-283" on="0"/>
        <pt x="178" y="-89" on="0"/>
        <pt x="44" y="276" on="0"/>
        <pt x="44" y="514" on="1"/>
        <pt x="44" y="800" on="0"/>
        <pt x="198" y="1243" on="0"/>
        <pt x="484" y="1484" on="0"/>
        <pt x="672" y="1484" on="1"/>
        <pt x="830" y="1484" on="0"/>
        <pt x="1063" y="1303" on="0"/>
        <pt x="1189" y="972" on="0"/>
      </contour>
      <contour>
        <pt x="775" y="784" on="1"/>
        <pt x="775" y="890" on="0"/>
        <pt x="705" y="999" on="0"/>
        <pt x="646" y="999" on="1"/>
        <pt x="583" y="999" on="0"/>
        <pt x="477" y="866" on="0"/>
        <pt x="412" y="623" on="0"/>
        <pt x="412" y="491" on="1"/>
        <pt x="412" y="210" on="0"/>
        <pt x="526" y="210" on="1"/>
        <pt x="600" y="210" on="0"/>
        <pt x="718" y="400" on="0"/>
        <pt x="775" y="714" on="0"/>
      </contour>
    </TTGlyph>
    <TTGlyph name="atilde" xMin="128" yMin="-20" xMax="1160" yMax="1449">
      <component glyphName="a" x="0" y="0" flags="0x204"/>
      <component glyphName="tilde" x="-8" y="0" flags="0x4"/>
    </TTGlyph>
    <TTGlyph name="ayin" xMin="70" yMin="-33" xMax="1118" yMax="1227">
      <contour>
        <pt x="70" y="162" on="1"/>
        <pt x="346" y="162" on="0"/>
        <pt x="504" y="213" on="1"/>
        <pt x="133" y="1227" on="1"/>
        <pt x="336" y="1227" on="1"/>
        <pt x="664" y="291" on="1"/>
        <pt x="805" y="393" on="0"/>
        <pt x="926" y="819" on="0"/>
        <pt x="926" y="1227" on="1"/>
        <pt x="1118" y="1227" on="1"/>
        <pt x="1118" y="762" on="0"/>
        <pt x="918" y="238" on="0"/>
        <pt x="473" y="-13" on="0"/>
        <pt x="70" y="-33" on="1"/>
      </contour>
    </TTGlyph>
    <TTGlyph name="b" xMin="179" yMin="-20" xMax="1090" yMax="1484">
      <contour>
        <pt x="1090" y="546" on="1"/>
        <pt x="1090" y="262" on="0"/>
        <pt x="887" y="-20" on="0"/>
        <pt x="698" y="-20" on="1"/>
        <pt x="454" y="-20" on="0"/>
        <pt x="364" y="164" on="1"/>
        <pt x="362" y="164" on="1"/>
        <pt x="362" y="116" on="0"/>
        <pt x="355" y="12" on="0"/>
        <pt x="353" y="0" on="1"/>
        <pt x="179" y="0" on="1"/>
        <pt x="185" y="54" on="0"/>
        <pt x="185" y="223" on="1"/>
        <pt x="185" y="1484" on="1"/>
        <pt x="365" y="1484" on="1"/>
        <pt x="365" y="1061" on="1"/>
        <pt x="365" y="996" on="0"/>
        <pt x="361" y="904" on="1"/>
        <pt x="365" y="904" on="1"/>
        <pt x="456" y="1104" on="0"/>
        <pt x="699" y="1104" on="1"/>
        <pt x="1090" y="1104" on="0"/>
      </contour>
      <contour>
        <pt x="904" y="540" on="1"/>
        <pt x="904" y="764" on="0"/>
        <pt x="781" y="965" on="0"/>
        <pt x="650" y="965" on="1"/>
        <pt x="501" y="965" on="0"/>
        <pt x="365" y="746" on="0"/>
        <pt x="365" y="524" on="1"/>
        <pt x="365" y="315" on="0"/>
        <pt x="497" y="113" on="0"/>
        <pt x="648" y="113" on="1"/>
        <pt x="783" y="113" on="0"/>
        <pt x="904" y="322" on="0"/>
      </contour>
    </TTGlyph>
    <TTGlyph name="backslash" xMin="115" yMin="-20" xMax="1114" yMax="1484">
      <contour>
        <pt x="932" y="-20" on="1"/>
        <pt x="115" y="1484" on="1"/>
        <pt x="293" y="1484" on="1"/>
        <pt x="1114" y="-20" on="1"/>
      </contour>
    </TTGlyph>
    <TTGlyph name="bar" xMin="531" yMin="-425" xMax="697" yMax="1484">
      <contour>
        <pt x="531" y="-425" on="1"/>
        <pt x="531" y="1484" on="1"/>
        <pt x="697" y="1484" on="1"/>
        <pt x="697" y="-425" on="1"/>
      </contour>
    </TTGlyph>
    <TTGlyph name="bari.dotless" xMin="143" yMin="0" xMax="1125" yMax="1082">
      <contour>
        <pt x="745" y="617" on="1"/>
        <pt x="959" y="617" on="1"/>
        <pt x="959" y="484" on="1"/>
        <pt x="745" y="484" on="1"/>
        <pt x="745" y="142" on="1"/>
        <pt x="1125" y="142" on="1"/>
        <pt x="1125" y="0" on="1"/>
        <pt x="143" y="0" on="1"/>
        <pt x="143" y="142" on="1"/>
        <pt x="565" y="142" on="1"/>
        <pt x="565" y="484" on="1"/>
        <pt x="332" y="484" on="1"/>
        <pt x="332" y="617" on="1"/>
        <pt x="565" y="617" on="1"/>
        <pt x="565" y="940" on="1"/>
        <pt x="246" y="940" on="1"/>
        <pt x="246" y="1082" on="1"/>
        <pt x="745" y="1082" on="1"/>
      </contour>
    </TTGlyph>
    <TTGlyph name="bet" xMin="78" yMin="0" xMax="1149" yMax="1227">
      <contour>
        <pt x="125" y="1057" on="1"/>
        <pt x="125" y="1227" on="1"/>
        <pt x="502" y="1227" on="1"/>
        <pt x="778" y="1227" on="0"/>
        <pt x="1016" y="991" on="0"/>
        <pt x="1016" y="719" on="1"/>
        <pt x="1016" y="170" on="1"/>
        <pt x="1149" y="170" on="1"/>
        <pt x="1149" y="0" on="1"/>
        <pt x="78" y="0" on="1"/>
        <pt x="78" y="170" on="1"/>
        <pt x="831" y="170" on="1"/>
        <pt x="831" y="721" on="1"/>
        <pt x="831" y="903" on="0"/>
        <pt x="684" y="1057" on="0"/>
        <pt x="500" y="1057" on="1"/>
      </contour>
    </TTGlyph>
    <TTGlyph name="beta" xMin="172" yMin="-425" xMax="1127" yMax="1484">
      <contour>
        <pt x="1127" y="405" on="1"/>
        <pt x="1127" y="207" on="0"/>
        <pt x="890" y="-20" on="0"/>
        <pt x="670" y="-20" on="1"/>
        <pt x="487" y="-20" on="0"/>
        <pt x="352" y="74" on="1"/>
        <pt x="346" y="74" on="1"/>
        <pt x="352" y="-40" on="0"/>
        <pt x="352" y="-128" on="1"/>
        <pt x="352" y="-425" on="1"/>
        <pt x="172" y="-425" on="1"/>
        <pt x="172" y="1027" on="1"/>
        <pt x="172" y="1264" on="0"/>
        <pt x="400" y="1484" on="0"/>
        <pt x="626" y="1484" on="1"/>
        <pt x="823" y="1484" on="0"/>
        <pt x="1032" y="1301" on="0"/>
        <pt x="1032" y="1135" on="1"/>
        <pt x="1032" y="882" on="0"/>
        <pt x="809" y="795" on="1"/>
        <pt x="957" y="766" on="0"/>
        <pt x="1127" y="562" on="0"/>
      </contour>
      <contour>
        <pt x="859" y="1133" on="1"/>
        <pt x="859" y="1231" on="0"/>
        <pt x="738" y="1343" on="0"/>
        <pt x="628" y="1343" on="1"/>
        <pt x="481" y="1343" on="0"/>
        <pt x="352" y="1188" on="0"/>
        <pt x="352" y="1021" on="1"/>
        <pt x="352" y="205" on="1"/>
        <pt x="416" y="162" on="0"/>
        <pt x="581" y="113" on="0"/>
        <pt x="662" y="113" on="1"/>
        <pt x="803" y="113" on="0"/>
        <pt x="955" y="267" on="0"/>
        <pt x="955" y="402" on="1"/>
        <pt x="955" y="545" on="0"/>
        <pt x="749" y="703" on="0"/>
        <pt x="552" y="703" on="1"/>
        <pt x="552" y="845" on="1"/>
        <pt x="703" y="856" on="0"/>
        <pt x="859" y="1002" on="0"/>
      </contour>
    </TTGlyph>
    <TTGlyph name="betdagesh" xMin="78" yMin="0" xMax="1149" yMax="1227">
      <component glyphName="bet" x="0" y="0" flags="0x204"/>
      <component glyphName="dagesh" x="-151" y="-81" flags="0x4"/>
    </TTGlyph>
    <TTGlyph name="betrafe" xMin="78" yMin="0" xMax="1149" yMax="1457">
      <component glyphName="bet" x="0" y="0" flags="0x204"/>
      <component glyphName="rafe" x="-101" y="0" flags="0x4"/>
    </TTGlyph>
    <TTGlyph name="block" xMin="0" yMin="-615" xMax="1229" yMax="1705">
      <contour>
        <pt x="1229" y="-615" on="1"/>
        <pt x="0" y="-615" on="1"/>
        <pt x="0" y="1705" on="1"/>
        <pt x="1229" y="1705" on="1"/>
      </contour>
    </TTGlyph>
    <TTGlyph name="braceleft" xMin="227" yMin="-425" xMax="1061" yMax="1484">
      <contour>
        <pt x="796" y="-425" on="1"/>
        <pt x="666" y="-425" on="0"/>
        <pt x="502" y="-256" on="0"/>
        <pt x="502" y="-122" on="1"/>
        <pt x="502" y="229" on="1"/>
        <pt x="502" y="336" on="0"/>
        <pt x="356" y="456" on="0"/>
        <pt x="227" y="461" on="1"/>
        <pt x="227" y="598" on="1"/>
        <pt x="357" y="603" on="0"/>
        <pt x="502" y="725" on="0"/>
        <pt x="502" y="829" on="1"/>
        <pt x="502" y="1181" on="1"/>
        <pt x="502" y="1318" on="0"/>
        <pt x="664" y="1484" on="0"/>
        <pt x="796" y="1484" on="1"/>
        <pt x="1061" y="1484" on="1"/>
        <pt x="1061" y="1345" on="1"/>
        <pt x="848" y="1345" on="1"/>
        <pt x="757" y="1345" on="0"/>
        <pt x="677" y="1257" on="0"/>
        <pt x="677" y="1150" on="1"/>
        <pt x="677" y="804" on="1"/>
        <pt x="677" y="706" on="0"/>
        <pt x="549" y="557" on="0"/>
        <pt x="446" y="532" on="1"/>
        <pt x="446" y="530" on="1"/>
        <pt x="548" y="506" on="0"/>
        <pt x="677" y="359" on="0"/>
        <pt x="677" y="256" on="1"/>
        <pt x="677" y="-91" on="1"/>
        <pt x="677" y="-197" on="0"/>
        <pt x="757" y="-286" on="0"/>
        <pt x="848" y="-286" on="1"/>
        <pt x="1061" y="-286" on="1"/>
        <pt x="1061" y="-425" on="1"/>
      </contour>
    </TTGlyph>
    <TTGlyph name="braceright" xMin="167" yMin="-425" xMax="1001" yMax="1484">
      <contour>
        <pt x="167" y="-425" on="1"/>
        <pt x="167" y="-286" on="1"/>
        <pt x="380" y="-286" on="1"/>
        <pt x="471" y="-286" on="0"/>
        <pt x="552" y="-197" on="0"/>
        <pt x="552" y="-91" on="1"/>
        <pt x="552" y="256" on="1"/>
        <pt x="552" y="358" on="0"/>
        <pt x="680" y="506" on="0"/>
        <pt x="782" y="530" on="1"/>
        <pt x="782" y="532" on="1"/>
        <pt x="680" y="557" on="0"/>
        <pt x="552" y="707" on="0"/>
        <pt x="552" y="804" on="1"/>
        <pt x="552" y="1150" on="1"/>
        <pt x="552" y="1255" on="0"/>
        <pt x="472" y="1345" on="0"/>
        <pt x="380" y="1345" on="1"/>
        <pt x="167" y="1345" on="1"/>
        <pt x="167" y="1484" on="1"/>
        <pt x="432" y="1484" on="1"/>
        <pt x="565" y="1484" on="0"/>
        <pt x="726" y="1318" on="0"/>
        <pt x="726" y="1181" on="1"/>
        <pt x="726" y="829" on="1"/>
        <pt x="726" y="724" on="0"/>
        <pt x="872" y="603" on="0"/>
        <pt x="1001" y="598" on="1"/>
        <pt x="1001" y="461" on="1"/>
        <pt x="871" y="456" on="0"/>
        <pt x="726" y="335" on="0"/>
        <pt x="726" y="229" on="1"/>
        <pt x="726" y="-122" on="1"/>
        <pt x="726" y="-257" on="0"/>
        <pt x="562" y="-425" on="0"/>
        <pt x="432" y="-425" on="1"/>
      </contour>
    </TTGlyph>
    <TTGlyph name="bracketleft" xMin="410" yMin="-425" xMax="957" yMax="1484">
      <contour>
        <pt x="410" y="-425" on="1"/>
        <pt x="410" y="1484" on="1"/>
        <pt x="957" y="1484" on="1"/>
        <pt x="957" y="1345" on="1"/>
        <pt x="590" y="1345" on="1"/>
        <pt x="590" y="-286" on="1"/>
        <pt x="957" y="-286" on="1"/>
        <pt x="957" y="-425" on="1"/>
      </contour>
    </TTGlyph>
    <TTGlyph name="bracketright" xMin="270" yMin="-425" xMax="817" yMax="1484">
      <contour>
        <pt x="270" y="-425" on="1"/>
        <pt x="270" y="-286" on="1"/>
        <pt x="637" y="-286" on="1"/>
        <pt x="637" y="1345" on="1"/>
        <pt x="270" y="1345" on="1"/>
        <pt x="270" y="1484" on="1"/>
        <pt x="817" y="1484" on="1"/>
        <pt x="817" y="-425" on="1"/>
      </contour>
    </TTGlyph>
    <TTGlyph name="breve" xMin="301" yMin="1201" xMax="927" yMax="1460">
      <contour>
        <pt x="613" y="1201" on="1"/>
        <pt x="489" y="1201" on="0"/>
        <pt x="322" y="1343" on="0"/>
        <pt x="301" y="1460" on="1"/>
        <pt x="428" y="1460" on="1"/>
        <pt x="445" y="1397" on="0"/>
        <pt x="531" y="1327" on="0"/>
        <pt x="613" y="1327" on="1"/>
        <pt x="698" y="1327" on="0"/>
        <pt x="783" y="1397" on="0"/>
        <pt x="800" y="1460" on="1"/>
        <pt x="927" y="1460" on="1"/>
        <pt x="903" y="1341" on="0"/>
        <pt x="738" y="1201" on="0"/>
      </contour>
    </TTGlyph>
    <TTGlyph name="breve.cyr" xMin="-27" yMin="1200" xMax="707" yMax="1520">
      <contour>
        <pt x="340" y="1200" on="1"/>
        <pt x="-16" y="1200" on="0"/>
        <pt x="-27" y="1520" on="1"/>
        <pt x="137" y="1520" on="1"/>
        <pt x="149" y="1321" on="0"/>
        <pt x="340" y="1321" on="1"/>
        <pt x="531" y="1321" on="0"/>
        <pt x="543" y="1520" on="1"/>
        <pt x="707" y="1520" on="1"/>
        <pt x="696" y="1200" on="0"/>
      </contour>
    </TTGlyph>
    <TTGlyph name="breve.uc" xMin="281" yMin="1445" xMax="947" yMax="1694">
      <contour>
        <pt x="613" y="1445" on="1"/>
        <pt x="480" y="1445" on="0"/>
        <pt x="299" y="1583" on="0"/>
        <pt x="281" y="1694" on="1"/>
        <pt x="398" y="1694" on="1"/>
        <pt x="415" y="1641" on="0"/>
        <pt x="524" y="1581" on="0"/>
        <pt x="615" y="1581" on="1"/>
        <pt x="706" y="1581" on="0"/>
        <pt x="813" y="1642" on="0"/>
        <pt x="830" y="1694" on="1"/>
        <pt x="947" y="1694" on="1"/>
        <pt x="926" y="1580" on="0"/>
        <pt x="746" y="1445" on="0"/>
      </contour>
    </TTGlyph>
    <TTGlyph name="breveacute" xMin="-313" yMin="1445" xMax="313" yMax="1818">
      <contour>
        <pt x="35" y="1818" on="1"/>
        <pt x="261" y="1818" on="1"/>
        <pt x="261" y="1806" on="1"/>
        <pt x="40" y="1660" on="1"/>
        <pt x="-90" y="1660" on="1"/>
        <pt x="-90" y="1670" on="1"/>
      </contour>
      <contour>
        <pt x="-1" y="1445" on="1"/>
        <pt x="-130" y="1445" on="0"/>
        <pt x="-295" y="1578" on="0"/>
        <pt x="-313" y="1694" on="1"/>
        <pt x="-206" y="1694" on="1"/>
        <pt x="-189" y="1626" on="0"/>
        <pt x="-83" y="1571" on="0"/>
        <pt x="1" y="1571" on="1"/>
        <pt x="85" y="1571" on="0"/>
        <pt x="189" y="1627" on="0"/>
        <pt x="206" y="1694" on="1"/>
        <pt x="313" y="1694" on="1"/>
        <pt x="291" y="1574" on="0"/>
        <pt x="128" y="1445" on="0"/>
      </contour>
    </TTGlyph>
    <TTGlyph name="breveacute.lc" xMin="-333" yMin="1201" xMax="333" yMax="1776">
      <contour>
        <pt x="-1" y="1201" on="1"/>
        <pt x="-133" y="1201" on="0"/>
        <pt x="-315" y="1371" on="0"/>
        <pt x="-333" y="1510" on="1"/>
        <pt x="-216" y="1510" on="1"/>
        <pt x="-188" y="1357" on="0"/>
        <pt x="1" y="1357" on="1"/>
        <pt x="187" y="1357" on="0"/>
        <pt x="216" y="1510" on="1"/>
        <pt x="333" y="1510" on="1"/>
        <pt x="312" y="1368" on="0"/>
        <pt x="133" y="1201" on="0"/>
      </contour>
      <contour>
        <pt x="-108" y="1530" on="1"/>
        <pt x="-108" y="1550" on="1"/>
        <pt x="109" y="1776" on="1"/>
        <pt x="316" y="1776" on="1"/>
        <pt x="316" y="1747" on="1"/>
        <pt x="6" y="1530" on="1"/>
      </contour>
    </TTGlyph>
    <TTGlyph name="brevegrave" xMin="-313" yMin="1445" xMax="313" yMax="1818">
      <contour>
        <pt x="92" y="1670" on="1"/>
        <pt x="92" y="1660" on="1"/>
        <pt x="-38" y="1660" on="1"/>
        <pt x="-259" y="1806" on="1"/>
        <pt x="-259" y="1818" on="1"/>
        <pt x="-33" y="1818" on="1"/>
      </contour>
      <contour>
        <pt x="-1" y="1445" on="1"/>
        <pt x="-130" y="1445" on="0"/>
        <pt x="-295" y="1578" on="0"/>
        <pt x="-313" y="1694" on="1"/>
        <pt x="-206" y="1694" on="1"/>
        <pt x="-189" y="1626" on="0"/>
        <pt x="-83" y="1571" on="0"/>
        <pt x="1" y="1571" on="1"/>
        <pt x="85" y="1571" on="0"/>
        <pt x="189" y="1627" on="0"/>
        <pt x="206" y="1694" on="1"/>
        <pt x="313" y="1694" on="1"/>
        <pt x="291" y="1574" on="0"/>
        <pt x="128" y="1445" on="0"/>
      </contour>
    </TTGlyph>
    <TTGlyph name="brevegrave.lc" xMin="-333" yMin="1201" xMax="333" yMax="1776">
      <contour>
        <pt x="1" y="1201" on="1"/>
        <pt x="-134" y="1201" on="0"/>
        <pt x="-312" y="1369" on="0"/>
        <pt x="-333" y="1510" on="1"/>
        <pt x="-216" y="1510" on="1"/>
        <pt x="-187" y="1357" on="0"/>
        <pt x="-1" y="1357" on="1"/>
        <pt x="188" y="1357" on="0"/>
        <pt x="216" y="1510" on="1"/>
        <pt x="333" y="1510" on="1"/>
        <pt x="315" y="1370" on="0"/>
        <pt x="133" y="1201" on="0"/>
      </contour>
      <contour>
        <pt x="-6" y="1530" on="1"/>
        <pt x="-316" y="1747" on="1"/>
        <pt x="-316" y="1776" on="1"/>
        <pt x="-109" y="1776" on="1"/>
        <pt x="108" y="1550" on="1"/>
        <pt x="108" y="1530" on="1"/>
      </contour>
    </TTGlyph>
    <TTGlyph name="brevehook" xMin="-313" yMin="1445" xMax="313" yMax="1818">
      <contour>
        <pt x="-1" y="1445" on="1"/>
        <pt x="-130" y="1445" on="0"/>
        <pt x="-295" y="1578" on="0"/>
        <pt x="-313" y="1694" on="1"/>
        <pt x="-206" y="1694" on="1"/>
        <pt x="-189" y="1626" on="0"/>
        <pt x="-83" y="1571" on="0"/>
        <pt x="1" y="1571" on="1"/>
        <pt x="85" y="1571" on="0"/>
        <pt x="189" y="1627" on="0"/>
        <pt x="206" y="1694" on="1"/>
        <pt x="313" y="1694" on="1"/>
        <pt x="291" y="1574" on="0"/>
        <pt x="128" y="1445" on="0"/>
      </contour>
      <contour>
        <pt x="29" y="1715" on="1"/>
        <pt x="29" y="1750" on="0"/>
        <pt x="-30" y="1750" on="1"/>
        <pt x="-81" y="1750" on="0"/>
        <pt x="-121" y="1734" on="1"/>
        <pt x="-141" y="1798" on="1"/>
        <pt x="-83" y="1818" on="0"/>
        <pt x="-16" y="1818" on="1"/>
        <pt x="136" y="1818" on="0"/>
        <pt x="136" y="1722" on="1"/>
        <pt x="136" y="1674" on="0"/>
        <pt x="62" y="1622" on="0"/>
        <pt x="-11" y="1622" on="1"/>
        <pt x="-46" y="1622" on="1"/>
        <pt x="-46" y="1677" on="1"/>
        <pt x="29" y="1677" on="0"/>
      </contour>
    </TTGlyph>
    <TTGlyph name="brevehook.lc" xMin="-333" yMin="1201" xMax="333" yMax="1835">
      <contour>
        <pt x="-1" y="1201" on="1"/>
        <pt x="-133" y="1201" on="0"/>
        <pt x="-315" y="1371" on="0"/>
        <pt x="-333" y="1510" on="1"/>
        <pt x="-216" y="1510" on="1"/>
        <pt x="-188" y="1357" on="0"/>
        <pt x="1" y="1357" on="1"/>
        <pt x="187" y="1357" on="0"/>
        <pt x="216" y="1510" on="1"/>
        <pt x="333" y="1510" on="1"/>
        <pt x="312" y="1368" on="0"/>
        <pt x="133" y="1201" on="0"/>
      </contour>
      <contour>
        <pt x="51" y="1675" on="1"/>
        <pt x="51" y="1730" on="0"/>
        <pt x="-42" y="1730" on="1"/>
        <pt x="-114" y="1730" on="0"/>
        <pt x="-184" y="1706" on="1"/>
        <pt x="-215" y="1805" on="1"/>
        <pt x="-125" y="1835" on="0"/>
        <pt x="-19" y="1835" on="1"/>
        <pt x="218" y="1835" on="0"/>
        <pt x="218" y="1696" on="1"/>
        <pt x="218" y="1637" on="0"/>
        <pt x="137" y="1552" on="0"/>
        <pt x="46" y="1541" on="1"/>
        <pt x="46" y="1501" on="1"/>
        <pt x="-66" y="1501" on="1"/>
        <pt x="-66" y="1611" on="1"/>
        <pt x="3" y="1614" on="0"/>
        <pt x="51" y="1644" on="0"/>
      </contour>
    </TTGlyph>
    <TTGlyph name="brevetilde" xMin="-318" yMin="1445" xMax="319" yMax="1818">
      <contour>
        <pt x="1" y="1445" on="1"/>
        <pt x="-101" y="1445" on="0"/>
        <pt x="-234" y="1551" on="0"/>
        <pt x="-248" y="1644" on="1"/>
        <pt x="-163" y="1644" on="1"/>
        <pt x="-134" y="1561" on="0"/>
        <pt x="3" y="1561" on="1"/>
        <pt x="138" y="1561" on="0"/>
        <pt x="167" y="1644" on="1"/>
        <pt x="252" y="1644" on="1"/>
        <pt x="231" y="1544" on="0"/>
        <pt x="102" y="1445" on="0"/>
      </contour>
      <contour>
        <pt x="127" y="1664" on="1"/>
        <pt x="92" y="1664" on="0"/>
        <pt x="24" y="1683" on="0"/>
        <pt x="-41" y="1705" on="0"/>
        <pt x="-102" y="1724" on="0"/>
        <pt x="-129" y="1724" on="1"/>
        <pt x="-210" y="1724" on="0"/>
        <pt x="-227" y="1664" on="1"/>
        <pt x="-318" y="1664" on="1"/>
        <pt x="-306" y="1729" on="0"/>
        <pt x="-264" y="1786" on="0"/>
        <pt x="-189" y="1818" on="0"/>
        <pt x="-125" y="1818" on="1"/>
        <pt x="-89" y="1818" on="0"/>
        <pt x="-19" y="1799" on="0"/>
        <pt x="45" y="1777" on="0"/>
        <pt x="104" y="1758" on="0"/>
        <pt x="130" y="1758" on="1"/>
        <pt x="178" y="1758" on="0"/>
        <pt x="221" y="1789" on="0"/>
        <pt x="227" y="1818" on="1"/>
        <pt x="319" y="1818" on="1"/>
        <pt x="308" y="1754" on="0"/>
        <pt x="266" y="1695" on="0"/>
        <pt x="190" y="1664" on="0"/>
      </contour>
    </TTGlyph>
    <TTGlyph name="brevetilde.lc" xMin="-333" yMin="1201" xMax="333" yMax="1775">
      <contour>
        <pt x="-1" y="1201" on="1"/>
        <pt x="-133" y="1201" on="0"/>
        <pt x="-315" y="1371" on="0"/>
        <pt x="-333" y="1510" on="1"/>
        <pt x="-216" y="1510" on="1"/>
        <pt x="-188" y="1357" on="0"/>
        <pt x="1" y="1357" on="1"/>
        <pt x="187" y="1357" on="0"/>
        <pt x="216" y="1510" on="1"/>
        <pt x="333" y="1510" on="1"/>
        <pt x="312" y="1368" on="0"/>
        <pt x="133" y="1201" on="0"/>
      </contour>
      <contour>
        <pt x="124" y="1581" on="1"/>
        <pt x="73" y="1581" on="0"/>
        <pt x="-11" y="1619" on="1"/>
        <pt x="-96" y="1656" on="0"/>
        <pt x="-132" y="1656" on="1"/>
        <pt x="-177" y="1656" on="0"/>
        <pt x="-222" y="1621" on="0"/>
        <pt x="-230" y="1581" on="1"/>
        <pt x="-321" y="1581" on="1"/>
        <pt x="-310" y="1663" on="0"/>
        <pt x="-267" y="1735" on="0"/>
        <pt x="-191" y="1775" on="0"/>
        <pt x="-128" y="1775" on="1"/>
        <pt x="-73" y="1775" on="0"/>
        <pt x="10" y="1738" on="1"/>
        <pt x="93" y="1700" on="0"/>
        <pt x="127" y="1700" on="1"/>
        <pt x="175" y="1700" on="0"/>
        <pt x="218" y="1738" on="0"/>
        <pt x="224" y="1775" on="1"/>
        <pt x="316" y="1775" on="1"/>
        <pt x="304" y="1694" on="0"/>
        <pt x="262" y="1620" on="0"/>
        <pt x="187" y="1581" on="0"/>
      </contour>
    </TTGlyph>
    <TTGlyph name="brokenbar" xMin="531" yMin="-455" xMax="697" yMax="1454">
      <contour>
        <pt x="531" y="676" on="1"/>
        <pt x="531" y="1454" on="1"/>
        <pt x="697" y="1454" on="1"/>
        <pt x="697" y="676" on="1"/>
      </contour>
      <contour>
        <pt x="531" y="-455" on="1"/>
        <pt x="531" y="324" on="1"/>
        <pt x="697" y="324" on="1"/>
        <pt x="697" y="-455" on="1"/>
      </contour>
    </TTGlyph>
    <TTGlyph name="bullet" xMin="336" yMin="401" xMax="891" yMax="956">
      <contour>
        <pt x="891" y="682" on="1"/>
        <pt x="891" y="565" on="0"/>
        <pt x="724" y="401" on="0"/>
        <pt x="610" y="401" on="1"/>
        <pt x="499" y="401" on="0"/>
        <pt x="336" y="565" on="0"/>
        <pt x="336" y="682" on="1"/>
        <pt x="336" y="797" on="0"/>
        <pt x="498" y="956" on="0"/>
        <pt x="610" y="956" on="1"/>
        <pt x="725" y="956" on="0"/>
        <pt x="891" y="797" on="0"/>
      </contour>
    </TTGlyph>
    <TTGlyph name="c" xMin="130" yMin="-20" xMax="1080" yMax="1102">
      <contour>
        <pt x="130" y="542" on="1"/>
        <pt x="130" y="812" on="0"/>
        <pt x="388" y="1102" on="0"/>
        <pt x="632" y="1102" on="1"/>
        <pt x="814" y="1102" on="0"/>
        <pt x="1050" y="927" on="0"/>
        <pt x="1078" y="779" on="1"/>
        <pt x="886" y="765" on="1"/>
        <pt x="870" y="856" on="0"/>
        <pt x="742" y="961" on="0"/>
        <pt x="624" y="961" on="1"/>
        <pt x="466" y="961" on="0"/>
        <pt x="319" y="765" on="0"/>
        <pt x="319" y="546" on="1"/>
        <pt x="319" y="324" on="0"/>
        <pt x="466" y="119" on="0"/>
        <pt x="623" y="119" on="1"/>
        <pt x="731" y="119" on="0"/>
        <pt x="873" y="225" on="0"/>
        <pt x="890" y="334" on="1"/>
        <pt x="1080" y="322" on="1"/>
        <pt x="1067" y="226" on="0"/>
        <pt x="948" y="69" on="0"/>
        <pt x="752" y="-20" on="0"/>
        <pt x="631" y="-20" on="1"/>
        <pt x="386" y="-20" on="0"/>
        <pt x="130" y="268" on="0"/>
      </contour>
    </TTGlyph>
    <TTGlyph name="cacute" xMin="130" yMin="-20" xMax="1080" yMax="1460">
      <component glyphName="c" x="0" y="0" flags="0x204"/>
      <component glyphName="acute" x="102" y="0" flags="0x4"/>
    </TTGlyph>
    <TTGlyph name="caron" xMin="283" yMin="1201" xMax="945" yMax="1460">
      <contour>
        <pt x="701" y="1201" on="1"/>
        <pt x="537" y="1201" on="1"/>
        <pt x="283" y="1440" on="1"/>
        <pt x="283" y="1460" on="1"/>
        <pt x="387" y="1460" on="1"/>
        <pt x="619" y="1322" on="1"/>
        <pt x="621" y="1322" on="1"/>
        <pt x="840" y="1460" on="1"/>
        <pt x="945" y="1460" on="1"/>
        <pt x="945" y="1440" on="1"/>
      </contour>
    </TTGlyph>
    <TTGlyph name="caron.uc" xMin="0" yMin="1445" xMax="662" yMax="1704">
      <contour>
        <pt x="418" y="1445" on="1"/>
        <pt x="254" y="1445" on="1"/>
        <pt x="0" y="1684" on="1"/>
        <pt x="0" y="1704" on="1"/>
        <pt x="104" y="1704" on="1"/>
        <pt x="336" y="1566" on="1"/>
        <pt x="338" y="1566" on="1"/>
        <pt x="557" y="1704" on="1"/>
        <pt x="662" y="1704" on="1"/>
        <pt x="662" y="1684" on="1"/>
      </contour>
    </TTGlyph>
    <TTGlyph name="caroncommaaccent" xMin="475" yMin="1159" xMax="751" yMax="1484">
      <contour>
        <pt x="475" y="1159" on="1"/>
        <pt x="475" y="1192" on="1"/>
        <pt x="554" y="1484" on="1"/>
        <pt x="751" y="1484" on="1"/>
        <pt x="751" y="1447" on="1"/>
        <pt x="580" y="1159" on="1"/>
      </contour>
    </TTGlyph>
    <TTGlyph name="ccaron" xMin="130" yMin="-20" xMax="1080" yMax="1460">
      <component glyphName="c" x="0" y="0" flags="0x204"/>
      <component glyphName="caron" x="-4" y="0" flags="0x4"/>
    </TTGlyph>
    <TTGlyph name="ccedilla" xMin="130" yMin="-444" xMax="1080" yMax="1102">
      <component glyphName="c" x="0" y="0" flags="0x204"/>
      <component glyphName="cedilla" x="337" y="0" flags="0x4"/>
    </TTGlyph>
    <TTGlyph name="ccircumflex" xMin="130" yMin="-20" xMax="1080" yMax="1460">
      <component glyphName="c" x="0" y="0" flags="0x204"/>
      <component glyphName="circumflex" x="0" y="0" flags="0x4"/>
    </TTGlyph>
    <TTGlyph name="cdotaccent" xMin="130" yMin="-20" xMax="1080" yMax="1484">
      <component glyphName="c" x="0" y="0" flags="0x204"/>
      <component glyphName="dotaccent" x="20" y="0" flags="0x4"/>
    </TTGlyph>
    <TTGlyph name="cedilla" xMin="119" yMin="-444" xMax="483" yMax="0">
      <contour>
        <pt x="483" y="-258" on="1"/>
        <pt x="483" y="-444" on="0"/>
        <pt x="209" y="-444" on="1"/>
        <pt x="152" y="-444" on="0"/>
        <pt x="119" y="-440" on="1"/>
        <pt x="119" y="-342" on="1"/>
        <pt x="169" y="-348" on="0"/>
        <pt x="205" y="-348" on="1"/>
        <pt x="352" y="-348" on="0"/>
        <pt x="352" y="-262" on="1"/>
        <pt x="352" y="-222" on="0"/>
        <pt x="291" y="-180" on="0"/>
        <pt x="219" y="-180" on="1"/>
        <pt x="176" y="-180" on="0"/>
        <pt x="162" y="-182" on="1"/>
        <pt x="227" y="0" on="1"/>
        <pt x="334" y="0" on="1"/>
        <pt x="295" y="-100" on="1"/>
        <pt x="389" y="-103" on="0"/>
        <pt x="483" y="-186" on="0"/>
      </contour>
    </TTGlyph>
    <TTGlyph name="cent" xMin="133" yMin="-61" xMax="1094" yMax="1379">
      <contour>
        <pt x="635" y="269" on="1"/>
        <pt x="748" y="269" on="0"/>
        <pt x="895" y="381" on="0"/>
        <pt x="912" y="486" on="1"/>
        <pt x="1094" y="474" on="1"/>
        <pt x="1073" y="332" on="0"/>
        <pt x="859" y="148" on="0"/>
        <pt x="698" y="134" on="1"/>
        <pt x="698" y="-61" on="1"/>
        <pt x="570" y="-61" on="1"/>
        <pt x="570" y="134" on="1"/>
        <pt x="362" y="149" on="0"/>
        <pt x="133" y="424" on="0"/>
        <pt x="133" y="656" on="1"/>
        <pt x="133" y="896" on="0"/>
        <pt x="365" y="1177" on="0"/>
        <pt x="570" y="1195" on="1"/>
        <pt x="570" y="1379" on="1"/>
        <pt x="698" y="1379" on="1"/>
        <pt x="698" y="1195" on="1"/>
        <pt x="855" y="1182" on="0"/>
        <pt x="1059" y="1013" on="0"/>
        <pt x="1088" y="873" on="1"/>
        <pt x="903" y="859" on="1"/>
        <pt x="886" y="950" on="0"/>
        <pt x="755" y="1058" on="0"/>
        <pt x="633" y="1058" on="1"/>
        <pt x="477" y="1058" on="0"/>
        <pt x="316" y="857" on="0"/>
        <pt x="316" y="668" on="1"/>
        <pt x="316" y="470" on="0"/>
        <pt x="484" y="269" on="0"/>
      </contour>
    </TTGlyph>
    <TTGlyph name="chi" xMin="58" yMin="-424" xMax="1166" yMax="1104">
      <contour>
        <pt x="627" y="239" on="1"/>
        <pt x="264" y="-424" on="1"/>
        <pt x="76" y="-424" on="1"/>
        <pt x="546" y="401" on="1"/>
        <pt x="356" y="744" on="1"/>
        <pt x="297" y="851" on="0"/>
        <pt x="203" y="963" on="0"/>
        <pt x="152" y="963" on="1"/>
        <pt x="121" y="963" on="0"/>
        <pt x="92" y="948" on="1"/>
        <pt x="58" y="1079" on="1"/>
        <pt x="113" y="1104" on="0"/>
        <pt x="186" y="1104" on="1"/>
        <pt x="276" y="1104" on="0"/>
        <pt x="400" y="994" on="0"/>
        <pt x="485" y="838" on="1"/>
        <pt x="647" y="543" on="1"/>
        <pt x="941" y="1082" on="1"/>
        <pt x="1128" y="1082" on="1"/>
        <pt x="730" y="385" on="1"/>
        <pt x="1166" y="-424" on="1"/>
        <pt x="976" y="-424" on="1"/>
      </contour>
    </TTGlyph>
    <TTGlyph name="circle" xMin="163" yMin="162" xMax="1066" yMax="1065">
      <contour>
        <pt x="163" y="612" on="1"/>
        <pt x="163" y="734" on="0"/>
        <pt x="283" y="944" on="0"/>
        <pt x="492" y="1065" on="0"/>
        <pt x="613" y="1065" on="1"/>
        <pt x="735" y="1065" on="0"/>
        <pt x="945" y="944" on="0"/>
        <pt x="1066" y="733" on="0"/>
        <pt x="1066" y="612" on="1"/>
        <pt x="1066" y="491" on="0"/>
        <pt x="945" y="282" on="0"/>
        <pt x="736" y="162" on="0"/>
        <pt x="613" y="162" on="1"/>
        <pt x="491" y="162" on="0"/>
        <pt x="283" y="282" on="0"/>
        <pt x="163" y="490" on="0"/>
      </contour>
      <contour>
        <pt x="249" y="612" on="1"/>
        <pt x="249" y="514" on="0"/>
        <pt x="347" y="345" on="0"/>
        <pt x="514" y="248" on="0"/>
        <pt x="613" y="248" on="1"/>
        <pt x="711" y="248" on="0"/>
        <pt x="880" y="344" on="0"/>
        <pt x="980" y="514" on="0"/>
        <pt x="980" y="612" on="1"/>
        <pt x="980" y="710" on="0"/>
        <pt x="882" y="881" on="0"/>
        <pt x="711" y="979" on="0"/>
        <pt x="613" y="979" on="1"/>
        <pt x="516" y="979" on="0"/>
        <pt x="347" y="881" on="0"/>
        <pt x="249" y="712" on="0"/>
      </contour>
    </TTGlyph>
    <TTGlyph name="circumflex" xMin="283" yMin="1201" xMax="945" yMax="1460">
      <contour>
        <pt x="945" y="1221" on="1"/>
        <pt x="945" y="1201" on="1"/>
        <pt x="840" y="1201" on="1"/>
        <pt x="621" y="1339" on="1"/>
        <pt x="619" y="1339" on="1"/>
        <pt x="387" y="1201" on="1"/>
        <pt x="283" y="1201" on="1"/>
        <pt x="283" y="1221" on="1"/>
        <pt x="537" y="1460" on="1"/>
        <pt x="701" y="1460" on="1"/>
      </contour>
    </TTGlyph>
    <TTGlyph name="circumflex.uc" xMin="0" yMin="1445" xMax="662" yMax="1704">
      <contour>
        <pt x="662" y="1465" on="1"/>
        <pt x="662" y="1445" on="1"/>
        <pt x="557" y="1445" on="1"/>
        <pt x="338" y="1583" on="1"/>
        <pt x="336" y="1583" on="1"/>
        <pt x="104" y="1445" on="1"/>
        <pt x="0" y="1445" on="1"/>
        <pt x="0" y="1465" on="1"/>
        <pt x="254" y="1704" on="1"/>
        <pt x="418" y="1704" on="1"/>
      </contour>
    </TTGlyph>
    <TTGlyph name="circumflexacute" xMin="-429" yMin="1445" xMax="429" yMax="1818">
      <contour>
        <pt x="212" y="1818" on="1"/>
        <pt x="429" y="1818" on="1"/>
        <pt x="429" y="1806" on="1"/>
        <pt x="203" y="1630" on="1"/>
        <pt x="107" y="1630" on="1"/>
        <pt x="107" y="1640" on="1"/>
      </contour>
      <contour>
        <pt x="223" y="1465" on="1"/>
        <pt x="223" y="1445" on="1"/>
        <pt x="118" y="1445" on="1"/>
        <pt x="-101" y="1614" on="1"/>
        <pt x="-103" y="1614" on="1"/>
        <pt x="-325" y="1445" on="1"/>
        <pt x="-429" y="1445" on="1"/>
        <pt x="-429" y="1465" on="1"/>
        <pt x="-205" y="1735" on="1"/>
        <pt x="-1" y="1735" on="1"/>
      </contour>
    </TTGlyph>
    <TTGlyph name="circumflexacute.lc" xMin="-429" yMin="1201" xMax="429" yMax="1574">
      <contour>
        <pt x="212" y="1574" on="1"/>
        <pt x="429" y="1574" on="1"/>
        <pt x="429" y="1562" on="1"/>
        <pt x="203" y="1386" on="1"/>
        <pt x="107" y="1386" on="1"/>
        <pt x="107" y="1396" on="1"/>
      </contour>
      <contour>
        <pt x="223" y="1221" on="1"/>
        <pt x="223" y="1201" on="1"/>
        <pt x="118" y="1201" on="1"/>
        <pt x="-101" y="1370" on="1"/>
        <pt x="-103" y="1370" on="1"/>
        <pt x="-325" y="1201" on="1"/>
        <pt x="-429" y="1201" on="1"/>
        <pt x="-429" y="1221" on="1"/>
        <pt x="-205" y="1491" on="1"/>
        <pt x="-1" y="1491" on="1"/>
      </contour>
    </TTGlyph>
    <TTGlyph name="circumflexgrave" xMin="-427" yMin="1445" xMax="428" yMax="1818">
      <contour>
        <pt x="-105" y="1640" on="1"/>
        <pt x="-105" y="1630" on="1"/>
        <pt x="-201" y="1630" on="1"/>
        <pt x="-427" y="1806" on="1"/>
        <pt x="-427" y="1818" on="1"/>
        <pt x="-210" y="1818" on="1"/>
      </contour>
      <contour>
        <pt x="428" y="1465" on="1"/>
        <pt x="428" y="1445" on="1"/>
        <pt x="323" y="1445" on="1"/>
        <pt x="104" y="1614" on="1"/>
        <pt x="102" y="1614" on="1"/>
        <pt x="-120" y="1445" on="1"/>
        <pt x="-224" y="1445" on="1"/>
        <pt x="-224" y="1465" on="1"/>
        <pt x="0" y="1735" on="1"/>
        <pt x="204" y="1735" on="1"/>
      </contour>
    </TTGlyph>
    <TTGlyph name="circumflexgrave.lc" xMin="-429" yMin="1201" xMax="429" yMax="1574">
      <contour>
        <pt x="-107" y="1396" on="1"/>
        <pt x="-107" y="1386" on="1"/>
        <pt x="-203" y="1386" on="1"/>
        <pt x="-429" y="1562" on="1"/>
        <pt x="-429" y="1574" on="1"/>
        <pt x="-212" y="1574" on="1"/>
      </contour>
      <contour>
        <pt x="1" y="1491" on="1"/>
        <pt x="205" y="1491" on="1"/>
        <pt x="429" y="1221" on="1"/>
        <pt x="429" y="1201" on="1"/>
        <pt x="325" y="1201" on="1"/>
        <pt x="103" y="1370" on="1"/>
        <pt x="101" y="1370" on="1"/>
        <pt x="-118" y="1201" on="1"/>
        <pt x="-223" y="1201" on="1"/>
        <pt x="-223" y="1221" on="1"/>
      </contour>
    </TTGlyph>
    <TTGlyph name="circumflexhook" xMin="-388" yMin="1445" xMax="388" yMax="1818">
      <contour>
        <pt x="281" y="1715" on="1"/>
        <pt x="281" y="1750" on="0"/>
        <pt x="222" y="1750" on="1"/>
        <pt x="171" y="1750" on="0"/>
        <pt x="131" y="1734" on="1"/>
        <pt x="111" y="1798" on="1"/>
        <pt x="169" y="1818" on="0"/>
        <pt x="236" y="1818" on="1"/>
        <pt x="388" y="1818" on="0"/>
        <pt x="388" y="1722" on="1"/>
        <pt x="388" y="1678" on="0"/>
        <pt x="321" y="1622" on="0"/>
        <pt x="267" y="1622" on="1"/>
        <pt x="267" y="1599" on="1"/>
        <pt x="206" y="1599" on="1"/>
        <pt x="206" y="1677" on="1"/>
        <pt x="281" y="1677" on="0"/>
      </contour>
      <contour>
        <pt x="264" y="1465" on="1"/>
        <pt x="264" y="1445" on="1"/>
        <pt x="159" y="1445" on="1"/>
        <pt x="-60" y="1614" on="1"/>
        <pt x="-62" y="1614" on="1"/>
        <pt x="-284" y="1445" on="1"/>
        <pt x="-388" y="1445" on="1"/>
        <pt x="-388" y="1465" on="1"/>
        <pt x="-164" y="1735" on="1"/>
        <pt x="40" y="1735" on="1"/>
      </contour>
    </TTGlyph>
    <TTGlyph name="circumflexhook.lc" xMin="-404" yMin="1201" xMax="405" yMax="1653">
      <contour>
        <pt x="270" y="1524" on="1"/>
        <pt x="270" y="1568" on="0"/>
        <pt x="194" y="1568" on="1"/>
        <pt x="133" y="1568" on="0"/>
        <pt x="80" y="1549" on="1"/>
        <pt x="54" y="1629" on="1"/>
        <pt x="124" y="1653" on="0"/>
        <pt x="213" y="1653" on="1"/>
        <pt x="405" y="1653" on="0"/>
        <pt x="405" y="1541" on="1"/>
        <pt x="405" y="1493" on="0"/>
        <pt x="339" y="1424" on="0"/>
        <pt x="266" y="1415" on="1"/>
        <pt x="266" y="1377" on="1"/>
        <pt x="175" y="1377" on="1"/>
        <pt x="175" y="1471" on="1"/>
        <pt x="217" y="1473" on="0"/>
        <pt x="270" y="1491" on="0"/>
      </contour>
      <contour>
        <pt x="248" y="1221" on="1"/>
        <pt x="248" y="1201" on="1"/>
        <pt x="143" y="1201" on="1"/>
        <pt x="-76" y="1370" on="1"/>
        <pt x="-78" y="1370" on="1"/>
        <pt x="-300" y="1201" on="1"/>
        <pt x="-404" y="1201" on="1"/>
        <pt x="-404" y="1221" on="1"/>
        <pt x="-180" y="1491" on="1"/>
        <pt x="24" y="1491" on="1"/>
      </contour>
    </TTGlyph>
    <TTGlyph name="circumflextilde" xMin="-318" yMin="1445" xMax="319" yMax="1818">
      <contour>
        <pt x="127" y="1624" on="1"/>
        <pt x="76" y="1624" on="0"/>
        <pt x="-8" y="1662" on="1"/>
        <pt x="-93" y="1699" on="0"/>
        <pt x="-129" y="1699" on="1"/>
        <pt x="-174" y="1699" on="0"/>
        <pt x="-219" y="1664" on="0"/>
        <pt x="-227" y="1624" on="1"/>
        <pt x="-318" y="1624" on="1"/>
        <pt x="-307" y="1706" on="0"/>
        <pt x="-264" y="1778" on="0"/>
        <pt x="-188" y="1818" on="0"/>
        <pt x="-125" y="1818" on="1"/>
        <pt x="-70" y="1818" on="0"/>
        <pt x="13" y="1781" on="1"/>
        <pt x="96" y="1743" on="0"/>
        <pt x="130" y="1743" on="1"/>
        <pt x="178" y="1743" on="0"/>
        <pt x="221" y="1781" on="0"/>
        <pt x="227" y="1818" on="1"/>
        <pt x="319" y="1818" on="1"/>
        <pt x="307" y="1737" on="0"/>
        <pt x="265" y="1663" on="0"/>
        <pt x="190" y="1624" on="0"/>
      </contour>
      <contour>
        <pt x="1" y="1512" on="1"/>
        <pt x="-150" y="1445" on="1"/>
        <pt x="-305" y="1445" on="1"/>
        <pt x="-305" y="1457" on="1"/>
        <pt x="-96" y="1598" on="1"/>
        <pt x="99" y="1598" on="1"/>
        <pt x="307" y="1455" on="1"/>
        <pt x="307" y="1445" on="1"/>
        <pt x="152" y="1445" on="1"/>
      </contour>
    </TTGlyph>
    <TTGlyph name="circumflextilde.lc" xMin="-328" yMin="1201" xMax="329" yMax="1775">
      <contour>
        <pt x="-99" y="1491" on="1"/>
        <pt x="105" y="1491" on="1"/>
        <pt x="329" y="1221" on="1"/>
        <pt x="329" y="1201" on="1"/>
        <pt x="225" y="1201" on="1"/>
        <pt x="3" y="1370" on="1"/>
        <pt x="1" y="1370" on="1"/>
        <pt x="-218" y="1201" on="1"/>
        <pt x="-323" y="1201" on="1"/>
        <pt x="-323" y="1221" on="1"/>
      </contour>
      <contour>
        <pt x="117" y="1581" on="1"/>
        <pt x="66" y="1581" on="0"/>
        <pt x="-18" y="1619" on="1"/>
        <pt x="-103" y="1656" on="0"/>
        <pt x="-139" y="1656" on="1"/>
        <pt x="-184" y="1656" on="0"/>
        <pt x="-229" y="1621" on="0"/>
        <pt x="-237" y="1581" on="1"/>
        <pt x="-328" y="1581" on="1"/>
        <pt x="-317" y="1663" on="0"/>
        <pt x="-274" y="1735" on="0"/>
        <pt x="-198" y="1775" on="0"/>
        <pt x="-135" y="1775" on="1"/>
        <pt x="-80" y="1775" on="0"/>
        <pt x="3" y="1738" on="1"/>
        <pt x="86" y="1700" on="0"/>
        <pt x="120" y="1700" on="1"/>
        <pt x="168" y="1700" on="0"/>
        <pt x="211" y="1738" on="0"/>
        <pt x="217" y="1775" on="1"/>
        <pt x="309" y="1775" on="1"/>
        <pt x="297" y="1694" on="0"/>
        <pt x="255" y="1620" on="0"/>
        <pt x="180" y="1581" on="0"/>
      </contour>
    </TTGlyph>
    <TTGlyph name="club" xMin="97" yMin="0" xMax="1131" yMax="1195">
      <contour>
        <pt x="614" y="1195" on="1"/>
        <pt x="699" y="1195" on="0"/>
        <pt x="823" y="1134" on="0"/>
        <pt x="891" y="1025" on="0"/>
        <pt x="891" y="961" on="1"/>
        <pt x="891" y="894" on="0"/>
        <pt x="824" y="761" on="0"/>
        <pt x="773" y="725" on="1"/>
        <pt x="828" y="728" on="1"/>
        <pt x="963" y="728" on="0"/>
        <pt x="1131" y="591" on="0"/>
        <pt x="1131" y="478" on="1"/>
        <pt x="1131" y="370" on="0"/>
        <pt x="995" y="240" on="0"/>
        <pt x="896" y="240" on="1"/>
        <pt x="835" y="240" on="0"/>
        <pt x="699" y="299" on="0"/>
        <pt x="662" y="340" on="1"/>
        <pt x="662" y="207" on="0"/>
        <pt x="837" y="56" on="0"/>
        <pt x="982" y="56" on="1"/>
        <pt x="982" y="0" on="1"/>
        <pt x="246" y="0" on="1"/>
        <pt x="246" y="56" on="1"/>
        <pt x="391" y="56" on="0"/>
        <pt x="566" y="207" on="0"/>
        <pt x="566" y="340" on="1"/>
        <pt x="530" y="299" on="0"/>
        <pt x="395" y="240" on="0"/>
        <pt x="332" y="240" on="1"/>
        <pt x="232" y="240" on="0"/>
        <pt x="97" y="370" on="0"/>
        <pt x="97" y="478" on="1"/>
        <pt x="97" y="592" on="0"/>
        <pt x="265" y="728" on="0"/>
        <pt x="400" y="728" on="1"/>
        <pt x="455" y="725" on="1"/>
        <pt x="404" y="761" on="0"/>
        <pt x="337" y="894" on="0"/>
        <pt x="337" y="961" on="1"/>
        <pt x="337" y="1025" on="0"/>
        <pt x="405" y="1134" on="0"/>
        <pt x="529" y="1195" on="0"/>
      </contour>
    </TTGlyph>
    <TTGlyph name="colon" xMin="496" yMin="0" xMax="731" yMax="1082">
      <contour>
        <pt x="496" y="0" on="1"/>
        <pt x="496" y="299" on="1"/>
        <pt x="731" y="299" on="1"/>
        <pt x="731" y="0" on="1"/>
      </contour>
      <contour>
        <pt x="496" y="783" on="1"/>
        <pt x="496" y="1082" on="1"/>
        <pt x="731" y="1082" on="1"/>
        <pt x="731" y="783" on="1"/>
      </contour>
    </TTGlyph>
    <TTGlyph name="comma" xMin="259" yMin="-363" xMax="693" yMax="299">
      <contour>
        <pt x="259" y="-363" on="1"/>
        <pt x="428" y="299" on="1"/>
        <pt x="693" y="299" on="1"/>
        <pt x="382" y="-363" on="1"/>
      </contour>
    </TTGlyph>
    <TTGlyph name="commaaccentrotate" xMin="475" yMin="1211" xMax="751" yMax="1536">
      <contour>
        <pt x="751" y="1536" on="1"/>
        <pt x="751" y="1503" on="1"/>
        <pt x="672" y="1211" on="1"/>
        <pt x="475" y="1211" on="1"/>
        <pt x="475" y="1248" on="1"/>
        <pt x="646" y="1536" on="1"/>
      </contour>
    </TTGlyph>
    <TTGlyph name="copyright" xMin="31" yMin="38" xMax="1197" yMax="1484">
      <contour>
        <pt x="398" y="763" on="1"/>
        <pt x="398" y="610" on="0"/>
        <pt x="516" y="437" on="0"/>
        <pt x="622" y="437" on="1"/>
        <pt x="687" y="437" on="0"/>
        <pt x="783" y="511" on="0"/>
        <pt x="818" y="593" on="1"/>
        <pt x="933" y="558" on="1"/>
        <pt x="881" y="440" on="0"/>
        <pt x="728" y="333" on="0"/>
        <pt x="622" y="333" on="1"/>
        <pt x="454" y="333" on="0"/>
        <pt x="269" y="560" on="0"/>
        <pt x="269" y="763" on="1"/>
        <pt x="269" y="965" on="0"/>
        <pt x="447" y="1187" on="0"/>
        <pt x="615" y="1187" on="1"/>
        <pt x="832" y="1187" on="0"/>
        <pt x="918" y="978" on="1"/>
        <pt x="804" y="945" on="1"/>
        <pt x="778" y="1012" on="0"/>
        <pt x="681" y="1082" on="0"/>
        <pt x="617" y="1082" on="1"/>
        <pt x="510" y="1082" on="0"/>
        <pt x="398" y="921" on="0"/>
      </contour>
      <contour>
        <pt x="1197" y="761" on="1"/>
        <pt x="1197" y="534" on="0"/>
        <pt x="1055" y="207" on="0"/>
        <pt x="791" y="38" on="0"/>
        <pt x="614" y="38" on="1"/>
        <pt x="437" y="38" on="0"/>
        <pt x="174" y="209" on="0"/>
        <pt x="31" y="535" on="0"/>
        <pt x="31" y="761" on="1"/>
        <pt x="31" y="987" on="0"/>
        <pt x="173" y="1313" on="0"/>
        <pt x="438" y="1484" on="0"/>
        <pt x="614" y="1484" on="1"/>
        <pt x="790" y="1484" on="0"/>
        <pt x="1055" y="1314" on="0"/>
        <pt x="1197" y="989" on="0"/>
      </contour>
      <contour>
        <pt x="1105" y="761" on="1"/>
        <pt x="1105" y="1062" on="0"/>
        <pt x="845" y="1389" on="0"/>
        <pt x="614" y="1389" on="1"/>
        <pt x="463" y="1389" on="0"/>
        <pt x="244" y="1244" on="0"/>
        <pt x="126" y="961" on="0"/>
        <pt x="126" y="761" on="1"/>
        <pt x="126" y="462" on="0"/>
        <pt x="381" y="132" on="0"/>
        <pt x="614" y="132" on="1"/>
        <pt x="847" y="132" on="0"/>
        <pt x="1105" y="460" on="0"/>
      </contour>
    </TTGlyph>
    <TTGlyph name="currency" xMin="158" yMin="225" xMax="1071" yMax="1139">
      <contour>
        <pt x="182" y="684" on="1"/>
        <pt x="182" y="822" on="0"/>
        <pt x="260" y="936" on="1"/>
        <pt x="160" y="1036" on="1"/>
        <pt x="264" y="1139" on="1"/>
        <pt x="363" y="1038" on="1"/>
        <pt x="477" y="1120" on="0"/>
        <pt x="617" y="1120" on="1"/>
        <pt x="754" y="1120" on="0"/>
        <pt x="868" y="1040" on="1"/>
        <pt x="965" y="1137" on="1"/>
        <pt x="1069" y="1032" on="1"/>
        <pt x="973" y="936" on="1"/>
        <pt x="1053" y="819" on="0"/>
        <pt x="1053" y="684" on="1"/>
        <pt x="1053" y="546" on="0"/>
        <pt x="971" y="432" on="1"/>
        <pt x="1071" y="332" on="1"/>
        <pt x="969" y="227" on="1"/>
        <pt x="868" y="328" on="1"/>
        <pt x="754" y="250" on="0"/>
        <pt x="617" y="250" on="1"/>
        <pt x="474" y="250" on="0"/>
        <pt x="365" y="330" on="1"/>
        <pt x="260" y="225" on="1"/>
        <pt x="158" y="330" on="1"/>
        <pt x="260" y="432" on="1"/>
        <pt x="182" y="546" on="0"/>
      </contour>
      <contour>
        <pt x="336" y="686" on="1"/>
        <pt x="336" y="572" on="0"/>
        <pt x="500" y="406" on="0"/>
        <pt x="617" y="406" on="1"/>
        <pt x="731" y="406" on="0"/>
        <pt x="897" y="568" on="0"/>
        <pt x="897" y="686" on="1"/>
        <pt x="897" y="802" on="0"/>
        <pt x="732" y="967" on="0"/>
        <pt x="617" y="967" on="1"/>
        <pt x="500" y="967" on="0"/>
        <pt x="336" y="800" on="0"/>
      </contour>
    </TTGlyph>
    <TTGlyph name="cyrillic_otmark" xMin="-457" yMin="1214" xMax="457" yMax="1409">
      <contour>
        <pt x="457" y="1409" on="1"/>
        <pt x="367" y="1214" on="1"/>
        <pt x="327" y="1214" on="1"/>
        <pt x="280" y="1315" on="1"/>
        <pt x="67" y="1315" on="1"/>
        <pt x="20" y="1214" on="1"/>
        <pt x="-20" y="1214" on="1"/>
        <pt x="-67" y="1315" on="1"/>
        <pt x="-280" y="1315" on="1"/>
        <pt x="-327" y="1214" on="1"/>
        <pt x="-367" y="1214" on="1"/>
        <pt x="-457" y="1409" on="1"/>
      </contour>
    </TTGlyph>
    <TTGlyph name="cyrillicbreve" xMin="261" yMin="1200" xMax="995" yMax="1460">
      <contour>
        <pt x="628" y="1200" on="1"/>
        <pt x="270" y="1200" on="0"/>
        <pt x="261" y="1460" on="1"/>
        <pt x="425" y="1460" on="1"/>
        <pt x="430" y="1383" on="0"/>
        <pt x="522" y="1311" on="0"/>
        <pt x="628" y="1311" on="1"/>
        <pt x="733" y="1311" on="0"/>
        <pt x="826" y="1383" on="0"/>
        <pt x="831" y="1460" on="1"/>
        <pt x="995" y="1460" on="1"/>
        <pt x="986" y="1200" on="0"/>
      </contour>
    </TTGlyph>
    <TTGlyph name="d" xMin="138" yMin="-26" xMax="1049" yMax="1484">
      <contour>
        <pt x="862" y="174" on="1"/>
        <pt x="813" y="69" on="0"/>
        <pt x="651" y="-26" on="0"/>
        <pt x="530" y="-26" on="1"/>
        <pt x="328" y="-26" on="0"/>
        <pt x="138" y="252" on="0"/>
        <pt x="138" y="532" on="1"/>
        <pt x="138" y="1098" on="0"/>
        <pt x="530" y="1098" on="1"/>
        <pt x="651" y="1098" on="0"/>
        <pt x="814" y="1012" on="0"/>
        <pt x="863" y="914" on="1"/>
        <pt x="865" y="914" on="1"/>
        <pt x="863" y="1065" on="1"/>
        <pt x="863" y="1484" on="1"/>
        <pt x="1043" y="1484" on="1"/>
        <pt x="1043" y="223" on="1"/>
        <pt x="1043" y="54" on="0"/>
        <pt x="1049" y="0" on="1"/>
        <pt x="877" y="0" on="1"/>
        <pt x="873" y="15" on="0"/>
        <pt x="867" y="131" on="0"/>
        <pt x="867" y="174" on="1"/>
      </contour>
      <contour>
        <pt x="324" y="538" on="1"/>
        <pt x="324" y="316" on="0"/>
        <pt x="443" y="113" on="0"/>
        <pt x="577" y="113" on="1"/>
        <pt x="723" y="113" on="0"/>
        <pt x="863" y="324" on="0"/>
        <pt x="863" y="554" on="1"/>
        <pt x="863" y="769" on="0"/>
        <pt x="728" y="965" on="0"/>
        <pt x="579" y="965" on="1"/>
        <pt x="444" y="965" on="0"/>
        <pt x="324" y="759" on="0"/>
      </contour>
    </TTGlyph>
    <TTGlyph name="dagesh" xMin="535" yMin="625" xMax="694" yMax="782">
      <contour>
        <pt x="535" y="702" on="1"/>
        <pt x="535" y="737" on="0"/>
        <pt x="582" y="782" on="0"/>
        <pt x="614" y="782" on="1"/>
        <pt x="646" y="782" on="0"/>
        <pt x="694" y="737" on="0"/>
        <pt x="694" y="702" on="1"/>
        <pt x="694" y="670" on="0"/>
        <pt x="646" y="625" on="0"/>
        <pt x="614" y="625" on="1"/>
        <pt x="582" y="625" on="0"/>
        <pt x="535" y="670" on="0"/>
      </contour>
    </TTGlyph>
    <TTGlyph name="dagger" xMin="182" yMin="-213" xMax="1046" yMax="1483">
      <contour>
        <pt x="685" y="989" on="1"/>
        <pt x="671" y="-213" on="1"/>
        <pt x="556" y="-213" on="1"/>
        <pt x="542" y="989" on="1"/>
        <pt x="182" y="972" on="1"/>
        <pt x="182" y="1136" on="1"/>
        <pt x="542" y="1117" on="1"/>
        <pt x="516" y="1483" on="1"/>
        <pt x="711" y="1483" on="1"/>
        <pt x="685" y="1117" on="1"/>
        <pt x="1046" y="1136" on="1"/>
        <pt x="1046" y="972" on="1"/>
      </contour>
    </TTGlyph>
    <TTGlyph name="daggerdbl" xMin="182" yMin="-213" xMax="1046" yMax="1483">
      <contour>
        <pt x="1046" y="298" on="1"/>
        <pt x="1046" y="134" on="1"/>
        <pt x="685" y="153" on="1"/>
        <pt x="711" y="-213" on="1"/>
        <pt x="516" y="-213" on="1"/>
        <pt x="542" y="153" on="1"/>
        <pt x="182" y="134" on="1"/>
        <pt x="182" y="298" on="1"/>
        <pt x="542" y="281" on="1"/>
        <pt x="576" y="635" on="1"/>
        <pt x="542" y="989" on="1"/>
        <pt x="182" y="972" on="1"/>
        <pt x="182" y="1136" on="1"/>
        <pt x="542" y="1117" on="1"/>
        <pt x="516" y="1483" on="1"/>
        <pt x="711" y="1483" on="1"/>
        <pt x="685" y="1117" on="1"/>
        <pt x="1046" y="1136" on="1"/>
        <pt x="1046" y="972" on="1"/>
        <pt x="685" y="989" on="1"/>
        <pt x="651" y="635" on="1"/>
        <pt x="685" y="281" on="1"/>
      </contour>
    </TTGlyph>
    <TTGlyph name="dalet" xMin="55" yMin="0" xMax="1094" yMax="1227">
      <contour>
        <pt x="940" y="0" on="1"/>
        <pt x="756" y="0" on="1"/>
        <pt x="756" y="1057" on="1"/>
        <pt x="55" y="1057" on="1"/>
        <pt x="55" y="1227" on="1"/>
        <pt x="1094" y="1227" on="1"/>
        <pt x="1094" y="1057" on="1"/>
        <pt x="940" y="1057" on="1"/>
      </contour>
    </TTGlyph>
    <TTGlyph name="daletdagesh" xMin="55" yMin="0" xMax="1094" yMax="1227">
      <component glyphName="dalet" x="0" y="0" flags="0x204"/>
      <component glyphName="dagesh" x="-216" y="-153" flags="0x4"/>
    </TTGlyph>
    <TTGlyph name="daletwide" xMin="55" yMin="0" xMax="1094" yMax="1227">
      <component glyphName="dalet" x="0" y="0" flags="0x204"/>
    </TTGlyph>
    <TTGlyph name="dcaron" xMin="31" yMin="-26" xMax="1231" yMax="1484">
      <contour>
        <pt x="663" y="174" on="1"/>
        <pt x="614" y="69" on="0"/>
        <pt x="481" y="-26" on="0"/>
        <pt x="384" y="-26" on="1"/>
        <pt x="214" y="-26" on="0"/>
        <pt x="31" y="265" on="0"/>
        <pt x="31" y="532" on="1"/>
        <pt x="31" y="801" on="0"/>
        <pt x="219" y="1098" on="0"/>
        <pt x="384" y="1098" on="1"/>
        <pt x="482" y="1098" on="0"/>
        <pt x="614" y="1012" on="0"/>
        <pt x="663" y="914" on="1"/>
        <pt x="665" y="914" on="1"/>
        <pt x="663" y="1065" on="1"/>
        <pt x="663" y="1484" on="1"/>
        <pt x="843" y="1484" on="1"/>
        <pt x="843" y="223" on="1"/>
        <pt x="843" y="54" on="0"/>
        <pt x="849" y="0" on="1"/>
        <pt x="677" y="0" on="1"/>
        <pt x="673" y="15" on="0"/>
        <pt x="667" y="131" on="0"/>
        <pt x="667" y="174" on="1"/>
      </contour>
      <contour>
        <pt x="217" y="538" on="1"/>
        <pt x="217" y="321" on="0"/>
        <pt x="310" y="113" on="0"/>
        <pt x="415" y="113" on="1"/>
        <pt x="526" y="113" on="0"/>
        <pt x="663" y="353" on="0"/>
        <pt x="663" y="554" on="1"/>
        <pt x="663" y="743" on="0"/>
        <pt x="530" y="965" on="0"/>
        <pt x="416" y="965" on="1"/>
        <pt x="313" y="965" on="0"/>
        <pt x="217" y="757" on="0"/>
      </contour>
      <contour>
        <pt x="955" y="1159" on="1"/>
        <pt x="955" y="1192" on="1"/>
        <pt x="1034" y="1484" on="1"/>
        <pt x="1231" y="1484" on="1"/>
        <pt x="1231" y="1447" on="1"/>
        <pt x="1060" y="1159" on="1"/>
      </contour>
    </TTGlyph>
    <TTGlyph name="dcroat" xMin="138" yMin="-26" xMax="1174" yMax="1484">
      <contour>
        <pt x="1043" y="1196" on="1"/>
        <pt x="1043" y="223" on="1"/>
        <pt x="1043" y="54" on="0"/>
        <pt x="1049" y="0" on="1"/>
        <pt x="877" y="0" on="1"/>
        <pt x="873" y="15" on="0"/>
        <pt x="867" y="131" on="0"/>
        <pt x="867" y="174" on="1"/>
        <pt x="862" y="174" on="1"/>
        <pt x="813" y="69" on="0"/>
        <pt x="651" y="-26" on="0"/>
        <pt x="530" y="-26" on="1"/>
        <pt x="328" y="-26" on="0"/>
        <pt x="138" y="245" on="0"/>
        <pt x="138" y="517" on="1"/>
        <pt x="138" y="1072" on="0"/>
        <pt x="530" y="1072" on="1"/>
        <pt x="651" y="1072" on="0"/>
        <pt x="814" y="986" on="0"/>
        <pt x="863" y="888" on="1"/>
        <pt x="865" y="888" on="1"/>
        <pt x="863" y="1039" on="1"/>
        <pt x="863" y="1196" on="1"/>
        <pt x="563" y="1196" on="1"/>
        <pt x="563" y="1327" on="1"/>
        <pt x="863" y="1327" on="1"/>
        <pt x="863" y="1484" on="1"/>
        <pt x="1043" y="1484" on="1"/>
        <pt x="1043" y="1327" on="1"/>
        <pt x="1174" y="1327" on="1"/>
        <pt x="1174" y="1196" on="1"/>
      </contour>
      <contour>
        <pt x="324" y="523" on="1"/>
        <pt x="324" y="308" on="0"/>
        <pt x="442" y="113" on="0"/>
        <pt x="577" y="113" on="1"/>
        <pt x="724" y="113" on="0"/>
        <pt x="863" y="319" on="0"/>
        <pt x="863" y="538" on="1"/>
        <pt x="863" y="745" on="0"/>
        <pt x="730" y="939" on="0"/>
        <pt x="579" y="939" on="1"/>
        <pt x="445" y="939" on="0"/>
        <pt x="324" y="736" on="0"/>
      </contour>
    </TTGlyph>
    <TTGlyph name="degree" xMin="327" yMin="800" xMax="901" yMax="1370">
      <contour>
        <pt x="901" y="1085" on="1"/>
        <pt x="901" y="966" on="0"/>
        <pt x="732" y="800" on="0"/>
        <pt x="614" y="800" on="1"/>
        <pt x="496" y="800" on="0"/>
        <pt x="327" y="968" on="0"/>
        <pt x="327" y="1085" on="1"/>
        <pt x="327" y="1202" on="0"/>
        <pt x="494" y="1370" on="0"/>
        <pt x="614" y="1370" on="1"/>
        <pt x="734" y="1370" on="0"/>
        <pt x="901" y="1204" on="0"/>
      </contour>
      <contour>
        <pt x="792" y="1085" on="1"/>
        <pt x="792" y="1161" on="0"/>
        <pt x="689" y="1265" on="0"/>
        <pt x="614" y="1265" on="1"/>
        <pt x="539" y="1265" on="0"/>
        <pt x="436" y="1159" on="0"/>
        <pt x="436" y="1085" on="1"/>
        <pt x="436" y="1011" on="0"/>
        <pt x="541" y="905" on="0"/>
        <pt x="614" y="905" on="1"/>
        <pt x="688" y="905" on="0"/>
        <pt x="792" y="1010" on="0"/>
      </contour>
    </TTGlyph>
    <TTGlyph name="delta" xMin="112" yMin="-20" xMax="1109" yMax="1484">
      <contour>
        <pt x="920" y="471" on="1"/>
        <pt x="920" y="557" on="0"/>
        <pt x="864" y="705" on="0"/>
        <pt x="783" y="827" on="0"/>
        <pt x="685" y="929" on="1"/>
        <pt x="501" y="864" on="0"/>
        <pt x="301" y="624" on="0"/>
        <pt x="301" y="471" on="1"/>
        <pt x="301" y="308" on="0"/>
        <pt x="468" y="113" on="0"/>
        <pt x="612" y="113" on="1"/>
        <pt x="759" y="113" on="0"/>
        <pt x="920" y="297" on="0"/>
      </contour>
      <contour>
        <pt x="648" y="1341" on="1"/>
        <pt x="494" y="1349" on="1"/>
        <pt x="810" y="1036" on="1"/>
        <pt x="938" y="910" on="0"/>
        <pt x="1049" y="751" on="0"/>
        <pt x="1109" y="579" on="0"/>
        <pt x="1109" y="475" on="1"/>
        <pt x="1109" y="253" on="0"/>
        <pt x="841" y="-20" on="0"/>
        <pt x="612" y="-20" on="1"/>
        <pt x="382" y="-20" on="0"/>
        <pt x="112" y="245" on="0"/>
        <pt x="112" y="473" on="1"/>
        <pt x="112" y="662" on="0"/>
        <pt x="354" y="944" on="0"/>
        <pt x="592" y="1026" on="1"/>
        <pt x="273" y="1354" on="1"/>
        <pt x="273" y="1484" on="1"/>
        <pt x="1021" y="1484" on="1"/>
        <pt x="1021" y="1341" on="1"/>
      </contour>
    </TTGlyph>
    <TTGlyph name="diamond" xMin="132" yMin="-1" xMax="1096" yMax="1198">
      <contour>
        <pt x="132" y="597" on="1"/>
        <pt x="132" y="600" on="1"/>
        <pt x="381" y="884" on="0"/>
        <pt x="608" y="1198" on="1"/>
        <pt x="620" y="1198" on="1"/>
        <pt x="847" y="884" on="0"/>
        <pt x="1096" y="600" on="1"/>
        <pt x="1096" y="597" on="1"/>
        <pt x="847" y="313" on="0"/>
        <pt x="620" y="-1" on="1"/>
        <pt x="608" y="-1" on="1"/>
        <pt x="381" y="313" on="0"/>
      </contour>
    </TTGlyph>
    <TTGlyph name="dieresis" xMin="335" yMin="1219" xMax="892" yMax="1403">
      <contour>
        <pt x="729" y="1219" on="1"/>
        <pt x="729" y="1403" on="1"/>
        <pt x="892" y="1403" on="1"/>
        <pt x="892" y="1219" on="1"/>
      </contour>
      <contour>
        <pt x="335" y="1219" on="1"/>
        <pt x="335" y="1403" on="1"/>
        <pt x="500" y="1403" on="1"/>
        <pt x="500" y="1219" on="1"/>
      </contour>
    </TTGlyph>
    <TTGlyph name="dieresis.uc" xMin="45" yMin="1486" xMax="602" yMax="1670">
      <contour>
        <pt x="439" y="1486" on="1"/>
        <pt x="439" y="1670" on="1"/>
        <pt x="602" y="1670" on="1"/>
        <pt x="602" y="1486" on="1"/>
      </contour>
      <contour>
        <pt x="45" y="1486" on="1"/>
        <pt x="45" y="1670" on="1"/>
        <pt x="210" y="1670" on="1"/>
        <pt x="210" y="1486" on="1"/>
      </contour>
    </TTGlyph>
    <TTGlyph name="dieresistonos" xMin="311" yMin="1201" xMax="918" yMax="1601">
      <contour>
        <pt x="521" y="1201" on="1"/>
        <pt x="521" y="1234" on="1"/>
        <pt x="575" y="1601" on="1"/>
        <pt x="772" y="1601" on="1"/>
        <pt x="772" y="1564" on="1"/>
        <pt x="626" y="1201" on="1"/>
      </contour>
      <contour>
        <pt x="775" y="1219" on="1"/>
        <pt x="775" y="1403" on="1"/>
        <pt x="918" y="1403" on="1"/>
        <pt x="918" y="1219" on="1"/>
      </contour>
      <contour>
        <pt x="311" y="1219" on="1"/>
        <pt x="311" y="1403" on="1"/>
        <pt x="456" y="1403" on="1"/>
        <pt x="456" y="1219" on="1"/>
      </contour>
    </TTGlyph>
    <TTGlyph name="divide" xMin="116" yMin="223" xMax="1111" yMax="1141">
      <contour>
        <pt x="529" y="958" on="1"/>
        <pt x="529" y="1141" on="1"/>
        <pt x="697" y="1141" on="1"/>
        <pt x="697" y="958" on="1"/>
      </contour>
      <contour>
        <pt x="116" y="608" on="1"/>
        <pt x="116" y="754" on="1"/>
        <pt x="1111" y="754" on="1"/>
        <pt x="1111" y="608" on="1"/>
      </contour>
      <contour>
        <pt x="529" y="223" on="1"/>
        <pt x="529" y="406" on="1"/>
        <pt x="697" y="406" on="1"/>
        <pt x="697" y="223" on="1"/>
      </contour>
    </TTGlyph>
    <TTGlyph name="dkshade" xMin="0" yMin="-615" xMax="1230" yMax="1705">
      <contour>
        <pt x="1230" y="-615" on="1"/>
        <pt x="0" y="-615" on="1"/>
        <pt x="0" y="-325" on="1"/>
        <pt x="102" y="-325" on="1"/>
        <pt x="102" y="-228" on="1"/>
        <pt x="0" y="-228" on="1"/>
        <pt x="0" y="62" on="1"/>
        <pt x="102" y="62" on="1"/>
        <pt x="102" y="159" on="1"/>
        <pt x="0" y="159" on="1"/>
        <pt x="0" y="450" on="1"/>
        <pt x="102" y="450" on="1"/>
        <pt x="102" y="546" on="1"/>
        <pt x="0" y="546" on="1"/>
        <pt x="0" y="835" on="1"/>
        <pt x="102" y="835" on="1"/>
        <pt x="102" y="933" on="1"/>
        <pt x="0" y="933" on="1"/>
        <pt x="0" y="1222" on="1"/>
        <pt x="102" y="1222" on="1"/>
        <pt x="102" y="1320" on="1"/>
        <pt x="0" y="1320" on="1"/>
        <pt x="0" y="1609" on="1"/>
        <pt x="102" y="1609" on="1"/>
        <pt x="102" y="1705" on="1"/>
        <pt x="205" y="1705" on="1"/>
        <pt x="205" y="1609" on="1"/>
        <pt x="307" y="1609" on="1"/>
        <pt x="307" y="1705" on="1"/>
        <pt x="410" y="1705" on="1"/>
        <pt x="410" y="1609" on="1"/>
        <pt x="512" y="1609" on="1"/>
        <pt x="512" y="1705" on="1"/>
        <pt x="615" y="1705" on="1"/>
        <pt x="615" y="1609" on="1"/>
        <pt x="717" y="1609" on="1"/>
        <pt x="717" y="1705" on="1"/>
        <pt x="820" y="1705" on="1"/>
        <pt x="820" y="1609" on="1"/>
        <pt x="922" y="1609" on="1"/>
        <pt x="922" y="1705" on="1"/>
        <pt x="1025" y="1705" on="1"/>
        <pt x="1025" y="1609" on="1"/>
        <pt x="1127" y="1609" on="1"/>
        <pt x="1127" y="1705" on="1"/>
        <pt x="1230" y="1705" on="1"/>
        <pt x="1230" y="1512" on="1"/>
        <pt x="1127" y="1512" on="1"/>
        <pt x="1127" y="1414" on="1"/>
        <pt x="1230" y="1414" on="1"/>
        <pt x="1230" y="1125" on="1"/>
        <pt x="1127" y="1125" on="1"/>
        <pt x="1127" y="1029" on="1"/>
        <pt x="1230" y="1029" on="1"/>
        <pt x="1230" y="738" on="1"/>
        <pt x="1127" y="738" on="1"/>
        <pt x="1127" y="642" on="1"/>
        <pt x="1230" y="642" on="1"/>
        <pt x="1230" y="351" on="1"/>
        <pt x="1127" y="351" on="1"/>
        <pt x="1127" y="255" on="1"/>
        <pt x="1230" y="255" on="1"/>
        <pt x="1230" y="-36" on="1"/>
        <pt x="1127" y="-36" on="1"/>
        <pt x="1127" y="-130" on="1"/>
        <pt x="1230" y="-130" on="1"/>
        <pt x="1230" y="-421" on="1"/>
        <pt x="1127" y="-421" on="1"/>
        <pt x="1127" y="-517" on="1"/>
        <pt x="1230" y="-517" on="1"/>
      </contour>
      <contour>
        <pt x="102" y="1125" on="1"/>
        <pt x="102" y="1029" on="1"/>
        <pt x="205" y="1029" on="1"/>
        <pt x="205" y="1125" on="1"/>
      </contour>
      <contour>
        <pt x="307" y="1125" on="1"/>
        <pt x="307" y="1029" on="1"/>
        <pt x="410" y="1029" on="1"/>
        <pt x="410" y="1125" on="1"/>
      </contour>
      <contour>
        <pt x="512" y="1125" on="1"/>
        <pt x="512" y="1029" on="1"/>
        <pt x="615" y="1029" on="1"/>
        <pt x="615" y="1125" on="1"/>
      </contour>
      <contour>
        <pt x="717" y="1125" on="1"/>
        <pt x="717" y="1029" on="1"/>
        <pt x="820" y="1029" on="1"/>
        <pt x="820" y="1125" on="1"/>
      </contour>
      <contour>
        <pt x="922" y="933" on="1"/>
        <pt x="820" y="933" on="1"/>
        <pt x="820" y="835" on="1"/>
        <pt x="922" y="835" on="1"/>
      </contour>
      <contour>
        <pt x="717" y="933" on="1"/>
        <pt x="615" y="933" on="1"/>
        <pt x="615" y="835" on="1"/>
        <pt x="717" y="835" on="1"/>
      </contour>
      <contour>
        <pt x="512" y="933" on="1"/>
        <pt x="410" y="933" on="1"/>
        <pt x="410" y="835" on="1"/>
        <pt x="512" y="835" on="1"/>
      </contour>
      <contour>
        <pt x="307" y="933" on="1"/>
        <pt x="205" y="933" on="1"/>
        <pt x="205" y="835" on="1"/>
        <pt x="307" y="835" on="1"/>
      </contour>
      <contour>
        <pt x="102" y="738" on="1"/>
        <pt x="102" y="642" on="1"/>
        <pt x="205" y="642" on="1"/>
        <pt x="205" y="738" on="1"/>
      </contour>
      <contour>
        <pt x="307" y="738" on="1"/>
        <pt x="307" y="642" on="1"/>
        <pt x="410" y="642" on="1"/>
        <pt x="410" y="738" on="1"/>
      </contour>
      <contour>
        <pt x="512" y="738" on="1"/>
        <pt x="512" y="642" on="1"/>
        <pt x="615" y="642" on="1"/>
        <pt x="615" y="738" on="1"/>
      </contour>
      <contour>
        <pt x="717" y="738" on="1"/>
        <pt x="717" y="642" on="1"/>
        <pt x="820" y="642" on="1"/>
        <pt x="820" y="738" on="1"/>
      </contour>
      <contour>
        <pt x="307" y="546" on="1"/>
        <pt x="205" y="546" on="1"/>
        <pt x="205" y="450" on="1"/>
        <pt x="307" y="450" on="1"/>
      </contour>
      <contour>
        <pt x="410" y="546" on="1"/>
        <pt x="410" y="450" on="1"/>
        <pt x="512" y="450" on="1"/>
        <pt x="512" y="546" on="1"/>
      </contour>
      <contour>
        <pt x="615" y="546" on="1"/>
        <pt x="615" y="450" on="1"/>
        <pt x="717" y="450" on="1"/>
        <pt x="717" y="546" on="1"/>
      </contour>
      <contour>
        <pt x="820" y="546" on="1"/>
        <pt x="820" y="450" on="1"/>
        <pt x="922" y="450" on="1"/>
        <pt x="922" y="546" on="1"/>
      </contour>
      <contour>
        <pt x="102" y="351" on="1"/>
        <pt x="102" y="255" on="1"/>
        <pt x="205" y="255" on="1"/>
        <pt x="205" y="351" on="1"/>
      </contour>
      <contour>
        <pt x="512" y="351" on="1"/>
        <pt x="512" y="255" on="1"/>
        <pt x="615" y="255" on="1"/>
        <pt x="615" y="351" on="1"/>
      </contour>
      <contour>
        <pt x="410" y="255" on="1"/>
        <pt x="410" y="351" on="1"/>
        <pt x="307" y="351" on="1"/>
        <pt x="307" y="255" on="1"/>
      </contour>
      <contour>
        <pt x="717" y="351" on="1"/>
        <pt x="717" y="255" on="1"/>
        <pt x="820" y="255" on="1"/>
        <pt x="820" y="351" on="1"/>
      </contour>
      <contour>
        <pt x="922" y="62" on="1"/>
        <pt x="922" y="159" on="1"/>
        <pt x="820" y="159" on="1"/>
        <pt x="820" y="62" on="1"/>
      </contour>
      <contour>
        <pt x="717" y="62" on="1"/>
        <pt x="717" y="159" on="1"/>
        <pt x="615" y="159" on="1"/>
        <pt x="615" y="62" on="1"/>
      </contour>
      <contour>
        <pt x="512" y="62" on="1"/>
        <pt x="512" y="159" on="1"/>
        <pt x="410" y="159" on="1"/>
        <pt x="410" y="62" on="1"/>
      </contour>
      <contour>
        <pt x="307" y="62" on="1"/>
        <pt x="307" y="159" on="1"/>
        <pt x="205" y="159" on="1"/>
        <pt x="205" y="62" on="1"/>
      </contour>
      <contour>
        <pt x="102" y="-36" on="1"/>
        <pt x="102" y="-130" on="1"/>
        <pt x="205" y="-130" on="1"/>
        <pt x="205" y="-36" on="1"/>
      </contour>
      <contour>
        <pt x="307" y="-36" on="1"/>
        <pt x="307" y="-130" on="1"/>
        <pt x="410" y="-130" on="1"/>
        <pt x="410" y="-36" on="1"/>
      </contour>
      <contour>
        <pt x="512" y="-36" on="1"/>
        <pt x="512" y="-130" on="1"/>
        <pt x="615" y="-130" on="1"/>
        <pt x="615" y="-36" on="1"/>
      </contour>
      <contour>
        <pt x="717" y="-36" on="1"/>
        <pt x="717" y="-130" on="1"/>
        <pt x="820" y="-130" on="1"/>
        <pt x="820" y="-36" on="1"/>
      </contour>
      <contour>
        <pt x="922" y="-325" on="1"/>
        <pt x="922" y="-228" on="1"/>
        <pt x="820" y="-228" on="1"/>
        <pt x="820" y="-325" on="1"/>
      </contour>
      <contour>
        <pt x="717" y="-325" on="1"/>
        <pt x="717" y="-228" on="1"/>
        <pt x="615" y="-228" on="1"/>
        <pt x="615" y="-325" on="1"/>
      </contour>
      <contour>
        <pt x="512" y="-325" on="1"/>
        <pt x="512" y="-228" on="1"/>
        <pt x="410" y="-228" on="1"/>
        <pt x="410" y="-325" on="1"/>
      </contour>
      <contour>
        <pt x="307" y="-325" on="1"/>
        <pt x="307" y="-228" on="1"/>
        <pt x="205" y="-228" on="1"/>
        <pt x="205" y="-325" on="1"/>
      </contour>
      <contour>
        <pt x="102" y="-421" on="1"/>
        <pt x="102" y="-517" on="1"/>
        <pt x="205" y="-517" on="1"/>
        <pt x="205" y="-421" on="1"/>
      </contour>
      <contour>
        <pt x="307" y="-421" on="1"/>
        <pt x="307" y="-517" on="1"/>
        <pt x="410" y="-517" on="1"/>
        <pt x="410" y="-421" on="1"/>
      </contour>
      <contour>
        <pt x="512" y="-421" on="1"/>
        <pt x="512" y="-517" on="1"/>
        <pt x="615" y="-517" on="1"/>
        <pt x="615" y="-421" on="1"/>
      </contour>
      <contour>
        <pt x="717" y="-421" on="1"/>
        <pt x="717" y="-517" on="1"/>
        <pt x="820" y="-517" on="1"/>
        <pt x="820" y="-421" on="1"/>
      </contour>
      <contour>
        <pt x="922" y="1320" on="1"/>
        <pt x="820" y="1320" on="1"/>
        <pt x="820" y="1222" on="1"/>
        <pt x="922" y="1222" on="1"/>
      </contour>
      <contour>
        <pt x="717" y="1320" on="1"/>
        <pt x="615" y="1320" on="1"/>
        <pt x="615" y="1222" on="1"/>
        <pt x="717" y="1222" on="1"/>
      </contour>
      <contour>
        <pt x="512" y="1320" on="1"/>
        <pt x="410" y="1320" on="1"/>
        <pt x="410" y="1222" on="1"/>
        <pt x="512" y="1222" on="1"/>
      </contour>
      <contour>
        <pt x="307" y="1320" on="1"/>
        <pt x="205" y="1320" on="1"/>
        <pt x="205" y="1222" on="1"/>
        <pt x="307" y="1222" on="1"/>
      </contour>
      <contour>
        <pt x="820" y="1512" on="1"/>
        <pt x="717" y="1512" on="1"/>
        <pt x="717" y="1414" on="1"/>
        <pt x="820" y="1414" on="1"/>
      </contour>
      <contour>
        <pt x="615" y="1512" on="1"/>
        <pt x="512" y="1512" on="1"/>
        <pt x="512" y="1414" on="1"/>
        <pt x="615" y="1414" on="1"/>
      </contour>
      <contour>
        <pt x="410" y="1512" on="1"/>
        <pt x="307" y="1512" on="1"/>
        <pt x="307" y="1414" on="1"/>
        <pt x="410" y="1414" on="1"/>
      </contour>
      <contour>
        <pt x="205" y="1512" on="1"/>
        <pt x="102" y="1512" on="1"/>
        <pt x="102" y="1414" on="1"/>
        <pt x="205" y="1414" on="1"/>
      </contour>
      <contour>
        <pt x="922" y="1125" on="1"/>
        <pt x="922" y="1029" on="1"/>
        <pt x="1025" y="1029" on="1"/>
        <pt x="1025" y="1125" on="1"/>
      </contour>
      <contour>
        <pt x="1127" y="933" on="1"/>
        <pt x="1025" y="933" on="1"/>
        <pt x="1025" y="835" on="1"/>
        <pt x="1127" y="835" on="1"/>
      </contour>
      <contour>
        <pt x="922" y="738" on="1"/>
        <pt x="922" y="642" on="1"/>
        <pt x="1025" y="642" on="1"/>
        <pt x="1025" y="738" on="1"/>
      </contour>
      <contour>
        <pt x="1025" y="546" on="1"/>
        <pt x="1025" y="450" on="1"/>
        <pt x="1127" y="450" on="1"/>
        <pt x="1127" y="546" on="1"/>
      </contour>
      <contour>
        <pt x="922" y="351" on="1"/>
        <pt x="922" y="255" on="1"/>
        <pt x="1025" y="255" on="1"/>
        <pt x="1025" y="351" on="1"/>
      </contour>
      <contour>
        <pt x="1127" y="62" on="1"/>
        <pt x="1127" y="159" on="1"/>
        <pt x="1025" y="159" on="1"/>
        <pt x="1025" y="62" on="1"/>
      </contour>
      <contour>
        <pt x="922" y="-36" on="1"/>
        <pt x="922" y="-130" on="1"/>
        <pt x="1025" y="-130" on="1"/>
        <pt x="1025" y="-36" on="1"/>
      </contour>
      <contour>
        <pt x="1127" y="-325" on="1"/>
        <pt x="1127" y="-228" on="1"/>
        <pt x="1025" y="-228" on="1"/>
        <pt x="1025" y="-325" on="1"/>
      </contour>
      <contour>
        <pt x="922" y="-421" on="1"/>
        <pt x="922" y="-517" on="1"/>
        <pt x="1025" y="-517" on="1"/>
        <pt x="1025" y="-421" on="1"/>
      </contour>
      <contour>
        <pt x="1127" y="1320" on="1"/>
        <pt x="1025" y="1320" on="1"/>
        <pt x="1025" y="1222" on="1"/>
        <pt x="1127" y="1222" on="1"/>
      </contour>
      <contour>
        <pt x="1025" y="1512" on="1"/>
        <pt x="922" y="1512" on="1"/>
        <pt x="922" y="1414" on="1"/>
        <pt x="1025" y="1414" on="1"/>
      </contour>
    </TTGlyph>
    <TTGlyph name="dnblock" xMin="0" yMin="-615" xMax="1229" yMax="627">
      <contour>
        <pt x="1229" y="-615" on="1"/>
        <pt x="0" y="-615" on="1"/>
        <pt x="0" y="627" on="1"/>
        <pt x="1229" y="627" on="1"/>
      </contour>
    </TTGlyph>
    <TTGlyph name="dollar" xMin="66" yMin="-141" xMax="1150" yMax="1476">
      <contour>
        <pt x="1150" y="380" on="1"/>
        <pt x="1150" y="218" on="0"/>
        <pt x="910" y="29" on="0"/>
        <pt x="686" y="20" on="1"/>
        <pt x="686" y="-141" on="1"/>
        <pt x="558" y="-141" on="1"/>
        <pt x="558" y="20" on="1"/>
        <pt x="136" y="34" on="0"/>
        <pt x="66" y="379" on="1"/>
        <pt x="236" y="416" on="1"/>
        <pt x="262" y="290" on="0"/>
        <pt x="422" y="165" on="0"/>
        <pt x="558" y="158" on="1"/>
        <pt x="558" y="647" on="1"/>
        <pt x="528" y="655" on="1"/>
        <pt x="360" y="696" on="0"/>
        <pt x="203" y="793" on="0"/>
        <pt x="130" y="929" on="0"/>
        <pt x="130" y="1023" on="1"/>
        <pt x="130" y="1172" on="0"/>
        <pt x="349" y="1339" on="0"/>
        <pt x="558" y="1346" on="1"/>
        <pt x="558" y="1476" on="1"/>
        <pt x="686" y="1476" on="1"/>
        <pt x="686" y="1346" on="1"/>
        <pt x="872" y="1339" on="0"/>
        <pt x="1074" y="1194" on="0"/>
        <pt x="1119" y="1025" on="1"/>
        <pt x="945" y="992" on="1"/>
        <pt x="923" y="1098" on="0"/>
        <pt x="795" y="1206" on="0"/>
        <pt x="686" y="1213" on="1"/>
        <pt x="686" y="787" on="1"/>
        <pt x="858" y="745" on="0"/>
        <pt x="1012" y="673" on="0"/>
        <pt x="1104" y="581" on="0"/>
        <pt x="1150" y="460" on="0"/>
      </contour>
      <contour>
        <pt x="302" y="1018" on="1"/>
        <pt x="302" y="961" on="0"/>
        <pt x="349" y="884" on="0"/>
        <pt x="439" y="833" on="0"/>
        <pt x="558" y="802" on="1"/>
        <pt x="558" y="1215" on="1"/>
        <pt x="432" y="1210" on="0"/>
        <pt x="302" y="1109" on="0"/>
      </contour>
      <contour>
        <pt x="978" y="383" on="1"/>
        <pt x="978" y="449" on="0"/>
        <pt x="923" y="535" on="0"/>
        <pt x="823" y="592" on="0"/>
        <pt x="686" y="627" on="1"/>
        <pt x="686" y="156" on="1"/>
        <pt x="830" y="165" on="0"/>
        <pt x="978" y="282" on="0"/>
      </contour>
    </TTGlyph>
    <TTGlyph name="dong" xMin="138" yMin="-298" xMax="1174" yMax="1484">
      <component glyphName="dcroat" x="0" y="0" flags="0x204"/>
      <component glyphName="endash" x="0" y="-749" flags="0x4"/>
    </TTGlyph>
    <TTGlyph name="dotaccent" xMin="515" yMin="1292" xMax="715" yMax="1484">
      <contour>
        <pt x="515" y="1292" on="1"/>
        <pt x="515" y="1484" on="1"/>
        <pt x="715" y="1484" on="1"/>
        <pt x="715" y="1292" on="1"/>
      </contour>
    </TTGlyph>
    <TTGlyph name="dotbelow.alt1" xMin="-251" yMin="-321" xMax="-51" yMax="-129">
      <contour>
        <pt x="-251" y="-321" on="1"/>
        <pt x="-251" y="-129" on="1"/>
        <pt x="-51" y="-129" on="1"/>
        <pt x="-51" y="-321" on="1"/>
      </contour>
    </TTGlyph>
</ttFont>
